<svg width="694" height="663" viewBox="0 0 694 663" fill="none" xmlns="http://www.w3.org/2000/svg">
<g filter="url(#filter0_f)">
<path d="M347 331.5L644 50L644 613L347 331.5Z" fill="url(#paint0_linear)"/>
</g>
<path d="M354.046 316.331C355.313 316.331 356.335 324.688 356.335 334.986C356.335 345.284 355.313 353.634 354.046 353.634C352.786 353.634 351.758 345.284 351.758 334.986C351.758 325.343 352.658 317.404 353.808 316.434C353.886 316.369 353.963 316.331 354.046 316.331Z" fill="white"/>
<path d="M354.046 353.634V353.647C352.221 353.833 350.44 353.814 348.73 353.621C348.582 353.332 345.349 347.116 345.529 335.519C345.722 322.958 348.062 316.819 348.062 316.819L348.049 316.723C349.842 316.434 351.764 316.324 353.809 316.427L353.815 316.434C352.664 317.404 351.764 325.343 351.764 334.986C351.758 345.29 352.786 353.634 354.046 353.634Z" fill="#A3DF21"/>
<path d="M330.583 341.266C329.876 339.62 329.516 337.943 329.548 336.297C329.6 334.079 330.133 331.733 331.13 329.445C333.727 323.537 339.454 318.092 348.042 316.723L348.055 316.819C348.055 316.819 345.715 322.958 345.523 335.519C345.343 347.116 348.576 353.332 348.724 353.621C340.091 352.638 333.116 347.206 330.583 341.266Z" fill="#85B71B"/>
<path d="M330.622 329.772L331.13 329.451C330.133 331.733 329.6 334.086 329.548 336.303C329.51 337.943 329.876 339.627 330.583 341.273C327.787 341.298 321.648 341.369 316.158 341.446C313.066 341.485 310.18 341.536 308.226 341.568L307.917 341.632C307.294 339.575 307.017 336.876 307.049 335.275C307.069 334.561 307.12 333.809 306.85 333.147C306.58 332.485 305.854 331.932 305.166 332.138C304.658 332.292 304.337 332.794 304.086 333.263C303.507 334.362 303.102 335.596 302.813 336.805C302.813 335.77 302.839 334.741 302.813 333.713C302.8 333.282 302.781 332.839 302.607 332.453C302.427 332.067 302.055 331.733 301.624 331.727L301.56 329.997C303.295 329.933 305.031 329.901 306.766 329.894L306.908 329.676C308.206 330.518 309.511 331.367 310.803 332.209C311.511 332.665 312.295 333.141 313.124 333.006C313.928 332.871 314.403 332.17 313.51 330.19L313.773 330.068C317.913 329.927 326.482 329.914 330.622 329.772Z" fill="#85B71B"/>
<path d="M307.911 341.626L308.219 341.562C310.174 341.53 313.06 341.485 316.152 341.44V341.459C318.145 341.44 319.777 341.472 319.906 341.652C320.195 342.07 313.349 345.078 310.366 345.843C307.384 346.608 304.317 347.54 300.962 347.939L300.139 345.547C299.361 344.088 298.133 340.604 298.121 339.331V339.132H298.153C298.41 336.863 299.162 334.651 300.345 332.71C300.64 332.228 301.058 331.707 301.624 331.72C302.055 331.727 302.421 332.054 302.608 332.446C302.788 332.832 302.807 333.276 302.813 333.706C302.839 334.741 302.813 335.77 302.813 336.798C303.096 335.59 303.501 334.356 304.086 333.256C304.337 332.787 304.658 332.286 305.166 332.131C305.854 331.932 306.58 332.479 306.85 333.141C307.12 333.803 307.062 334.555 307.049 335.268C307.011 336.869 307.287 339.575 307.911 341.626Z" fill="#F49B73"/>
<path d="M306.908 329.676L306.767 329.894C305.031 329.901 303.289 329.933 301.56 329.997C300.73 330.023 299.901 330.062 299.066 330.107L299.059 329.972C300.82 328.358 304.24 325.98 306.619 325.8C309.004 325.62 311.119 326.211 312.404 328.217C312.893 328.982 313.253 329.637 313.503 330.19C314.403 332.164 313.921 332.871 313.118 333.006C312.295 333.147 311.504 332.671 310.797 332.209C309.511 331.366 308.206 330.512 306.908 329.676Z" fill="#F49B73"/>
<path d="M301.56 329.997L301.624 331.727C301.058 331.714 300.64 332.234 300.345 332.717C299.155 334.664 298.403 336.876 298.153 339.145H298.121C298.133 337.943 298.358 336.747 298.294 335.551C298.268 335.063 298.191 334.568 297.941 334.144C297.696 333.726 297.246 333.404 296.758 333.404C296.134 333.417 295.646 333.951 295.318 334.491C294.714 335.487 294.392 336.631 294.174 337.788C293.929 339.093 293.814 340.424 293.936 341.742L293.608 341.761C291.949 341.568 289.995 342.031 289.32 341.273C287.765 339.524 288.047 334.394 288.742 332.312C288.896 331.836 289.108 331.335 289.526 331.058C289.867 330.827 290.285 330.782 290.683 330.743C292.084 330.602 293.492 330.48 294.894 330.37C296.282 330.267 297.683 330.177 299.072 330.113C299.901 330.055 300.73 330.023 301.56 329.997Z" fill="#85B71B"/>
<path d="M300.139 345.554L300.962 347.945C300.486 348.003 299.998 348.048 299.509 348.08C298.834 348.125 297.368 347.945 296.681 347.591C296.681 347.591 296.674 347.591 296.674 347.585C295.704 346.737 294.99 345.637 294.534 344.422C294.36 343.979 294.225 343.516 294.129 343.047C294.032 342.61 293.974 342.172 293.936 341.729C293.814 340.411 293.929 339.074 294.174 337.776C294.386 336.625 294.707 335.474 295.318 334.478C295.646 333.938 296.134 333.411 296.758 333.391C297.246 333.385 297.696 333.713 297.941 334.131C298.191 334.555 298.268 335.05 298.294 335.538C298.358 336.741 298.133 337.936 298.121 339.132V339.331C298.127 340.604 299.361 344.095 300.139 345.554Z" fill="#F49B73"/>
<path d="M294.874 330.164L294.887 330.357C293.486 330.467 292.078 330.589 290.677 330.73C290.278 330.769 289.854 330.82 289.519 331.045C289.102 331.328 288.889 331.823 288.735 332.299C288.047 334.388 287.758 339.511 289.32 341.26C289.995 342.018 291.949 341.555 293.608 341.748L293.936 341.729C293.974 342.172 294.032 342.61 294.129 343.047C294.225 343.516 294.36 343.972 294.533 344.422L294.386 344.48C293.209 344.57 290.362 344.48 288.922 344.551C288.806 344.551 288.697 344.564 288.594 344.564C288.189 344.596 287.771 344.628 287.372 344.525C286.53 344.307 285.92 343.548 285.592 342.751C282.699 335.706 287.141 330.762 288.247 330.158C288.247 330.158 288.292 330.145 288.375 330.139C289.327 329.984 294.964 329.091 294.874 330.164Z" fill="#2979E1"/>
<path d="M289.661 277.048C291.988 279.291 292.734 282.107 291.853 285.456C290.992 288.754 289.661 290.997 287.765 293.832C286.402 295.876 284.557 298.525 282.506 299.875C280.449 301.218 277.402 301.327 275.146 300.337C273.166 299.47 271.739 297.522 269.862 296.583C269.444 296.371 269.013 296.217 268.538 296.127C266.339 295.715 264.154 297.059 261.917 296.93C261.164 296.892 260.445 296.673 259.782 296.326C258.214 295.51 256.999 293.941 256.478 292.212C255.752 289.756 256.247 287.082 257.23 284.717C259.075 280.3 264.597 274.926 269.058 273.184C273.05 271.622 280.064 270.491 287.861 275.621C288.542 276.064 289.14 276.54 289.661 277.048ZM289.172 287.037C289.86 284.942 289.97 282.583 289.037 280.59C287.88 278.102 285.309 276.566 282.706 275.73C279.504 274.708 271.398 273.48 265.131 280.255C262.939 282.627 260.753 285.192 260.117 288.362C259.789 289.994 259.969 291.948 261.306 292.938C262.039 293.485 262.997 293.633 263.909 293.62C266.853 293.594 269.978 292.161 272.594 293.498C274.51 294.475 275.577 296.738 277.576 297.541C279.202 298.197 281.111 297.708 282.538 296.712C283.978 295.709 285.026 294.263 286.023 292.816C287.276 290.997 288.491 289.126 289.172 287.037Z" fill="#A3DF21"/>
<path d="M253.071 278.558C253.129 278.494 253.193 278.423 253.258 278.359C253.9 277.639 254.601 276.964 255.328 276.328C260.014 272.252 265.915 269.585 272.073 268.775C275.024 268.389 278.103 268.428 280.88 269.514C281.94 269.932 282.943 270.491 283.895 271.134C284.004 271.205 284.113 271.282 284.223 271.365C286.389 272.869 288.259 274.779 289.732 276.971L289.661 277.048C289.14 276.534 288.542 276.064 287.867 275.614C280.076 270.485 273.057 271.616 269.065 273.178C264.61 274.914 259.082 280.294 257.237 284.71C256.253 287.069 255.758 289.75 256.485 292.206C256.999 293.935 258.22 295.503 259.782 296.32L259.705 296.468C256.999 295.497 254.331 294.288 252.068 292.508C251.168 291.801 250.326 290.991 249.825 289.962C249.324 288.927 249.208 287.738 249.291 286.587C249.317 286.208 249.369 285.829 249.439 285.462C249.915 282.891 251.297 280.564 253.071 278.558Z" fill="#A3DF21"/>
<path d="M289.038 280.583C289.97 282.576 289.854 284.935 289.172 287.031C288.491 289.12 287.276 290.997 286.029 292.81C285.039 294.256 283.985 295.703 282.545 296.699C281.111 297.695 279.202 298.184 277.582 297.528C275.583 296.725 274.516 294.468 272.6 293.485C269.978 292.148 266.854 293.575 263.916 293.607C263.003 293.62 262.045 293.466 261.312 292.919C259.975 291.929 259.795 289.975 260.123 288.342C260.753 285.173 262.945 282.608 265.137 280.236C271.405 273.467 279.511 274.689 282.712 275.711C285.309 276.559 287.88 278.102 289.038 280.583Z" fill="#3E94F6"/>
<path d="M234.192 331.604L234.256 331.592C249.742 329.072 265.42 327.748 281.105 327.619C283.702 327.6 286.691 327.722 288.305 329.805L288.375 330.139C288.292 330.152 288.247 330.158 288.247 330.158C287.141 330.762 282.693 335.706 285.592 342.751C285.92 343.548 286.53 344.307 287.373 344.525C287.765 344.622 288.189 344.596 288.594 344.564C288.69 344.557 288.8 344.551 288.922 344.551L288.935 344.77C286.447 351.346 264.488 353.223 255.038 353.583C242.413 354.065 222.601 356.36 216.244 353.814C213.467 352.696 211.68 350.047 210.42 347.334C205.856 337.518 203.522 325.292 203.998 314.473V314.145C204.66 314.152 205.329 314.145 205.997 314.132L206.524 314.235C206.434 314.64 206.364 315.045 206.293 315.444C205.444 320.246 205.901 326.34 209.07 330.055C212.014 333.507 216.893 335.024 221.341 334.144C225.796 333.269 229.351 331.463 233.131 328.956C233.382 328.789 233.639 328.615 233.902 328.435L233.909 328.448C233.979 329.47 234.069 330.525 234.192 331.604Z" fill="#2979E1"/>
<path d="M244.065 257.159C244.072 257.152 244.078 257.146 244.078 257.146C245.338 255.61 246.643 254.093 247.993 252.595C253.02 247.009 264.938 241.197 277.505 251.136C284.287 256.497 285.688 263.446 284.891 268.897L284.551 268.845C284.049 266.049 282.924 264.892 280.173 264.172C266.146 260.527 255.771 267.097 250.751 274.168C250.269 274.849 249.767 275.55 249.259 276.276L249.137 276.54C244.406 274.457 239.823 271.995 236.281 268.28L235.991 268.087C236.294 267.624 236.602 267.168 236.917 266.711C238.923 263.786 241.038 260.919 243.307 258.11C243.545 257.795 243.802 257.48 244.065 257.159Z" fill="#2979E1"/>
<path d="M284.55 268.845L284.891 268.897C284.788 269.642 284.634 270.362 284.454 271.037L284.223 271.365C284.113 271.282 284.004 271.205 283.895 271.134C282.943 270.497 281.947 269.932 280.88 269.514C278.103 268.428 275.024 268.389 272.073 268.775C265.915 269.585 260.014 272.246 255.328 276.321C254.601 276.951 253.901 277.626 253.258 278.353L253.11 278.211C251.786 277.665 250.455 277.119 249.137 276.534L249.259 276.27C249.774 275.544 250.269 274.843 250.757 274.162C255.778 267.097 266.153 260.521 280.179 264.166C282.918 264.892 284.049 266.049 284.55 268.845Z" fill="#F49B73"/>
<path d="M270.042 296.75C272.182 299.772 271.816 304.979 266.172 313.547C261.518 320.606 251.972 318.163 249.587 316.813H249.002L249.388 316.421C249.973 314.132 248.218 312.815 246.296 313.567L246.193 313.612C245.293 311.722 244.509 309.375 245.132 306.425C246.424 300.267 267.381 295.388 269.855 296.596C269.939 296.647 269.997 296.699 270.042 296.75Z" fill="#A3DF21"/>
<path d="M269.862 296.583L269.849 296.609C267.368 295.401 246.418 300.28 245.126 306.438C244.509 309.382 245.293 311.735 246.187 313.625C246.187 313.637 246.193 313.638 246.2 313.65L246.103 314.139C245.113 314.968 243.725 316.112 242.073 317.404L241.79 317.038L241.796 317.019C234.487 313.213 235.953 295.851 244.072 283.765L244.194 283.502C245.807 284.26 247.466 284.916 249.163 285.456L249.439 285.469C249.369 285.835 249.317 286.215 249.292 286.594C249.208 287.738 249.324 288.934 249.825 289.969C250.32 290.997 251.169 291.814 252.069 292.514C254.338 294.295 256.999 295.503 259.705 296.474L259.782 296.326C260.445 296.673 261.165 296.892 261.917 296.93C264.154 297.053 266.339 295.716 268.538 296.127C269.013 296.217 269.451 296.371 269.862 296.583Z" fill="#F49B73"/>
<path d="M253.071 278.558C251.297 280.564 249.909 282.891 249.439 285.462L249.163 285.45C247.466 284.903 245.807 284.247 244.194 283.495C239.578 281.335 235.368 278.333 231.826 274.669H231.82C232.25 273.943 232.694 273.223 233.137 272.503C234.057 271.012 235.008 269.54 235.979 268.087L236.268 268.28C239.81 271.995 244.393 274.457 249.124 276.54C250.442 277.125 251.779 277.678 253.097 278.224L253.245 278.366C253.194 278.423 253.129 278.494 253.071 278.558Z" fill="#A3DF21"/>
<path d="M246.296 313.58C248.218 312.827 249.973 314.145 249.388 316.434L249.002 316.826C244.85 320.014 238.486 325.292 233.902 328.455C233.639 328.628 233.375 328.808 233.131 328.975C229.345 331.482 225.79 333.289 221.341 334.163C216.893 335.037 212.014 333.526 209.07 330.074C205.907 326.359 205.451 320.265 206.293 315.463C206.364 315.064 206.441 314.659 206.524 314.254C209.166 301.212 217.44 286.838 225.816 278.153C225.912 278.051 226.008 277.954 226.105 277.851C227.866 276.058 229.628 274.515 231.344 273.294C231.839 272.94 232.34 272.612 232.829 272.317L233.144 272.509C232.7 273.229 232.257 273.949 231.826 274.676C231.363 275.441 230.913 276.218 230.47 276.99L230.302 276.893C225.481 282.878 214.765 300.414 210.966 312.397C210.748 313.085 210.548 313.914 210.388 314.833C209.764 318.356 209.655 323.138 210.863 325.62C214.598 333.25 224.877 329.001 233.645 323.421C236.769 321.428 239.694 319.269 242.073 317.424C243.731 316.125 245.113 314.987 246.103 314.158L246.2 313.67C246.193 313.657 246.187 313.657 246.187 313.644L246.296 313.58Z" fill="#A3DF21"/>
<path d="M243.969 248.217C245.672 253.842 244.412 256.554 244.072 257.146C244.072 257.152 244.065 257.159 244.059 257.159C243.802 257.474 243.538 257.789 243.288 258.11L243.21 258.046C243.21 254.735 235.606 256.683 235.342 262.726C235.278 264.178 235.631 265.747 236.821 266.653L236.898 266.705C236.589 267.161 236.274 267.618 235.972 268.08C234.995 269.533 234.044 271.005 233.131 272.497L232.822 272.304C232.334 272.606 231.839 272.934 231.337 273.287L231.267 273.184C231.922 271.822 232.694 269.675 233.176 267.148C234.057 262.565 233.999 256.76 230.617 252.151L230.817 252.01C231.267 246.938 237.541 241.487 240.433 242.277L240.607 242.123C241.957 243.589 243.159 245.543 243.969 248.217Z" fill="#A3DF21"/>
<path d="M232.25 311.182L231.858 311.555C230.444 311.87 228.773 311.863 226.979 311.574L226.831 313.329C221.907 315.566 210.671 314.872 210.671 314.872L210.388 314.82C210.548 313.901 210.748 313.072 210.966 312.384C214.765 300.402 225.481 282.865 230.302 276.881L230.47 276.977C230.913 276.206 231.37 275.428 231.826 274.663H231.832C235.374 278.327 239.585 281.329 244.2 283.489L244.078 283.753C235.959 295.838 234.494 313.207 241.803 317.006L241.796 317.025C238.974 315.83 236.294 314.287 233.844 312.435C233.716 312.345 233.594 312.249 233.459 312.153C233.047 311.857 232.642 311.523 232.25 311.182Z" fill="#2979E1"/>
<path d="M243.217 258.046L243.294 258.11C241.025 260.919 238.91 263.78 236.904 266.711L236.827 266.66C235.638 265.753 235.284 264.185 235.349 262.732C235.619 256.69 243.217 254.735 243.217 258.046Z" fill="#2979E1"/>
<path d="M240.607 242.129L240.433 242.284C237.534 241.493 231.267 246.938 230.817 252.016L230.617 252.158C230.386 251.849 230.142 251.534 229.878 251.232C228.554 249.702 226.805 248.333 224.549 247.227C220.634 245.318 208.421 240.349 201.221 237.604L201.311 237.347C201.883 233.374 204.474 229.742 208.041 227.917L208.311 227.274C219.066 231.799 229.454 236.228 234.77 238.318C236.538 239.005 238.717 240.072 240.607 242.129Z" fill="#A3DF21"/>
<path d="M233.452 312.165C233.581 312.262 233.709 312.365 233.838 312.448C233.304 315.958 233.606 319.718 233.606 323.344L233.645 323.402C224.883 328.988 214.598 333.237 210.863 325.6C209.655 323.125 209.764 318.343 210.388 314.82L210.67 314.872C210.67 314.872 221.907 315.566 226.831 313.329L226.979 311.574C228.772 311.863 230.437 311.87 231.858 311.555L232.25 311.182C232.642 311.522 233.047 311.857 233.452 312.165Z" fill="#2979E1"/>
<path d="M230.624 252.151C234.005 256.76 234.063 262.565 233.182 267.148L233.105 267.142C233.099 265.985 231.91 265.091 230.759 265.078C229.602 265.066 228.535 265.721 227.699 266.518C225.25 268.852 223.289 275.91 225.918 277.665L226.105 277.845C226.008 277.941 225.912 278.044 225.816 278.147L225.719 278.051C221.534 280.95 215.865 279.066 212.329 277.986L212.406 277.723C211.532 262.533 225.263 249.381 229.647 251.425L229.878 251.226C230.148 251.528 230.399 251.843 230.624 252.151Z" fill="#A3DF21"/>
<path d="M233.105 267.142L233.182 267.148C232.7 269.668 231.929 271.822 231.273 273.184L231.344 273.287C229.627 274.509 227.86 276.045 226.105 277.845L225.918 277.665C223.289 275.91 225.25 268.852 227.699 266.518C228.541 265.721 229.602 265.065 230.759 265.078C231.909 265.098 233.099 265.985 233.105 267.142Z" fill="#2979E1"/>
<path d="M229.885 251.232L229.653 251.431C225.275 249.387 211.538 262.533 212.412 277.729L212.335 277.993C211.596 277.768 210.953 277.575 210.433 277.472C207.836 276.951 199.055 274.052 188.499 270.35L188.57 270.144C184.675 262.16 192.151 239.487 198.74 236.948L198.83 236.698C199.537 236.955 200.347 237.263 201.227 237.598C208.427 240.342 220.641 245.311 224.555 247.221C226.812 248.326 228.56 249.702 229.885 251.232Z" fill="#A3DF21"/>
<path d="M163.397 261.266C171.516 264.294 180.516 267.553 188.5 270.356C199.061 274.052 207.836 276.958 210.433 277.478C210.953 277.581 211.596 277.774 212.336 277.999C215.871 279.079 221.534 280.963 225.726 278.063L225.816 278.16C217.433 286.838 209.166 301.212 206.524 314.261L205.997 314.158C205.329 314.171 204.66 314.171 203.998 314.171C188.358 314.145 174.454 311.253 160.029 304.818L160.042 304.696C152.726 303.995 145.424 303.005 138.153 302.015C120.386 299.592 102.149 297.014 86.4767 288.297L86.5217 288.207C85.8917 287.738 85.5832 287.012 85.4418 286.227C85.3775 285.842 85.3453 285.443 85.3453 285.057C85.3196 281.683 86.6631 278.321 89.003 275.897C90.9636 273.866 93.6121 272.503 96.3955 272.066C96.9355 271.976 97.4755 271.924 98.0219 271.912L98.0861 271.899C108.384 275.402 118.959 278.192 129.7 280.243C132.741 280.821 135.801 281.342 138.861 281.798L138.867 281.76C141.483 272.863 144.736 263.812 151.132 257.101L151.216 256.632C154.809 258.027 158.975 259.614 163.397 261.266Z" fill="#2979E1"/>
<path d="M208.324 227.274L208.054 227.917C204.487 229.749 201.896 233.374 201.324 237.347L201.234 237.604C200.353 237.27 199.543 236.961 198.836 236.704C198.187 236.466 197.628 236.261 197.165 236.106C193.771 234.943 190.376 233.779 186.982 232.622C183.723 231.51 180.458 230.398 177.192 229.292C178.497 224.722 181.505 220.653 185.504 218.069L185.568 217.908C192.035 220.447 200.276 223.886 208.324 227.274Z" fill="#2979E1"/>
<path d="M177.186 229.286C180.451 230.398 183.717 231.51 186.976 232.616C190.37 233.773 193.764 234.936 197.158 236.1C197.621 236.254 198.18 236.46 198.83 236.698L198.733 236.948C192.144 239.487 184.668 262.153 188.564 270.144L188.493 270.349C180.509 267.553 171.516 264.294 163.391 261.26C159.611 253.199 164.111 234.763 173.219 227.981L173.232 227.942C174.556 228.392 175.868 228.836 177.186 229.286Z" fill="#2979E1"/>
<path d="M185.562 217.901L185.497 218.062C181.499 220.646 178.491 224.715 177.186 229.286C175.868 228.842 174.556 228.392 173.239 227.949C168.52 226.348 163.796 224.76 159.071 223.166L159.135 222.992C160.112 219.875 163.808 215.394 169.099 213.941C171.599 213.254 174.229 213.819 176.697 214.616C178.844 215.311 181.923 216.461 185.562 217.901Z" fill="#A3DF21"/>
<path d="M143.341 253.424C141.715 252.736 140.474 252.164 139.709 251.753L139.291 251.38C137.363 249.747 136.958 245.761 137.504 241.371C138.018 237.27 139.355 232.828 141.059 229.614C143.739 224.542 148.419 220.453 152.565 220.981C154.732 221.707 156.898 222.44 159.064 223.166C163.789 224.76 168.52 226.355 173.239 227.949L173.226 227.987C164.117 234.769 159.617 253.205 163.397 261.266C158.974 259.614 154.815 258.027 151.216 256.619C148.104 255.404 145.411 254.311 143.341 253.424Z" fill="#A3DF21"/>
<path d="M151.209 256.619L151.126 257.088C144.73 263.799 141.477 272.85 138.861 281.747L138.854 281.785C135.794 281.329 132.734 280.808 129.694 280.23L129.842 279.484C132.374 269.565 136.816 261.305 143.341 253.43C145.411 254.311 148.104 255.404 151.209 256.619Z" fill="#85B71B"/>
<path d="M83.2304 218.518L83.4232 218.628C92.667 225.448 102.271 231.761 112.196 237.54C114.009 238.6 115.905 239.661 117.994 239.873C119.428 240.021 120.861 239.757 122.288 239.59C127.251 239.012 132.342 239.603 137.035 241.3L137.504 241.364C136.958 245.755 137.356 249.74 139.291 251.373L139.709 251.746C140.474 252.158 141.715 252.73 143.341 253.417C136.816 261.292 132.374 269.552 129.842 279.471L129.694 280.217C118.959 278.166 108.378 275.376 98.0796 271.873L98.0154 271.886C97.469 271.899 96.929 271.95 96.389 272.04L96.3504 271.777C94.0877 267.373 91.1114 263.33 87.5694 259.865C87.2287 259.531 86.8495 259.184 86.3738 259.113C85.6988 259.016 85.0624 259.537 84.7989 260.174C84.5417 260.804 84.5867 261.511 84.6574 262.192C84.6703 262.301 84.6831 262.404 84.696 262.513L84.1496 262.578C81.0383 261.35 79.1291 258.187 76.2493 256.503C76.0179 256.368 75.7607 256.239 75.4972 256.265C75.2336 256.297 74.9765 256.548 75.0536 256.812L74.7193 257.165C74.1665 256.644 73.588 256.169 72.9644 255.751C72.5466 255.468 72.0773 255.211 71.5824 255.25C71.081 255.295 70.5988 255.777 70.7403 256.259L70.6438 256.349C70.4381 256.117 70.2196 255.886 69.9946 255.661C69.5382 255.205 68.8504 254.748 68.304 255.082C68.0468 255.237 67.9118 255.526 67.809 255.809C67.6611 256.227 67.5583 256.657 67.5068 257.101L66.4719 257.011C63.7656 255.23 61.1879 253.237 58.7901 251.058C57.1445 249.567 55.5696 247.966 54.4382 246.057C51.0569 240.336 52.2976 233.04 54.3868 226.734C55.5053 223.378 56.8295 220.093 58.3594 216.899C61.0914 211.177 64.4727 205.771 68.4197 200.809C69.0882 199.966 69.7889 199.124 70.6181 198.449C70.946 198.179 71.2995 197.935 71.6724 197.729C72.9902 197.003 74.6422 196.907 75.7093 197.498L75.7736 197.556L75.7607 197.569C74.9251 198.25 75.1243 199.574 75.5293 200.571C76.9692 204.164 80.0098 207.089 83.6611 208.381C84.1239 208.542 84.606 208.69 85.0946 208.69L86.5281 208.702C87.293 210.843 86.2452 211.807 85.4738 213.954C84.9081 215.555 84.0917 217.046 83.2304 218.518Z" fill="#2979E1"/>
<path d="M78.5375 194.406C77.8754 193.371 77.2969 192.278 76.7955 191.147C68.0788 171.374 61.9141 153.959 55.8972 132.129L55.9679 131.956C58.9764 133.228 63.0197 135.279 66.1246 136.263C66.9667 136.532 75.2527 132.296 75.722 132.483C78.9618 133.788 85.2679 136.301 85.2679 136.301C85.2679 136.301 91.0084 134.283 93.554 132.856C95.791 137.188 102.078 177.905 101.133 193.892C100.574 203.464 94.7239 205.103 89.9156 203.978C88.0642 203.541 86.3672 202.699 85.1844 201.747C82.6002 199.664 80.2989 197.209 78.5375 194.406Z" fill="#85B71B"/>
<path d="M74.7256 257.165L75.0599 256.812C74.9828 256.555 75.2335 256.297 75.5035 256.265C75.767 256.24 76.0241 256.368 76.2556 256.503C79.1354 258.187 81.051 261.35 84.1559 262.578L84.7087 262.514C84.6959 262.404 84.6766 262.301 84.6637 262.192C84.593 261.511 84.548 260.81 84.8052 260.174C85.0623 259.537 85.7051 259.017 86.3801 259.113C86.8558 259.184 87.235 259.531 87.5757 259.865C91.1113 263.33 94.094 267.373 96.3567 271.777L96.3953 272.04C93.6119 272.477 90.9634 273.834 89.0028 275.871C86.6629 278.295 85.3194 281.657 85.3451 285.032C85.3516 285.417 85.3773 285.816 85.4415 286.202L84.638 286.356C74.4492 281.933 66.4975 272.677 63.6562 261.941C63.5598 261.556 63.4633 261.125 63.624 260.765C63.8683 260.232 64.5819 260.058 65.1411 260.238C65.7004 260.411 66.1375 260.849 66.5489 261.266C67.6031 262.34 68.6574 263.407 69.7052 264.481L69.7373 264.448C68.9981 263.118 68.2588 261.768 67.8281 260.309C67.5196 259.274 67.3846 258.174 67.5131 257.114C67.5646 256.67 67.661 256.246 67.8153 255.822C67.9181 255.539 68.0595 255.25 68.3167 255.095C68.8631 254.761 69.5509 255.217 70.0073 255.674C70.2323 255.899 70.4508 256.124 70.6566 256.355L70.753 256.265C70.6116 255.783 71.0937 255.301 71.5951 255.256C72.0901 255.217 72.5657 255.475 72.9772 255.757C73.5943 256.169 74.1792 256.645 74.7256 257.165Z" fill="#F49B73"/>
<path d="M89.9222 203.984L89.9093 204.306C89.1958 205.328 88.418 206.311 87.5823 207.231C87.0037 207.867 86.3416 208.503 85.4931 208.658C85.3581 208.683 85.2296 208.696 85.0946 208.696C84.606 208.696 84.1239 208.548 83.661 208.388C80.0098 207.096 76.9692 204.177 75.5293 200.577C75.1308 199.574 74.925 198.25 75.7607 197.575L75.7736 197.562L78.5249 194.406C80.2926 197.209 82.5875 199.671 85.1781 201.754C86.3738 202.705 88.0708 203.547 89.9222 203.984Z" fill="#2979E1"/>
<path d="M70.618 198.443L70.6309 198.456C69.8016 199.131 69.1009 199.979 68.4324 200.815C64.4855 205.778 61.1042 211.19 58.3722 216.905L57.5944 216.539C53.7374 209.68 50.6647 202.409 47.592 195.152C47.0713 193.905 46.5313 192.638 46.3835 191.295C46.2356 189.951 46.6406 187.862 47.5727 186.879L47.6627 186.679C49.0833 187.309 50.5618 187.779 52.1111 187.984C55.3895 188.409 59.0921 187.245 60.8985 184.577L61.2778 184.789C62.5827 184.777 62.9941 185.291 63.9326 186.204C64.8647 187.116 65.5333 188.261 66.1761 189.392C67.8024 192.343 69.2874 195.364 70.618 198.443Z" fill="#2979E1"/>
<path d="M58.5329 171.952C60.7957 175.443 63.097 179.711 61.4642 183.536C61.3035 183.909 61.1106 184.262 60.8857 184.597C59.0793 187.264 55.3766 188.428 52.0982 188.004C50.549 187.798 49.0705 187.322 47.6499 186.699V186.692C45.6828 185.831 43.8122 184.667 41.993 183.523C28.3265 174.922 14.66 166.315 1 157.72L12.693 152.417L14.4415 145.211L26.5202 143.456L30.7757 138.628C42.038 147.788 50.6262 159.777 58.5329 171.952Z" fill="#85B71B"/>
<path d="M244.065 257.159C243.808 257.474 243.545 257.795 243.294 258.11C241.025 260.919 238.91 263.78 236.904 266.711C236.596 267.167 236.281 267.624 235.979 268.087C235.002 269.54 234.057 271.012 233.137 272.503C232.694 273.223 232.25 273.943 231.82 274.669C231.357 275.434 230.907 276.212 230.457 276.983C227.043 282.91 223.951 289.081 220.994 295.529" stroke="#2251B4" stroke-width="1.419" stroke-miterlimit="10" stroke-linecap="round" stroke-linejoin="round"/>
<path d="M284.454 271.044C284.634 270.362 284.788 269.649 284.891 268.903C285.682 263.452 284.281 256.503 277.505 251.142C264.938 241.204 253.02 247.015 247.987 252.601C246.637 254.099 245.332 255.616 244.072 257.152" stroke="#2251B4" stroke-width="1.419" stroke-miterlimit="10" stroke-linecap="round" stroke-linejoin="round"/>
<path d="M226.792 302.208C227.159 305.782 229.499 308.803 232.25 311.188C232.642 311.523 233.047 311.857 233.452 312.172C233.581 312.268 233.703 312.371 233.838 312.455C236.287 314.3 238.968 315.842 241.79 317.044" stroke="#2251B4" stroke-width="1.419" stroke-miterlimit="10" stroke-linecap="round" stroke-linejoin="round"/>
<path d="M249.253 276.27C249.767 275.544 250.262 274.843 250.744 274.162C255.765 267.097 266.14 260.521 280.166 264.166C282.918 264.886 284.043 266.043 284.544 268.839" stroke="#2251B4" stroke-width="1.419" stroke-miterlimit="10" stroke-linecap="round" stroke-linejoin="round"/>
<path d="M241.79 317.019C234.481 313.213 235.947 295.851 244.065 283.765" stroke="#2251B4" stroke-width="1.419" stroke-miterlimit="10" stroke-linecap="round" stroke-linejoin="round"/>
<path d="M289.661 277.048C289.14 276.533 288.543 276.064 287.868 275.614C280.07 270.484 273.057 271.616 269.065 273.178C264.61 274.914 259.082 280.294 257.237 284.71C256.253 287.069 255.758 289.75 256.485 292.206C256.999 293.935 258.22 295.503 259.783 296.32C260.445 296.667 261.165 296.885 261.917 296.924C264.154 297.046 266.339 295.709 268.538 296.12C269.007 296.21 269.444 296.365 269.862 296.577C271.739 297.515 273.166 299.463 275.146 300.331C277.396 301.321 280.449 301.212 282.506 299.868C284.563 298.518 286.402 295.87 287.765 293.825C289.661 290.991 290.992 288.747 291.853 285.449C292.734 282.107 291.988 279.291 289.661 277.048Z" stroke="#2251B4" stroke-width="1.419" stroke-miterlimit="10" stroke-linecap="round" stroke-linejoin="round"/>
<path d="M265.131 280.249C262.939 282.621 260.753 285.186 260.117 288.355C259.789 289.988 259.969 291.942 261.306 292.932C262.039 293.478 262.996 293.626 263.909 293.62C266.853 293.594 269.978 292.161 272.594 293.498C274.509 294.481 275.577 296.738 277.576 297.541C279.202 298.197 281.111 297.708 282.538 296.712C283.978 295.709 285.026 294.263 286.022 292.823C287.276 291.004 288.485 289.133 289.166 287.044C289.854 284.948 289.963 282.582 289.031 280.596C287.874 278.108 285.303 276.572 282.699 275.736C279.504 274.701 271.398 273.474 265.131 280.249Z" stroke="#2251B4" stroke-width="1.419" stroke-miterlimit="10" stroke-linecap="round" stroke-linejoin="round"/>
<path d="M289.732 276.971C288.26 274.779 286.383 272.869 284.223 271.365C284.114 271.282 284.004 271.205 283.895 271.134C282.944 270.497 281.947 269.932 280.88 269.514C278.103 268.428 275.024 268.389 272.073 268.775C265.915 269.585 260.014 272.246 255.328 276.321C254.601 276.951 253.901 277.626 253.258 278.353C253.194 278.423 253.129 278.488 253.071 278.552C251.297 280.558 249.909 282.885 249.439 285.456C249.369 285.822 249.324 286.202 249.292 286.581C249.208 287.725 249.324 288.921 249.825 289.956C250.32 290.984 251.169 291.801 252.069 292.501C254.338 294.282 256.999 295.49 259.705 296.461" stroke="#2251B4" stroke-width="1.419" stroke-miterlimit="10" stroke-linecap="round" stroke-linejoin="round"/>
<path d="M252.904 278.648C252.962 278.623 253.02 278.591 253.078 278.559C253.084 278.552 253.091 278.552 253.097 278.546" stroke="#2251B4" stroke-width="1.419" stroke-miterlimit="10" stroke-linecap="round" stroke-linejoin="round"/>
<path d="M253.11 278.218C251.786 277.671 250.455 277.125 249.137 276.54C244.406 274.457 239.823 271.995 236.281 268.28" stroke="#2251B4" stroke-width="1.419" stroke-miterlimit="10" stroke-linecap="round" stroke-linejoin="round"/>
<path d="M249.163 285.449C247.466 284.903 245.807 284.254 244.194 283.495C239.578 281.335 235.368 278.333 231.826 274.669" stroke="#2251B4" stroke-width="1.419" stroke-miterlimit="10" stroke-linecap="round" stroke-linejoin="round"/>
<path d="M246.296 313.58C248.218 312.828 249.973 314.145 249.388 316.434" stroke="#2251B4" stroke-width="1.419" stroke-miterlimit="10" stroke-linecap="round" stroke-linejoin="round"/>
<path d="M249.587 316.819C251.972 318.169 261.518 320.606 266.172 313.554C271.816 304.979 272.189 299.778 270.042 296.757C269.997 296.699 269.939 296.654 269.855 296.609C267.374 295.4 246.424 300.28 245.132 306.438C244.515 309.382 245.3 311.735 246.193 313.625C246.193 313.637 246.199 313.637 246.206 313.65" stroke="#2251B4" stroke-width="1.419" stroke-miterlimit="10" stroke-linecap="round" stroke-linejoin="round"/>
<path d="M270.299 280.558C270.8 279.96 271.411 279.458 272.093 279.079C272.427 278.893 272.787 278.732 273.173 278.719C273.552 278.706 273.963 278.854 274.169 279.176C274.375 279.497 274.342 279.908 274.304 280.288" stroke="#2251B4" stroke-width="1.419" stroke-miterlimit="10" stroke-linecap="round" stroke-linejoin="round"/>
<path d="M282.59 281.052C282.95 280.757 283.323 280.468 283.76 280.307C284.197 280.146 284.718 280.146 285.097 280.41C285.489 280.686 285.656 281.194 285.637 281.663C285.618 282.139 285.438 282.589 285.245 283.02" stroke="#2251B4" stroke-width="1.419" stroke-miterlimit="10" stroke-linecap="round" stroke-linejoin="round"/>
<path d="M232.829 272.31C232.34 272.612 231.845 272.94 231.344 273.294C229.628 274.515 227.86 276.051 226.105 277.851C226.008 277.948 225.912 278.05 225.816 278.153C217.433 286.838 209.166 301.212 206.524 314.254C206.434 314.659 206.364 315.064 206.293 315.463C205.444 320.271 205.901 326.359 209.07 330.074C212.014 333.526 216.893 335.037 221.341 334.163C225.796 333.289 229.351 331.482 233.131 328.975C233.382 328.808 233.639 328.634 233.902 328.454C238.486 325.292 244.85 320.014 249.002 316.826" stroke="#2251B4" stroke-width="1.419" stroke-miterlimit="10" stroke-linecap="round" stroke-linejoin="round"/>
<path d="M230.296 276.887C225.475 282.878 214.759 300.408 210.96 312.39C210.741 313.078 210.542 313.907 210.381 314.827C209.758 318.349 209.649 323.132 210.857 325.607C214.592 333.237 224.871 328.988 233.639 323.408C236.763 321.416 239.688 319.256 242.066 317.411C243.725 316.112 245.107 314.974 246.097 314.145" stroke="#2251B4" stroke-width="1.419" stroke-miterlimit="10" stroke-linecap="round" stroke-linejoin="round"/>
<path d="M159.129 222.986C160.106 219.869 163.802 215.388 169.092 213.935C171.593 213.247 174.222 213.813 176.691 214.61C178.851 215.311 181.923 216.462 185.562 217.901C192.035 220.447 200.276 223.886 208.324 227.274C219.079 231.799 229.467 236.228 234.783 238.318C236.544 239.005 238.723 240.079 240.613 242.13C241.963 243.589 243.165 245.543 243.975 248.217C245.679 253.842 244.419 256.555 244.078 257.146C244.078 257.152 244.072 257.159 244.065 257.159C244.02 257.23 243.995 257.268 243.995 257.268" stroke="#2251B4" stroke-width="1.419" stroke-miterlimit="10" stroke-linecap="round" stroke-linejoin="round"/>
<path d="M139.291 251.38C137.363 249.747 136.958 245.761 137.504 241.371C138.018 237.27 139.355 232.828 141.059 229.614C143.739 224.542 148.419 220.453 152.565 220.981C154.732 221.707 156.898 222.44 159.064 223.166C163.789 224.76 168.52 226.355 173.239 227.949C174.557 228.392 175.868 228.842 177.186 229.286C180.451 230.398 183.717 231.504 186.976 232.616C190.37 233.773 193.764 234.936 197.158 236.1C197.621 236.254 198.18 236.46 198.83 236.698C199.537 236.955 200.347 237.263 201.227 237.598C208.427 240.342 220.641 245.312 224.556 247.221C226.812 248.326 228.56 249.696 229.885 251.226C230.148 251.528 230.399 251.836 230.624 252.151C234.005 256.76 234.063 262.565 233.182 267.148C232.7 269.668 231.929 271.822 231.273 273.184" stroke="#2251B4" stroke-width="1.419" stroke-miterlimit="10" stroke-linecap="round" stroke-linejoin="round"/>
<path d="M139.709 251.753C140.474 252.164 141.715 252.736 143.341 253.424C145.411 254.311 148.098 255.404 151.209 256.612C154.809 258.027 158.974 259.614 163.391 261.26C171.51 264.288 180.509 267.547 188.493 270.343C199.055 274.039 207.829 276.945 210.426 277.466C210.947 277.568 211.59 277.761 212.329 277.986C215.865 279.066 221.528 280.95 225.719 278.051" stroke="#2251B4" stroke-width="1.419" stroke-miterlimit="10" stroke-linecap="round" stroke-linejoin="round"/>
<path d="M233.902 328.461C233.979 329.47 234.069 330.525 234.185 331.604H234.192C234.513 334.574 235.053 337.711 236.197 340.643" stroke="#2251B4" stroke-width="1.419" stroke-miterlimit="10" stroke-linecap="round" stroke-linejoin="round"/>
<path d="M203.998 314.479C203.522 325.298 205.862 337.525 210.42 347.341C211.68 350.053 213.467 352.708 216.244 353.82C222.601 356.366 242.413 354.071 255.038 353.589C264.488 353.223 286.447 351.346 288.934 344.776" stroke="#2251B4" stroke-width="1.419" stroke-miterlimit="10" stroke-linecap="round" stroke-linejoin="round"/>
<path d="M234.256 331.592C249.742 329.078 265.42 327.747 281.105 327.619C283.702 327.6 286.691 327.722 288.305 329.805" stroke="#2251B4" stroke-width="1.419" stroke-miterlimit="10" stroke-linecap="round" stroke-linejoin="round"/>
<path d="M305.796 328.95C306.169 329.194 306.535 329.432 306.908 329.676C308.206 330.518 309.505 331.367 310.803 332.209C311.511 332.665 312.301 333.141 313.124 333.006C313.928 332.871 314.403 332.17 313.51 330.19C313.259 329.637 312.899 328.988 312.411 328.217C311.125 326.211 309.004 325.62 306.625 325.8C304.247 325.98 300.82 328.358 299.065 329.972" stroke="#2251B4" stroke-width="1.419" stroke-miterlimit="10" stroke-linecap="round" stroke-linejoin="round"/>
<path d="M294.386 344.48C293.209 344.577 290.362 344.48 288.922 344.551C288.8 344.551 288.69 344.564 288.594 344.564C288.189 344.596 287.771 344.628 287.373 344.525C286.531 344.307 285.92 343.548 285.592 342.751C282.693 335.706 287.141 330.762 288.247 330.158C288.247 330.158 288.292 330.145 288.375 330.139C289.32 329.978 294.958 329.085 294.868 330.158" stroke="#2251B4" stroke-width="1.419" stroke-miterlimit="10" stroke-linecap="round" stroke-linejoin="round"/>
<path d="M296.674 347.585C295.704 346.737 294.99 345.637 294.534 344.422C294.36 343.979 294.225 343.516 294.129 343.047C294.032 342.61 293.974 342.172 293.936 341.729C293.814 340.411 293.929 339.074 294.174 337.776C294.386 336.625 294.707 335.474 295.318 334.478C295.646 333.938 296.134 333.411 296.758 333.391C297.246 333.385 297.696 333.713 297.941 334.131C298.191 334.549 298.268 335.05 298.294 335.538C298.365 336.741 298.133 337.936 298.121 339.132V339.331C298.133 340.604 299.361 344.088 300.139 345.547" stroke="#2251B4" stroke-width="1.419" stroke-miterlimit="10" stroke-linecap="round" stroke-linejoin="round"/>
<path d="M298.153 339.138C298.41 336.869 299.162 334.658 300.345 332.717C300.641 332.234 301.058 331.714 301.618 331.727C302.048 331.733 302.415 332.061 302.601 332.453C302.781 332.839 302.8 333.282 302.807 333.713C302.833 334.748 302.807 335.776 302.807 336.805C302.807 337.499 302.82 338.193 302.865 338.888C302.98 340.61 303.34 342.352 304.247 343.825" stroke="#2251B4" stroke-width="1.419" stroke-miterlimit="10" stroke-linecap="round" stroke-linejoin="round"/>
<path d="M308.515 341.658C308.605 341.697 312.867 341.51 316.158 341.465C318.151 341.446 319.784 341.478 319.912 341.658C320.202 342.076 313.356 345.084 310.366 345.849C307.384 346.614 304.317 347.547 300.962 347.945C300.486 348.003 299.998 348.048 299.509 348.08C298.834 348.125 297.368 347.945 296.681 347.591C296.681 347.591 296.674 347.592 296.674 347.585C296.623 347.559 296.571 347.534 296.526 347.502" stroke="#2251B4" stroke-width="1.419" stroke-miterlimit="10" stroke-linecap="round" stroke-linejoin="round"/>
<path d="M302.768 336.979C302.781 336.921 302.794 336.856 302.807 336.805C303.09 335.596 303.495 334.362 304.08 333.263C304.33 332.794 304.652 332.292 305.16 332.138C305.847 331.939 306.574 332.485 306.844 333.147C307.114 333.809 307.056 334.561 307.043 335.275C307.011 336.876 307.287 339.576 307.911 341.633C308.219 342.655 308.612 343.51 309.1 343.998" stroke="#2251B4" stroke-width="1.419" stroke-miterlimit="10" stroke-linecap="round" stroke-linejoin="round"/>
<path d="M308.219 341.562C310.173 341.53 313.06 341.485 316.152 341.44C321.641 341.363 327.78 341.292 330.577 341.266H330.615" stroke="#2251B4" stroke-width="1.419" stroke-miterlimit="10" stroke-linecap="round" stroke-linejoin="round"/>
<path d="M313.773 330.068C317.907 329.927 326.482 329.914 330.622 329.772" stroke="#2251B4" stroke-width="1.419" stroke-miterlimit="10" stroke-linecap="round" stroke-linejoin="round"/>
<path d="M306.767 329.888C305.031 329.894 303.289 329.933 301.56 329.991C300.73 330.017 299.901 330.055 299.065 330.1C297.677 330.164 296.276 330.248 294.887 330.357C293.486 330.467 292.078 330.589 290.677 330.73C290.278 330.769 289.854 330.82 289.52 331.045C289.102 331.328 288.89 331.823 288.735 332.299C288.047 334.381 287.758 339.511 289.314 341.26C289.989 342.018 291.943 341.555 293.601 341.748" stroke="#2251B4" stroke-width="1.419" stroke-miterlimit="10" stroke-linecap="round" stroke-linejoin="round"/>
<path d="M353.802 316.427C351.758 316.324 349.836 316.434 348.042 316.723C339.454 318.092 333.727 323.537 331.13 329.445C330.133 331.727 329.6 334.079 329.548 336.291C329.51 337.93 329.876 339.614 330.583 341.26C333.116 347.199 340.091 352.631 348.73 353.621C350.44 353.814 352.221 353.833 354.046 353.647C354.091 353.64 354.143 353.634 354.194 353.634" stroke="#2251B4" stroke-width="1.419" stroke-miterlimit="10" stroke-linecap="round" stroke-linejoin="round"/>
<path d="M353.808 316.434C353.886 316.369 353.963 316.331 354.046 316.331C355.313 316.331 356.335 324.688 356.335 334.986C356.335 345.284 355.313 353.634 354.046 353.634C352.786 353.634 351.758 345.284 351.758 334.986C351.758 325.343 352.658 317.404 353.808 316.434Z" stroke="#2251B4" stroke-width="1.419" stroke-miterlimit="10" stroke-linecap="round" stroke-linejoin="round"/>
<path d="M348.062 316.819C348.062 316.819 345.722 322.958 345.529 335.519C345.349 347.116 348.582 353.332 348.73 353.621C348.743 353.628 348.743 353.634 348.743 353.634" stroke="#2251B4" stroke-width="1.419" stroke-miterlimit="10" stroke-linecap="round" stroke-linejoin="round"/>
<path d="M243.217 258.046C243.217 254.735 235.612 256.689 235.349 262.726C235.284 264.178 235.638 265.747 236.827 266.653" stroke="#2251B4" stroke-width="1.419" stroke-miterlimit="10" stroke-linecap="round" stroke-linejoin="round"/>
<path d="M225.918 277.665C223.289 275.91 225.25 268.852 227.699 266.518C228.541 265.728 229.602 265.065 230.759 265.078C231.909 265.091 233.099 265.985 233.105 267.142" stroke="#2251B4" stroke-width="1.419" stroke-miterlimit="10" stroke-linecap="round" stroke-linejoin="round"/>
<path d="M98.0859 271.88C108.384 275.383 118.958 278.173 129.7 280.223C132.741 280.802 135.801 281.323 138.86 281.779C158.177 284.672 177.867 285.154 197.165 282.975" stroke="#2251B4" stroke-width="1.419" stroke-miterlimit="10" stroke-linecap="round" stroke-linejoin="round"/>
<path d="M86.425 288.246C86.4379 288.259 86.4636 288.265 86.4765 288.272C102.149 296.988 120.386 299.566 138.153 301.989C145.424 302.979 152.726 303.969 160.041 304.67C171.284 305.756 182.56 306.168 193.758 304.856" stroke="#2251B4" stroke-width="1.419" stroke-miterlimit="10" stroke-linecap="round" stroke-linejoin="round"/>
<path d="M160.029 304.805C174.454 311.233 188.358 314.132 203.998 314.158C204.654 314.165 205.329 314.158 205.997 314.145" stroke="#2251B4" stroke-width="1.419" stroke-miterlimit="10" stroke-linecap="round" stroke-linejoin="round"/>
<path d="M86.5217 288.188C85.8917 287.719 85.5832 286.992 85.4418 286.208C85.371 285.822 85.3453 285.424 85.3453 285.044C85.3196 281.67 86.6631 278.308 89.003 275.884C90.9636 273.853 93.6121 272.49 96.3955 272.053C96.9355 271.963 97.4755 271.912 98.0219 271.899" stroke="#2251B4" stroke-width="1.419" stroke-miterlimit="10" stroke-linecap="round" stroke-linejoin="round"/>
<path d="M84.638 286.362C74.4492 281.94 66.4975 272.683 63.6562 261.948C63.5598 261.562 63.4633 261.131 63.624 260.771C63.8683 260.238 64.5819 260.064 65.1411 260.244C65.7004 260.418 66.1375 260.855 66.5489 261.273C67.6031 262.346 68.6574 263.413 69.7052 264.487C70.6051 265.406 71.5115 266.325 72.4115 267.245" stroke="#2251B4" stroke-width="1.419" stroke-miterlimit="10" stroke-linecap="round" stroke-linejoin="round"/>
<path d="M69.7375 264.448C68.9982 263.118 68.259 261.768 67.8283 260.309C67.5197 259.274 67.3847 258.174 67.5133 257.114C67.5647 256.67 67.6611 256.24 67.8154 255.822C67.9183 255.539 68.0597 255.25 68.3168 255.095C68.8696 254.761 69.551 255.217 70.0074 255.674C70.2324 255.899 70.451 256.124 70.6567 256.355C73.3758 259.357 75.3365 263.208 78.917 265.053" stroke="#2251B4" stroke-width="1.419" stroke-miterlimit="10" stroke-linecap="round" stroke-linejoin="round"/>
<path d="M70.7467 256.265C70.6053 255.783 71.0874 255.301 71.5888 255.256C72.0838 255.217 72.5595 255.475 72.9709 255.751C73.5944 256.169 74.173 256.651 74.7258 257.165C76.9307 259.216 78.7242 261.794 81.4048 263.156" stroke="#2251B4" stroke-width="1.419" stroke-miterlimit="10" stroke-linecap="round" stroke-linejoin="round"/>
<path d="M75.0601 256.812C74.9829 256.555 75.2336 256.297 75.5036 256.265C75.7672 256.24 76.0243 256.368 76.2557 256.503C79.1356 258.187 81.0512 261.35 84.156 262.578" stroke="#2251B4" stroke-width="1.419" stroke-miterlimit="10" stroke-linecap="round" stroke-linejoin="round"/>
<path d="M77.9207 271.558C80.3827 269.977 83.1083 268.82 85.956 268.158C85.3517 266.326 84.9275 264.429 84.7025 262.514C84.6896 262.404 84.6703 262.301 84.6575 262.192C84.5868 261.511 84.5418 260.804 84.7989 260.174C85.056 259.544 85.6988 259.017 86.3738 259.113C86.8495 259.177 87.2288 259.531 87.5695 259.865C91.1114 263.33 94.0877 267.373 96.3505 271.777" stroke="#2251B4" stroke-width="1.419" stroke-miterlimit="10" stroke-linecap="round" stroke-linejoin="round"/>
<path d="M66.4782 257.024C63.7719 255.243 61.1942 253.25 58.7965 251.071C57.1508 249.573 55.5759 247.979 54.4445 246.07C51.0633 240.349 52.3039 233.053 54.3931 226.747C55.5116 223.391 56.8359 220.106 58.3658 216.911C61.0978 211.19 64.4791 205.778 68.426 200.822C69.0945 199.979 69.7952 199.137 70.6245 198.462C70.9523 198.192 71.3059 197.948 71.6787 197.742C72.9965 197.016 74.6486 196.92 75.7157 197.511" stroke="#2251B4" stroke-width="1.419" stroke-miterlimit="10" stroke-linecap="round" stroke-linejoin="round"/>
<path d="M78.9363 240.657C76.5 239.436 76.2428 236.061 76.7507 233.381C77.6571 228.611 79.8877 224.201 82.3433 220.016C82.6325 219.521 82.9347 219.02 83.2239 218.525C84.0853 217.053 84.9081 215.562 85.4738 213.961C86.2452 211.814 87.293 210.85 86.5281 208.709" stroke="#2251B4" stroke-width="1.419" stroke-miterlimit="10" stroke-linecap="round" stroke-linejoin="round"/>
<path d="M76.7764 233.278C84.8695 239.173 93.3613 244.521 102.174 249.265C104.103 250.3 106.128 251.341 108.32 251.451C111.36 251.605 114.17 249.972 117.107 249.201C121.131 248.134 127.084 247.047 131.462 247.632" stroke="#2251B4" stroke-width="1.419" stroke-miterlimit="10" stroke-linecap="round" stroke-linejoin="round"/>
<path d="M83.4167 218.628C92.6606 225.448 102.264 231.761 112.19 237.54C114.002 238.6 115.899 239.661 117.988 239.873C119.421 240.021 120.855 239.757 122.282 239.59C127.245 239.012 132.336 239.603 137.028 241.3" stroke="#2251B4" stroke-width="1.419" stroke-miterlimit="10" stroke-linecap="round" stroke-linejoin="round"/>
<path d="M55.8972 132.129C61.9076 153.959 68.0788 171.374 76.7955 191.147C77.2969 192.278 77.8819 193.371 78.5375 194.406C80.2989 197.209 82.6002 199.671 85.1908 201.754C86.3736 202.711 88.0707 203.547 89.922 203.984C94.7303 205.103 100.58 203.463 101.139 193.898C102.084 177.911 95.791 137.195 93.5604 132.862C91.0148 134.289 85.2744 136.307 85.2744 136.307C85.2744 136.307 78.9682 133.788 75.7348 132.489C75.2591 132.296 66.9731 136.539 66.1374 136.269C63.0262 135.285 58.9892 133.235 55.9744 131.962C55.9679 131.956 55.9615 131.956 55.9551 131.949" stroke="#2251B4" stroke-width="1.419" stroke-miterlimit="10" stroke-linecap="round" stroke-linejoin="round"/>
<path d="M82.8896 184.217C85.7052 181.633 90.7771 181.003 96.6268 183.639" stroke="#2251B4" stroke-width="1.419" stroke-miterlimit="10" stroke-linecap="round" stroke-linejoin="round"/>
<path d="M89.9092 204.306C89.1957 205.328 88.4179 206.311 87.5822 207.23C87.0037 207.867 86.3416 208.503 85.4994 208.658C85.3645 208.683 85.2359 208.696 85.1009 208.696C84.6124 208.696 84.1302 208.548 83.6674 208.388C80.0162 207.095 76.9756 204.177 75.5357 200.577C75.1371 199.574 74.9314 198.25 75.7671 197.575L75.7799 197.562L78.5312 194.406L78.6341 194.29" stroke="#2251B4" stroke-width="1.419" stroke-miterlimit="10" stroke-linecap="round" stroke-linejoin="round"/>
<path d="M61.2649 184.802C62.5698 184.789 62.9812 185.304 63.9198 186.216C64.8519 187.129 65.5204 188.273 66.1632 189.405C67.8024 192.343 69.2874 195.364 70.618 198.443" stroke="#2251B4" stroke-width="1.419" stroke-miterlimit="10" stroke-linecap="round" stroke-linejoin="round"/>
<path d="M47.5664 186.885C46.6343 187.869 46.2293 189.958 46.3771 191.301C46.525 192.645 47.065 193.911 47.5856 195.158C50.6519 202.416 53.7311 209.686 57.5816 216.545" stroke="#2251B4" stroke-width="1.419" stroke-miterlimit="10" stroke-linecap="round" stroke-linejoin="round"/>
<path d="M60.8857 184.59C61.1107 184.256 61.3036 183.909 61.4643 183.529C63.0971 179.705 60.7957 175.436 58.533 171.946C50.6262 159.771 42.0381 147.788 30.7886 138.609L26.5331 143.436L14.4544 145.191L12.7059 152.397L1.01294 157.701C14.673 166.302 28.3459 174.903 42.0059 183.504C43.8251 184.648 45.6958 185.811 47.6628 186.673V186.679C49.0835 187.309 50.562 187.779 52.1112 187.984C55.3831 188.421 59.0794 187.258 60.8857 184.59Z" stroke="#2251B4" stroke-width="1.419" stroke-miterlimit="10" stroke-linecap="round" stroke-linejoin="round"/>
<path d="M44.8794 175.61C46.2422 173.508 48.7749 172.222 51.2755 172.351" stroke="#2251B4" stroke-width="1.419" stroke-miterlimit="10" stroke-linecap="round" stroke-linejoin="round"/>
<path d="M138.861 281.747C141.477 272.85 144.73 263.799 151.126 257.088" stroke="#2251B4" stroke-width="1.419" stroke-miterlimit="10" stroke-linecap="round" stroke-linejoin="round"/>
<path d="M129.842 279.478C132.374 269.559 136.816 261.299 143.341 253.424C143.36 253.398 143.386 253.366 143.405 253.34" stroke="#2251B4" stroke-width="1.419" stroke-miterlimit="10" stroke-linecap="round" stroke-linejoin="round"/>
<path d="M188.564 270.144C184.668 262.16 192.144 239.487 198.733 236.948" stroke="#2251B4" stroke-width="1.419" stroke-miterlimit="10" stroke-linecap="round" stroke-linejoin="round"/>
<path d="M163.455 261.401C163.436 261.356 163.417 261.311 163.391 261.266C159.611 253.205 164.111 234.769 173.22 227.987" stroke="#2251B4" stroke-width="1.419" stroke-miterlimit="10" stroke-linecap="round" stroke-linejoin="round"/>
<path d="M177.16 229.363C177.167 229.337 177.173 229.311 177.186 229.286C178.491 224.715 181.499 220.646 185.498 218.062" stroke="#2251B4" stroke-width="1.419" stroke-miterlimit="10" stroke-linecap="round" stroke-linejoin="round"/>
<path d="M201.324 237.347C201.896 233.374 204.486 229.742 208.054 227.917" stroke="#2251B4" stroke-width="1.419" stroke-miterlimit="10" stroke-linecap="round" stroke-linejoin="round"/>
<path d="M210.671 314.872C210.671 314.872 221.907 315.566 226.831 313.329" stroke="#2251B4" stroke-width="1.419" stroke-miterlimit="10" stroke-linecap="round" stroke-linejoin="round"/>
<path d="M218.687 308.482C221.431 310.083 224.343 311.15 226.985 311.58C228.772 311.87 230.444 311.876 231.864 311.561" stroke="#2251B4" stroke-width="1.419" stroke-miterlimit="10" stroke-linecap="round" stroke-linejoin="round"/>
<path d="M233.607 323.351C233.607 319.725 233.298 315.965 233.832 312.455C233.838 312.429 233.838 312.41 233.844 312.384" stroke="#2251B4" stroke-width="1.419" stroke-miterlimit="10" stroke-linecap="round" stroke-linejoin="round"/>
<path d="M212.412 277.723C211.538 262.526 225.269 249.381 229.653 251.425" stroke="#2251B4" stroke-width="1.419" stroke-miterlimit="10" stroke-linecap="round" stroke-linejoin="round"/>
<path d="M230.823 252.016C231.267 246.944 237.541 241.493 240.44 242.284" stroke="#2251B4" stroke-width="1.419" stroke-miterlimit="10" stroke-linecap="round" stroke-linejoin="round"/>
<path d="M269.598 287.551C268.801 289.229 267.747 290.393 267.233 290.148C266.725 289.904 266.95 288.349 267.747 286.671C268.538 284.993 269.598 283.83 270.106 284.074C270.627 284.318 270.395 285.874 269.598 287.551Z" fill="#2251B4"/>
<path d="M281.285 290.181C280.488 291.859 279.434 293.022 278.919 292.778C278.412 292.533 278.637 290.978 279.434 289.3C280.231 287.622 281.285 286.459 281.799 286.703C282.314 286.947 282.082 288.503 281.285 290.181Z" fill="#2251B4"/>
<path d="M280.655 276.006L272.909 283.02L276.56 285.501L269.547 292.514C269.547 292.514 271.302 292.366 273.346 293.388C274.921 294.173 274.22 294.263 274.22 294.263L281.671 285.353L278.746 282.724L285.026 277.318L280.655 276.006Z" fill="white"/>
<g opacity="0.55">
<g opacity="0.55">
<path opacity="0.55" d="M294.681 215.227C294.681 217.651 292.721 219.611 290.297 219.611C287.874 219.611 285.913 217.651 285.913 215.227C285.913 212.804 287.874 210.843 290.297 210.843C292.721 210.843 294.681 212.81 294.681 215.227Z" fill="white"/>
<path opacity="0.55" d="M250.551 168.185C250.551 169.799 249.247 171.104 247.633 171.104C246.02 171.104 244.715 169.799 244.715 168.185C244.715 166.572 246.02 165.267 247.633 165.267C249.247 165.273 250.551 166.578 250.551 168.185Z" fill="white"/>
<path opacity="0.55" d="M286.794 149.479C286.794 150.771 285.746 151.819 284.454 151.819C283.162 151.819 282.114 150.771 282.114 149.479C282.114 148.187 283.162 147.139 284.454 147.139C285.746 147.145 286.794 148.193 286.794 149.479Z" fill="white"/>
<path opacity="0.55" d="M259.326 91.9139C259.326 92.7239 258.67 93.3731 257.867 93.3731C257.063 93.3731 256.407 92.7175 256.407 91.9139C256.407 91.104 257.063 90.4547 257.867 90.4547C258.67 90.4547 259.326 91.1104 259.326 91.9139Z" fill="white"/>
<path opacity="0.55" d="M280.951 71.4592C280.951 72.2692 280.295 72.9184 279.491 72.9184C278.688 72.9184 278.032 72.2627 278.032 71.4592C278.032 70.6557 278.688 70 279.491 70C280.295 70 280.951 70.6557 280.951 71.4592Z" fill="white"/>
<path opacity="0.55" d="M266.924 188.929C266.924 189.739 266.269 190.388 265.465 190.388C264.662 190.388 264.006 189.733 264.006 188.929C264.006 188.119 264.662 187.47 265.465 187.47C266.269 187.47 266.924 188.126 266.924 188.929Z" fill="white"/>
<path opacity="0.55" d="M252.313 233.053C252.313 234.666 251.001 235.978 249.388 235.978C247.774 235.978 246.469 234.666 246.469 233.053C246.469 231.439 247.774 230.128 249.388 230.128C251.001 230.128 252.313 231.439 252.313 233.053Z" fill="white"/>
</g>
</g>
<path d="M278.508 339.723C262.142 343.593 243.39 346.164 226.658 347.855C224.009 348.119 214.823 348.003 214.09 349.751C212.47 353.647 220.911 353.994 223.148 353.988C224.903 353.988 226.658 353.988 228.406 353.988C245.705 354.007 262.958 354.033 279.691 349.604C284.66 348.286 288.581 346.087 287.289 345.515C284.66 344.345 284.017 342.912 283.779 339.524C283.76 339.19 283.284 339.074 282.628 339.074C281.291 339.081 279.17 339.569 278.508 339.723Z" fill="url(#paint1_linear)"/>
<path d="M87.1772 281.04C85.7244 283.572 85.6215 287.481 87.5693 288.246C93.2197 290.476 103.267 294.526 109.194 295.844C121.163 298.499 150.579 302.915 162.767 304.027C178.478 305.461 179.911 304.998 194.304 304.034C159.264 302.279 130.099 298.165 98.4845 285.327C96.8003 284.646 90.5199 280.654 88.0643 280.654C87.64 280.654 87.3314 280.77 87.1772 281.04Z" fill="url(#paint2_linear)"/>
<path d="M187.715 309.298C180.541 308.784 172.654 307.582 165.679 306.168C169.774 308.701 181.139 311.073 183.331 311.542C189.695 312.898 198.72 313.149 205.219 313.374C206.023 313.4 206.981 307.138 207.945 305.776C206.994 307.132 201.137 310.256 187.715 309.298Z" fill="url(#paint3_linear)"/>
<path d="M226.722 300.331C226.94 301.803 227.294 303.256 227.892 304.619C229.872 309.112 234.211 312.03 238.338 314.698L238.344 314.544C235.291 309.388 235.329 303.352 236.981 297.599C232.809 297.393 229.872 294.423 227.101 291.293C226.407 294.243 226.278 297.329 226.722 300.331Z" fill="url(#paint4_linear)"/>
<path d="M211.789 312.943C211.718 313.11 211.654 313.297 211.725 313.464C211.828 313.702 212.136 313.747 212.393 313.753C216.63 313.907 220.885 313.509 225.018 312.577C223.72 312.018 222.415 311.465 221.11 310.905C218.597 309.832 216.218 308.649 214.662 306.322C213.197 307.402 212.49 311.22 211.789 312.943Z" fill="url(#paint5_linear)"/>
<path d="M173.406 229.099C172.75 229.292 172.242 229.8 171.779 230.301C171.06 231.079 167.878 234.068 168.27 235.251C168.7 236.569 173.457 237.707 174.627 238.183C179.648 240.233 184.694 242.226 189.759 244.174C190.486 244.45 191.405 244.694 191.951 244.142C192.228 243.859 192.318 243.454 192.408 243.068C193.012 240.561 194.902 238.568 197.242 236.62C189.451 234.088 182.528 231.195 175.501 229.254C175.039 229.125 174.55 229.009 174.074 229.009C173.849 229.009 173.624 229.035 173.406 229.099Z" fill="url(#paint6_linear)"/>
<path d="M184.771 218.968C184.18 219.161 183.723 219.663 183.312 220.164C182.663 220.942 179.802 223.918 180.156 225.101C180.548 226.412 184.823 227.55 185.87 228.019C190.389 230.057 194.921 232.05 199.479 233.985C200.128 234.261 200.957 234.499 201.452 233.953C201.703 233.676 201.78 233.265 201.864 232.886C202.404 230.385 205.078 229.408 207.18 227.467C200.752 225.127 193.346 221.816 186.655 219.123C186.269 218.968 185.851 218.866 185.44 218.866C185.208 218.866 184.983 218.898 184.771 218.968Z" fill="url(#paint7_linear)"/>
<path d="M275.455 262.436C277.852 262.783 279.839 263.118 280.713 263.51C282.982 264.519 284.21 265.265 284.608 267.013C284.898 264.384 284.383 260.489 282.468 257.082C280.546 253.675 277.782 251.245 274.31 249.438C272.446 248.461 270.428 247.748 268.409 247.227C270.755 249.091 276.624 254.935 275.455 262.436Z" fill="url(#paint8_linear)"/>
<path d="M69.7823 199.851C66.0475 204.273 63.3605 209.461 60.6992 214.597C57.1894 221.392 52.9403 231.671 53.5188 239.295C54.1038 247.034 58.4879 249.959 66.6711 255.365C52.1111 241.879 54.8559 233.014 60.2492 219.708C61.8049 215.87 70.2259 199.6 74.3207 198.038C74.025 197.948 73.7164 197.903 73.4143 197.903C72.0515 197.916 70.6951 198.777 69.7823 199.851Z" fill="url(#paint9_linear)"/>
<path d="M47.4376 188.897C46.6084 191.905 48.1319 194.708 49.3854 197.569C50.8253 200.854 55.8844 211.884 57.4721 215.099C57.8321 215.838 59.1306 213.44 58.7385 212.855C58.2435 212.109 54.9587 205.874 54.393 204.685C52.9081 201.548 51.616 198.308 50.761 194.94C50.2468 192.902 49.9061 190.678 50.7353 188.743C50.1375 188.518 49.0511 188.068 48.5047 187.727C48.3376 187.618 48.1897 187.579 48.074 187.579C47.4955 187.573 47.4955 188.666 47.4376 188.897Z" fill="url(#paint10_linear)"/>
<path d="M57.5945 135.138C60.6608 145.86 63.7592 156.582 67.6098 167.054C69.7054 172.743 72.1095 178.297 74.4687 183.877C76.6222 188.968 78.9106 194.059 82.5683 198.276C84.214 200.172 86.1746 201.882 88.5466 202.789C90.8479 203.676 93.3292 203.541 95.6048 202.641C96.5241 202.281 96.1255 200.77 95.1934 201.136C93.2199 201.914 91.1693 202.088 89.1573 201.355C87.126 200.616 85.4353 199.124 84.0083 197.543C80.3891 193.532 78.1392 188.537 76.0501 183.613C73.7616 178.213 71.4282 172.846 69.384 167.343C67.4362 162.098 65.6684 156.794 64.0164 151.452C62.2936 145.898 60.6994 140.306 59.1052 134.713C58.8223 133.762 57.3181 134.173 57.5945 135.138Z" fill="#A3DF21"/>
<path d="M2.11225 158.125C11.009 163.608 19.9121 169.098 28.8088 174.581C33.2572 177.326 37.7055 180.065 42.1603 182.81C45.773 185.034 49.6942 187.791 54.1619 187.309C57.961 186.898 60.8987 184.397 61.4322 180.527C61.5672 179.55 60.0694 179.126 59.9344 180.116C59.703 181.775 59.0666 183.317 57.7167 184.378C56.6367 185.22 55.2547 185.67 53.8983 185.779C49.5271 186.139 45.6508 183.137 42.1282 180.965C33.7714 175.816 25.4211 170.667 17.0644 165.511L2.8965 156.781C2.04154 156.254 1.25729 157.598 2.11225 158.125Z" fill="#A3DF21"/>
<path d="M138.995 254.639C144.839 256.979 183.395 270.979 202.114 277.433C210.587 280.358 219.066 283.862 217.504 288.439C218.635 285.327 222.736 280.995 225.295 278.893C217.889 281.425 203.4 275.383 200.655 274.219C198.598 273.351 146.343 253.591 141.335 252.595C139.503 252.235 137.318 253.97 138.995 254.639Z" fill="#2251B4"/>
<path d="M77.6313 188.505C78.602 178.181 96.3311 177.011 99.8409 183.054C98.9346 168.847 93.9527 134.546 93.0206 134.546C92.5641 134.546 88.9515 137.246 86.5923 137.664C81.8225 138.512 77.5799 132.142 72.958 135.716C68.6703 139.027 65.5526 138.249 58.9315 134.546C56.3795 133.119 74.2757 178.67 77.6313 188.505Z" fill="#A3DF21"/>
<path d="M83.3139 193.172C84.0724 195.242 85.2166 197.209 86.888 198.636C88.5658 200.063 90.8156 200.899 92.9948 200.564C95.309 200.211 97.321 198.552 98.3496 196.444C99.3781 194.342 99.4809 191.854 98.9024 189.585C98.5681 188.286 98.0089 187.02 97.0832 186.056C95.5404 184.436 93.207 183.851 90.9828 183.632C84.7409 183.035 81.1861 187.374 83.3139 193.172Z" fill="#A3DF21"/>
<path d="M206.1 263.889C208.086 264.667 210.073 265.438 212.059 266.21C216.064 267.765 220.069 269.315 224.073 270.87C224.028 272.934 223.668 276.771 224.607 278.603C213.454 281.143 202.847 275.068 192.215 270.845C177.481 264.988 160.884 261.228 146.15 255.372C143.637 254.369 141.708 252.659 140.011 250.551C137.465 247.375 140.384 233.998 142.64 238.716C147.468 248.796 194.253 259.229 206.1 263.889Z" fill="#B2B2B2"/>
<defs>
<filter id="filter0_f" x="297" y="0" width="397" height="663" filterUnits="userSpaceOnUse" color-interpolation-filters="sRGB">
<feFlood flood-opacity="0" result="BackgroundImageFix"/>
<feBlend mode="normal" in="SourceGraphic" in2="BackgroundImageFix" result="shape"/>
<feGaussianBlur stdDeviation="25" result="effect1_foregroundBlur"/>
</filter>
<linearGradient id="paint0_linear" x1="347" y1="331.5" x2="644" y2="331.5" gradientUnits="userSpaceOnUse">
<stop stop-color="#45F3FE"/>
<stop offset="1" stop-color="#45F3FE" stop-opacity="0"/>
</linearGradient>
<linearGradient id="paint1_linear" x1="256.073" y1="357.665" x2="255.43" y2="346.415" gradientUnits="userSpaceOnUse">
<stop stop-color="#45F4FF"/>
<stop offset="1" stop-color="#45F4FF" stop-opacity="0.17"/>
</linearGradient>
<linearGradient id="paint2_linear" x1="86.0951" y1="292.794" x2="194.297" y2="292.794" gradientUnits="userSpaceOnUse">
<stop stop-color="#45F4FF"/>
<stop offset="1" stop-color="#45F4FF" stop-opacity="0"/>
</linearGradient>
<linearGradient id="paint3_linear" x1="165.682" y1="309.576" x2="207.956" y2="309.576" gradientUnits="userSpaceOnUse">
<stop stop-color="#45F4FF"/>
<stop offset="1" stop-color="#45F4FF" stop-opacity="0.2"/>
</linearGradient>
<linearGradient id="paint4_linear" x1="232.61" y1="318.774" x2="233.574" y2="301.739" gradientUnits="userSpaceOnUse">
<stop stop-color="#45F4FF"/>
<stop offset="1" stop-color="#45F4FF" stop-opacity="0.33"/>
</linearGradient>
<linearGradient id="paint5_linear" x1="211.695" y1="310.058" x2="225.018" y2="310.058" gradientUnits="userSpaceOnUse">
<stop stop-color="#45F4FF" stop-opacity="0.2"/>
<stop offset="1" stop-color="#45F4FF"/>
</linearGradient>
<linearGradient id="paint6_linear" x1="185.041" y1="233.278" x2="182.47" y2="240.67" gradientUnits="userSpaceOnUse">
<stop stop-color="#45F4FF"/>
<stop offset="0.847751" stop-color="#45F4FF" stop-opacity="0.19"/>
</linearGradient>
<linearGradient id="paint7_linear" x1="194.683" y1="224.278" x2="193.398" y2="228.457" gradientUnits="userSpaceOnUse">
<stop stop-color="#45F4FF"/>
<stop offset="1" stop-color="#45F4FF" stop-opacity="0.4"/>
</linearGradient>
<linearGradient id="paint8_linear" x1="268.411" y1="257.114" x2="284.688" y2="257.114" gradientUnits="userSpaceOnUse">
<stop stop-color="#45F4FF" stop-opacity="0.04"/>
<stop offset="1" stop-color="#45F4FF"/>
</linearGradient>
<linearGradient id="paint9_linear" x1="53.4704" y1="226.645" x2="74.3191" y2="226.645" gradientUnits="userSpaceOnUse">
<stop stop-color="#45F4FF"/>
<stop offset="1" stop-color="#45F4FF" stop-opacity="0"/>
</linearGradient>
<linearGradient id="paint10_linear" x1="47.1999" y1="201.406" x2="58.8074" y2="201.406" gradientUnits="userSpaceOnUse">
<stop stop-color="#45F4FF"/>
<stop offset="1" stop-color="#45F4FF" stop-opacity="0"/>
</linearGradient>
</defs>
</svg>
