<svg width="142" height="25" viewBox="0 0 142 25" fill="none" xmlns="http://www.w3.org/2000/svg">
<g clip-path="url(#clip0)">
<path d="M0 11.9792C0 6.33213 0 3.50861 1.7456 1.75431C3.4912 0 6.30071 0 11.9197 0H12.9562C18.5752 0 21.3847 0 23.1303 1.75431C24.8759 3.50861 24.8759 6.33213 24.8759 11.9792V13.0208C24.8759 18.6679 24.8759 21.4914 23.1303 23.2457C21.3847 25 18.5752 25 12.9562 25H11.9197C6.30071 25 3.4912 25 1.7456 23.2457C0 21.4914 0 18.6679 0 13.0208L0 11.9792Z" fill="#2787F5"/>
<path fill-rule="evenodd" clip-rule="evenodd" d="M6.73773 7.8125H4.92344C4.40507 7.8125 4.30139 8.05771 4.30139 8.32802C4.30139 8.81089 4.91648 11.2056 7.16533 14.3729C8.66457 16.5358 10.7769 17.7083 12.699 17.7083C13.8522 17.7083 13.9949 17.4479 13.9949 16.9994V15.3646C13.9949 14.8437 14.1042 14.7398 14.4693 14.7398C14.7384 14.7398 15.1997 14.875 16.2761 15.9179C17.5063 17.1539 17.7091 17.7083 18.401 17.7083H20.2153C20.7337 17.7083 20.9929 17.4479 20.8434 16.934C20.6797 16.4218 20.0924 15.6786 19.3131 14.7978C18.8902 14.2956 18.2559 13.7549 18.0637 13.4845C17.7946 13.1369 17.8715 12.9823 18.0637 12.6734C18.0637 12.6734 20.2741 9.54474 20.5048 8.4826C20.6201 8.0963 20.5048 7.8125 19.9561 7.8125H18.1418C17.6805 7.8125 17.4678 8.05771 17.3525 8.32802C17.3525 8.32802 16.4299 10.5876 15.1229 12.0554C14.7 12.4802 14.5078 12.6154 14.2771 12.6154C14.1618 12.6154 13.9949 12.4802 13.9949 12.094V8.4826C13.9949 8.01906 13.861 7.8125 13.4765 7.8125H10.6255C10.3372 7.8125 10.1638 8.0276 10.1638 8.23151C10.1638 8.67089 10.8173 8.77224 10.8847 10.0082V12.6927C10.8847 13.2812 10.7789 13.388 10.5483 13.388C9.93319 13.388 8.43706 11.1183 7.54972 8.5212C7.37585 8.01641 7.2014 7.8125 6.73773 7.8125Z" fill="white"/>
<path d="M42.4408 12.2807C43.4273 11.8181 44.063 11.047 44.063 9.85729C44.063 8.05073 42.4189 6.77292 40.0513 6.77292H34.5928V18.2292H40.2925C42.7477 18.2292 44.4576 16.8853 44.4576 15.0567C44.4576 13.6687 43.5588 12.6332 42.4408 12.2807ZM37.1138 8.86589H40.0513C40.9282 8.86589 41.542 9.39464 41.542 10.1217C41.542 10.8487 40.9282 11.3554 40.0513 11.3554H37.1138V8.86589ZM40.2925 16.1362H37.1138V13.3382H40.2925C41.279 13.3382 41.9366 13.911 41.9366 14.7482C41.9366 15.5854 41.279 16.1362 40.2925 16.1362Z" fill="black"/>
<path d="M53.8335 18.2292H57.1435L51.9041 12.2807L56.7051 6.77292H53.7019L49.8874 11.2232H49.2736V6.77292H46.7526V18.2292H49.2736V13.6687H49.8874L53.8335 18.2292Z" fill="black"/>
<path d="M63.5781 18.4495C67.1514 18.4495 69.6727 15.982 69.6727 12.5011C69.6727 9.02017 67.1514 6.55267 63.5781 6.55267C60.0048 6.55267 57.484 9.02017 57.484 12.5011C57.484 15.982 60.0048 18.4495 63.5781 18.4495ZM63.5781 16.1363C61.5175 16.1363 60.1146 14.6602 60.1146 12.5011C60.1146 10.342 61.5175 8.86595 63.5781 8.86595C65.6392 8.86595 67.0421 10.342 67.0421 12.5011C67.0421 14.6602 65.6392 16.1363 63.5781 16.1363Z" fill="black"/>
<path d="M79.493 6.77292V11.2893H74.3851V6.77292H71.8644V18.2292H74.3851V13.6026H79.493V18.2292H82.0143V6.77292H79.493Z" fill="black"/>
<path d="M87.7088 18.2292H90.23V9.0862H94.176V6.77292H83.7628V9.0862H87.7088V18.2292Z" fill="black"/>
<path d="M100.146 6.55267C97.9323 6.55267 95.9811 7.6983 95.411 9.68111L97.7348 10.0777C98.0857 9.37267 98.875 8.71174 100.015 8.71174C101.396 8.71174 102.207 9.70314 102.317 11.2013H99.8612C96.5071 11.2013 94.8409 12.6774 94.8409 14.7924C94.8409 16.9294 96.4853 18.4495 98.8092 18.4495C100.672 18.4495 101.922 17.37 102.47 16.4227L102.996 18.2292H104.86V11.7961C104.86 8.46939 103.062 6.55267 100.146 6.55267ZM99.401 16.3125C98.1733 16.3125 97.384 15.6736 97.384 14.6822C97.384 13.801 98.0199 13.1841 99.9488 13.1841H102.338C102.338 15.0567 101.155 16.3125 99.401 16.3125Z" fill="black"/>
<path d="M114.675 18.2292H117.985L112.746 12.2807L117.547 6.77292H114.544L110.729 11.2232H110.115V6.77292H107.594V18.2292H110.115V13.6687H110.729L114.675 18.2292Z" fill="black"/>
<path d="M122.261 18.2292H124.783V9.0862H128.729V6.77292H118.316V9.0862H122.261V18.2292Z" fill="black"/>
<path d="M141.232 12.3689C141.232 9.06424 138.776 6.55267 135.313 6.55267C131.849 6.55267 129.394 9.0422 129.394 12.5011C129.394 15.96 131.849 18.4495 135.313 18.4495C137.68 18.4495 139.917 17.326 140.771 15.1449L138.404 14.7483C137.855 15.5635 136.803 16.1363 135.466 16.1363C133.537 16.1363 132.266 14.9466 132.025 13.1841H141.188C141.21 12.9417 141.232 12.6774 141.232 12.3689ZM135.313 8.7558C136.891 8.7558 138.075 9.76924 138.491 11.2013H132.178C132.594 9.72517 133.778 8.7558 135.313 8.7558Z" fill="black"/>
</g>
<defs>
<clipPath id="clip0">
<rect width="142" height="25" fill="white"/>
</clipPath>
</defs>
</svg>
