<svg width="193" height="28" viewBox="0 0 193 28" fill="none" xmlns="http://www.w3.org/2000/svg">
<path d="M28.0341 14.0341C28.0341 18.8488 25.7805 21.1024 22.9463 21.1024C21.3073 21.1024 19.8732 20.2488 19.0537 18.9512C17.7561 20.2488 16.0146 21.0683 14.0341 21.0683C10.1415 21.0683 7 17.9268 7 14.0341C7 10.1415 10.1415 7 14.0341 7C17.9268 7 21.0683 10.1415 21.0683 14.0341V16.322C21.0683 17.4829 21.8878 18.3024 22.9463 18.3024C24.2098 18.3024 25.2341 17.2439 25.2341 14.0341C25.2341 7.85366 20.2146 2.83415 14.0341 2.83415C7.85366 2.83415 2.8 7.85366 2.8 14.0341C2.8 20.2146 7.81951 25.2341 14 25.2341C17.5854 25.2341 20.0439 23.4585 20.0439 23.4585L21.8878 25.5756C21.8878 25.5756 18.7463 28 14 28C6.28293 28 0 21.7171 0 14C0 6.28293 6.28293 0 14 0C21.7512 0.0341463 28.0341 6.31707 28.0341 14.0341ZM14.0341 18.3024C16.3902 18.3024 18.3024 16.3902 18.3024 14.0341C18.3024 11.678 16.3902 9.76585 14.0341 9.76585C11.678 9.76585 9.76585 11.678 9.76585 14.0341C9.76585 16.3902 11.678 18.3024 14.0341 18.3024Z" fill="#FC2C38"/>
<path d="M42.0683 13.2829V20.5561H39.4731V7.99024H42.0683V9.15122C42.9219 8.22926 44.2195 7.68292 45.6195 7.68292C47.2244 7.68292 48.5902 8.36585 49.5122 9.62926C50.5366 8.39999 52.1414 7.68292 53.8829 7.68292C57.0585 7.68292 59.1756 10.039 59.1756 13.3854V20.5902H56.5805V13.4195C56.5805 11.5073 55.4536 10.2098 53.7122 10.2098C51.9707 10.2098 50.6049 11.5415 50.6049 13.3171V20.5902H48.0097V13.4195C48.0097 11.5073 46.8829 10.2098 45.1414 10.2098C43.4341 10.1756 42.0683 11.5073 42.0683 13.2829Z" fill="#030303"/>
<path d="M72.0146 9.35603V7.99018H74.6098V20.556H72.0146V19.1902C70.9561 20.2487 69.4878 20.8975 67.7805 20.8975C64.0927 20.8975 61.2585 18.0292 61.2585 14.3073C61.2585 10.5512 64.0927 7.71701 67.7805 7.71701C69.522 7.64872 70.9561 8.2975 72.0146 9.35603ZM63.9903 14.239C63.9903 16.6292 65.6976 18.3365 68.0195 18.3365C70.3756 18.3365 72.0488 16.5951 72.0488 14.239C72.0488 11.8829 70.3756 10.1414 68.0195 10.1414C65.6976 10.1755 63.9903 11.8487 63.9903 14.239Z" fill="#030303"/>
<path d="M80.6536 4.16582C80.6536 5.08777 79.9024 5.83899 78.9805 5.83899C78.0585 5.83899 77.3414 5.08777 77.3414 4.16582C77.3414 3.24387 78.0585 2.52679 78.9805 2.52679C79.9024 2.52679 80.6536 3.24387 80.6536 4.16582ZM80.278 20.5561H77.6829V7.99021H80.278V20.5561Z" fill="#030303"/>
<path d="M86.0829 20.5561H83.4878V2.80005H86.0829V20.5561Z" fill="#030303"/>
<path d="M90.8976 20.8975C89.9756 20.8975 89.1561 20.1463 89.1561 19.1219C89.1561 18.0975 90.0098 17.3463 90.8976 17.3463C91.8195 17.3463 92.639 18.0975 92.639 19.1219C92.639 20.1463 91.8195 20.8975 90.8976 20.8975Z" fill="#030303"/>
<path d="M98.2049 14V20.5219H95.6097V7.95605H98.2049V9.66337C99.1268 8.46825 100.356 7.95605 102.132 7.95605H103.156V10.3804H102.132C99.8097 10.3804 98.2049 11.8487 98.2049 14Z" fill="#030303"/>
<path d="M113.878 15.1268V7.9902H116.473V20.5561H113.878V19.2926C112.956 20.2829 111.556 20.8634 110.02 20.8634C106.878 20.8634 104.795 18.5073 104.795 15.0926V7.95605H107.39V15.0243C107.39 17.0731 108.62 18.3365 110.463 18.3365C112.376 18.3365 113.878 16.9024 113.878 15.1268Z" fill="#030303"/>
<path d="M135.595 9.28776V7.9902H138.19V18.8829C138.19 22.9121 135.595 25.4048 131.498 25.4048C129.483 25.4048 127.468 24.7902 126.102 23.8341L127.298 21.6487C128.39 22.4 129.995 22.878 131.498 22.878C134.059 22.878 135.561 21.5121 135.561 19.1561V18.917C134.502 19.9756 133.034 20.556 131.327 20.556C127.639 20.556 124.805 17.7902 124.805 14.1365C124.805 10.4829 127.639 7.71703 131.327 7.71703C133.068 7.64873 134.537 8.22922 135.595 9.28776ZM127.537 14.0682C127.537 16.3902 129.244 17.9951 131.566 17.9951C133.922 17.9951 135.595 16.356 135.595 14.0682C135.595 11.7804 133.922 10.1414 131.566 10.1414C129.244 10.1756 127.537 11.7804 127.537 14.0682Z" fill="#030303"/>
<path d="M143.722 14V20.5219H141.127V7.95605H143.722V9.66337C144.644 8.46825 145.873 7.95605 147.649 7.95605H148.673V10.3804H147.649C145.327 10.3804 143.722 11.8487 143.722 14Z" fill="#030303"/>
<path d="M155.673 20.8634C151.917 20.8634 148.946 17.961 148.946 14.2732C148.946 10.5854 151.917 7.68292 155.673 7.68292C159.429 7.68292 162.4 10.5854 162.4 14.2732C162.4 17.961 159.429 20.8634 155.673 20.8634ZM155.673 18.3366C157.995 18.3366 159.702 16.5951 159.702 14.239C159.702 11.8829 157.995 10.1415 155.673 10.1415C153.351 10.1415 151.644 11.8829 151.644 14.239C151.644 16.5951 153.351 18.3366 155.673 18.3366Z" fill="#030303"/>
<path d="M173.6 15.1268V7.9902H176.195V20.5561H173.6V19.2926C172.678 20.2829 171.278 20.8634 169.741 20.8634C166.6 20.8634 164.517 18.5073 164.517 15.0926V7.95605H167.112V15.0243C167.112 17.0731 168.341 18.3365 170.185 18.3365C172.098 18.3365 173.6 16.9024 173.6 15.1268Z" fill="#030303"/>
<path d="M192.449 14.2391C192.449 17.9952 189.615 20.8293 185.927 20.8293C184.185 20.8293 182.751 20.1806 181.693 19.122V24.9269H179.098V7.92203H181.693V9.28788C182.751 8.22935 184.219 7.58057 185.927 7.58057C189.615 7.64886 192.449 10.5172 192.449 14.2391ZM181.693 14.2391C181.693 16.5952 183.366 18.3367 185.722 18.3367C188.044 18.3367 189.751 16.6293 189.751 14.2391C189.751 11.8489 188.044 10.1415 185.722 10.1415C183.366 10.1757 181.693 11.883 181.693 14.2391Z" fill="#030303"/>
</svg>
