<svg width="105" height="34" viewBox="0 0 105 34" fill="none" xmlns="http://www.w3.org/2000/svg">
<path fill-rule="evenodd" clip-rule="evenodd" d="M18.0406 26.305C17.9846 25.7776 18.3034 23.182 18.3034 23.182C18.3034 23.182 18.9441 23.2897 19.5624 23.3582C20.1807 23.4267 21.1754 23.4811 21.1754 23.4811C21.1754 23.4811 20.6391 25.4286 20.9506 25.8732C21.6706 26.9007 25.6059 29.4383 26.5082 30.4568C26.9618 30.9096 27.4224 31.3489 27.9858 31.7446C28.384 32.0844 29.6693 32.1234 30.0073 32.4632C30.2333 32.7086 30.5098 33.4239 30.3711 33.5533C30.2764 33.6416 28.3288 33.6845 27.9858 33.6226C27.614 33.6226 27.1689 33.263 27.1689 33.263C27.1689 33.263 26.8923 33.5533 26.5082 33.3478C25.8314 33.0094 25.9325 32.311 25.5374 31.7446C25.3115 31.5184 22.0042 29.3352 19.8729 28.1285C18.0446 27.0932 18.1258 27.1081 18.0406 26.305ZM4.88946 19.5855C4.49321 19.232 3.02917 20.4898 2.61064 20.3991C2.19212 20.3084 2.60147 19.2693 2.2307 19.3327C1.72794 19.4185 1.59383 20.5995 1.14225 20.6913C0.413988 20.966 0 19.8715 0 18.565C0 17.2584 0.462991 15.8347 2.03993 14.9231C3.61687 14.0115 5.95209 13.7793 7.76406 14.3894C9.4835 13.4656 11.7457 10.7841 16.7841 10.6587C21.8226 10.5334 23.709 13.0606 24.7799 12.4555C25.8509 11.8504 26.2134 10.4862 25.9804 9.46699C25.5341 7.51482 24.6685 6.45333 23.9757 4.71497C23.5407 3.62423 23.5168 2.18345 24.0648 1.12686C24.3106 0.657564 24.9077 0.110144 25.8079 0.00919146C26.7082 -0.0917609 26.9453 0.667716 27.5754 0.87489C28.2055 1.08206 29.5522 1.20959 29.6574 1.69156C29.7626 2.17352 28.1467 2.5524 27.7803 2.51292C26.9223 2.42066 26.3809 3.00009 26.4274 4.02386C26.4828 5.32574 26.7877 5.79062 27.9833 7.64378C29.1788 9.49695 29.1679 12.5783 27.641 14.7282C27.1595 15.3563 26.6469 15.8899 26.3072 16.608C26.0334 17.1833 26.3072 16.024 26.3072 18.3203C26.3072 20.6165 25.154 21.7218 23.6471 22.2071C21.6183 22.8604 19.8663 22.6161 18.0746 22.4041C15.5953 22.1107 13.6553 22.145 12.6427 22.4041C11.7652 22.6294 9.0187 24.185 8.68072 24.9089C8.50132 25.2997 7.53201 29.3671 7.35438 30.2604C7.28173 30.6282 7.32267 31.3602 7.15301 31.6862C6.96741 32.0482 4.70739 33.4788 3.94017 33.7724C3.58669 33.9081 2.87291 34.0816 2.78813 33.9573C2.28808 33.3796 2.28982 33.2457 3.7429 32.1928C3.23536 31.136 4.6997 30.8779 5.13026 30.3568C5.60025 29.7899 6.45273 23.6177 6.74497 22.8139C7.03721 22.0102 8.17795 21.7335 8.6404 21.0184C8.42163 20.7648 8.11868 20.9002 7.31735 21.1255C6.62987 21.3198 5.19421 21.8335 4.88946 21.5766C4.58471 21.3198 5.28572 19.939 4.88946 19.5855Z" fill="#2E2E33"/>
<path fill-rule="evenodd" clip-rule="evenodd" d="M44.4069 15.9419H39.7487V4.00163H44.3893C48.0771 4.00163 50.6356 6.38252 50.6356 9.9628C50.6356 13.5789 48.0771 15.9419 44.4069 15.9419ZM44.3893 13.7042C46.7184 13.7042 48.0771 12.0036 48.0771 9.9628C48.0771 7.86834 46.8067 6.23931 44.4069 6.23931H42.2542V13.7042H44.3893ZM56.3703 16.1567C53.7764 16.1567 51.8179 14.3845 51.8179 11.6097C51.8179 9.10354 53.6529 7.08067 56.2291 7.08067C58.7876 7.08067 60.4992 9.01403 60.4992 11.8246V12.3616H54.1646C54.3234 13.4178 55.1704 14.295 56.6173 14.295C57.3407 14.295 58.3289 13.9906 58.8759 13.4536L59.8816 14.9573C59.0347 15.745 57.6936 16.1567 56.3703 16.1567ZM58.3465 10.7863C58.2759 9.9628 57.7113 8.94242 56.2291 8.94242C54.8351 8.94242 54.2352 9.927 54.147 10.7863H58.3465ZM64.5223 16.1567C62.9519 16.1567 62.1225 15.3332 62.1225 13.7758V4.00163H64.3635V13.1672C64.3635 13.7221 64.6458 14.1338 65.1398 14.1338C65.4751 14.1338 65.7927 14.0085 65.9162 13.8653L66.3926 15.6018C66.0574 15.9061 65.4398 16.1567 64.5223 16.1567ZM68.4924 6.36462C67.769 6.36462 67.169 5.75597 67.169 5.00411C67.169 4.25225 67.769 3.6615 68.4924 3.6615C69.2335 3.6615 69.8334 4.25225 69.8334 5.00411C69.8334 5.75597 69.2335 6.36462 68.4924 6.36462ZM69.6217 15.9419H67.3808V7.29549H69.6217V15.9419ZM76.4679 15.9419H74.0506L70.6274 7.29549H73.0272L75.2504 13.3104L77.4914 7.29549H79.8911L76.4679 15.9419ZM84.9023 16.1567C82.3085 16.1567 80.3498 14.3845 80.3498 11.6097C80.3498 9.10354 82.1849 7.08067 84.7611 7.08067C87.3196 7.08067 89.0312 9.01403 89.0312 11.8246V12.3616H82.6966C82.8554 13.4178 83.7024 14.295 85.1493 14.295C85.8727 14.295 86.8609 13.9906 87.4079 13.4536L88.4136 14.9573C87.5667 15.745 86.2257 16.1567 84.9023 16.1567ZM86.8785 10.7863C86.8079 9.9628 86.2433 8.94242 84.7611 8.94242C83.3671 8.94242 82.7672 9.927 82.679 10.7863H86.8785ZM92.8955 15.9419H90.6545V7.29549H92.8955V8.45908C93.513 7.70722 94.5541 7.08067 95.6128 7.08067V9.30045C95.454 9.26465 95.2599 9.24675 94.9952 9.24675C94.2541 9.24675 93.266 9.67638 92.8955 10.2313V15.9419ZM100.465 19.4506C99.0359 19.4506 97.889 19.0388 96.9009 18.1617L97.9066 16.5326C98.5242 17.2845 99.5653 17.5888 100.465 17.5888C101.912 17.5888 102.759 16.5863 102.759 15.369V14.474C102.177 15.1184 101.153 15.7808 99.7594 15.7808C97.889 15.7808 97.0068 14.7425 97.0068 13.0598V7.29549H99.2477V12.1647C99.2477 13.3641 99.8652 13.7579 100.818 13.7579C101.683 13.7579 102.371 13.2746 102.759 12.7733V7.29549H105V15.369C105 17.9647 103.183 19.4506 100.465 19.4506ZM45.2667 32.4307C41.7201 32.4307 38.9851 29.9245 38.9851 26.2547C38.9851 22.567 41.7201 20.0787 45.2667 20.0787C47.8429 20.0787 49.3427 21.493 50.1721 22.9967L48.0194 24.0708C47.5253 23.1041 46.4666 22.3343 45.2667 22.3343C43.114 22.3343 41.5613 23.9992 41.5613 26.2547C41.5613 28.5103 43.114 30.1752 45.2667 30.1752C46.4666 30.1752 47.5253 29.4054 48.0194 28.4387L50.1721 29.4949C49.3427 30.9807 47.8429 32.4307 45.2667 32.4307ZM54.2176 32.4307C52.6472 32.4307 51.8179 31.6073 51.8179 30.0498V20.2757H54.0588V29.4412C54.0588 29.9961 54.3411 30.4079 54.8352 30.4079C55.1704 30.4079 55.488 30.2826 55.6115 30.1393L56.0879 31.8758C55.7527 32.1801 55.1351 32.4307 54.2176 32.4307ZM65.0693 32.2159H62.8283V31.1239C62.2461 31.7684 61.2226 32.4307 59.8287 32.4307C57.9583 32.4307 57.0761 31.3924 57.0761 29.7097V23.5695H59.317V28.8146C59.317 30.014 59.9346 30.4079 60.8874 30.4079C61.752 30.4079 62.4402 29.9245 62.8283 29.4233V23.5695H65.0693V32.2159ZM69.5335 29.4412C69.9216 29.9961 70.7333 30.4079 71.4744 30.4079C72.7625 30.4079 73.6271 29.3875 73.6271 27.8838C73.6271 26.3979 72.7625 25.3776 71.4744 25.3776C70.7333 25.3776 69.9216 25.8072 69.5335 26.38V29.4412ZM69.5335 32.2159H67.2925V20.2757H69.5335V24.6794C70.204 23.7843 71.1568 23.3547 72.1626 23.3547C74.3329 23.3547 75.9386 25.0732 75.9386 27.8838C75.9386 30.7838 74.3153 32.4307 72.1626 32.4307C71.1392 32.4307 70.204 31.9653 69.5335 31.106V32.2159Z" fill="#2E2E33"/>
</svg>
