<svg width="37" height="37" viewBox="0 0 37 37" fill="none" xmlns="http://www.w3.org/2000/svg">
<path d="M37 31.5856C37 34.576 34.5882 37 31.6132 37H5.3868C2.41172 37 0 34.576 0 31.5856V5.41443C0 2.42409 2.41172 0 5.3868 0H31.6132C34.5883 0 37 2.42409 37 5.41443V31.5856Z" fill="#FAAB62"/>
<path d="M36.81 31.4509C36.81 34.4105 34.423 36.8097 31.4785 36.8097H5.52147C2.57699 36.8097 0.190063 34.4105 0.190063 31.4509V5.54854C0.190063 2.58895 2.57708 0.189789 5.52147 0.189789H31.4785C34.423 0.189789 36.81 2.58905 36.81 5.54854V31.4509Z" fill="#F7931E"/>
<path d="M18.4794 5.52994C14.8125 5.52994 11.8398 8.51789 11.8398 12.2036C11.8398 15.8894 14.8125 18.8775 18.4794 18.8775C22.1464 18.8775 25.119 15.8894 25.119 12.2036C25.119 8.51789 22.1464 5.52994 18.4794 5.52994ZM18.4794 14.9625C16.9636 14.9625 15.7348 13.7273 15.7348 12.2037C15.7348 10.6801 16.9636 9.44495 18.4794 9.44495C19.9953 9.44495 21.2241 10.6801 21.2241 12.2037C21.2241 13.7273 19.9953 14.9625 18.4794 14.9625Z" fill="white"/>
<path d="M20.8235 24.1875C23.4816 23.6432 25.0744 22.378 25.1587 22.3101C25.9365 21.6831 26.0615 20.5411 25.4377 19.7592C24.814 18.9774 23.6779 18.8518 22.8999 19.4787C22.8834 19.4921 21.1845 20.802 18.3892 20.8039C15.594 20.802 13.8592 19.4921 13.8428 19.4787C13.0648 18.8518 11.9286 18.9774 11.3049 19.7592C10.6812 20.5411 10.8061 21.6831 11.5839 22.3101C11.6693 22.379 13.328 23.6772 16.0606 24.2086L12.2522 28.2091C11.5601 28.9306 11.5809 30.0793 12.2986 30.7749C12.649 31.1144 13.1005 31.2832 13.5516 31.2832C14.0246 31.2832 14.4971 31.0974 14.8514 30.7281L18.3893 26.94L22.2846 30.7527C22.9904 31.4609 24.1333 31.4598 24.8377 30.7507C25.5422 30.0415 25.5413 28.8925 24.8358 28.1845L20.8235 24.1875Z" fill="white"/>
<path d="M18.3891 20.8039C18.3852 20.8039 18.3929 20.804 18.3891 20.804C18.3853 20.804 18.393 20.8039 18.3891 20.8039Z" fill="white"/>
</svg>
