<svg width="129" height="30" viewBox="0 0 129 30" fill="none" xmlns="http://www.w3.org/2000/svg">
<g clip-path="url(#clip0)">
<path d="M5.55119 20.5544L0 14.3915L12.951 0.0105833L20.2218 8.08384L27.5032 0L36.0076 9.44379L44.5032 0.0123471L50.0968 6.22472L28.6856 30L23.0902 23.7876L30.4034 15.6667L27.4679 12.3965L20.1494 20.5227L12.8644 12.4336L5.55119 20.5544Z" fill="black"/>
<path d="M72.5031 11.2516L69.7089 15.3879L66.7822 11.2516H64.7003L68.797 17.0177V20.5225H70.5732V17.0177L74.555 11.2516H72.5031Z" fill="black"/>
<path d="M82.2375 15.2787V16.9015H85.2667V18.6989C84.6039 18.8946 83.8015 19.0075 83.0434 19.0075C80.7158 19.0075 79.3249 17.854 79.3249 15.9208C79.3249 14.074 80.8183 12.834 83.0434 12.834C84.1038 12.834 85.2083 13.0633 86.2387 13.499L86.4031 13.5677L86.9509 12.0296L86.8025 11.9679C85.5388 11.4476 84.2328 11.183 82.9214 11.183C79.6678 11.183 77.4816 13.1197 77.4816 16.0019C77.4816 18.9176 79.5352 20.6568 82.9744 20.6568C84.3317 20.6568 85.8905 20.3357 86.9456 19.8401L87.0411 19.7942V15.2787H82.2375Z" fill="black"/>
<path d="M114.364 18.8998V16.6314H118.848V15.0069H114.364V12.8744H119.309V11.2516H112.588V20.5225H119.392V18.8998H114.364Z" fill="black"/>
<path d="M124.714 15.0442C123.33 14.8484 122.489 14.6738 122.489 13.9012C122.489 13.2239 123.185 12.834 124.399 12.834C125.675 12.834 126.776 13.3156 127.191 13.522L127.343 13.5978L128.043 12.1673L127.909 12.0897C126.932 11.5235 125.585 11.1866 124.305 11.1866C122.013 11.1866 120.645 12.2326 120.645 13.9841C120.645 14.8272 120.935 15.4481 121.529 15.882C122.259 16.4129 123.321 16.5611 124.259 16.6934C125.59 16.8804 126.405 17.0303 126.405 17.7535C126.405 18.8877 124.802 19.0094 124.113 19.0094C123.082 19.0094 122.128 18.7483 121.278 18.2333L121.129 18.1433L120.315 19.5826L120.445 19.6691C121.135 20.1206 122.328 20.6586 124.097 20.6586C126.617 20.6586 128.245 19.4909 128.245 17.6847C128.25 15.5434 126.288 15.2664 124.714 15.0442Z" fill="black"/>
<path d="M54.9587 20.5226L56.7632 15.3986L59.8101 20.4891L62.8552 15.3986L64.6596 20.5226H66.5153L63.2723 11.1935L59.8101 16.9984L56.3461 11.1935L53.103 20.5226H54.9587Z" fill="black"/>
<path d="M89.6674 20.5226L90.6218 18.8205L94.9482 18.817L95.9008 20.5226H97.9102L92.7832 11.1935L87.6544 20.5226H89.6674ZM92.7868 14.9452L94.1617 17.4059H91.4135L92.7868 14.9452Z" fill="black"/>
<path d="M100.194 20.5226L101.996 15.2504L105.043 20.4891L108.09 15.2504L109.894 20.5226H111.748L108.505 11.1935L105.043 16.9984L101.581 11.1935L98.3379 20.5226H100.194Z" fill="black"/>
<path d="M74.564 17.4899L72.9781 19.0727L74.564 20.6554L76.1498 19.0727L74.564 17.4899Z" fill="black"/>
<path d="M42.6334 18.8505C42.135 18.8505 41.7321 19.2527 41.7321 19.7501C41.7321 20.2475 42.135 20.6497 42.6334 20.6497C43.1318 20.6497 43.5347 20.2475 43.5347 19.7501C43.5347 19.2527 43.1318 18.8505 42.6334 18.8505ZM42.6334 20.5244C42.2057 20.5244 41.8575 20.177 41.8575 19.7501C41.8575 19.3232 42.2057 18.9758 42.6334 18.9758C43.0611 18.9758 43.4093 19.3232 43.4093 19.7501C43.4093 20.177 43.0611 20.5244 42.6334 20.5244ZM43.0257 20.1734C43.024 20.147 43.024 20.1223 43.024 20.0993V20.027C43.024 19.9776 43.0063 19.9265 42.971 19.8736C42.9356 19.8207 42.8791 19.7889 42.8013 19.7766C42.8631 19.766 42.9109 19.7501 42.9444 19.7289C43.0081 19.6866 43.0416 19.6231 43.0416 19.5349C43.0416 19.4114 42.9904 19.3268 42.8879 19.2844C42.8313 19.2615 42.7412 19.2492 42.6175 19.2492H42.2711V20.2369H42.4461V19.8489H42.5839C42.6758 19.8489 42.7412 19.8595 42.7783 19.8806C42.8402 19.9177 42.872 19.9918 42.872 20.1064V20.184L42.8755 20.2158C42.8773 20.2193 42.8773 20.2228 42.8773 20.2263C42.8773 20.2299 42.8791 20.2334 42.8791 20.2369H43.0416L43.0346 20.2246C43.031 20.2175 43.0275 20.1999 43.0257 20.1734ZM42.7677 19.7042C42.7306 19.7184 42.6758 19.7272 42.6016 19.7272H42.4443V19.3691H42.5927C42.69 19.3691 42.7606 19.3815 42.8031 19.4061C42.8472 19.4308 42.8685 19.4785 42.8685 19.5508C42.8702 19.6266 42.8366 19.6778 42.7677 19.7042Z" fill="black"/>
</g>
<defs>
<clipPath id="clip0">
<rect width="128.25" height="30" fill="white"/>
</clipPath>
</defs>
</svg>
