<svg width="144" height="15" viewBox="0 0 144 15" fill="none" xmlns="http://www.w3.org/2000/svg">
<path d="M121.898 0.315789H118.698V14.693H122.442L127.202 4.97368H127.29L127.062 14.693H130.262V0.315789H126.518L121.758 10.0439H121.67L121.898 0.315789ZM87.005 7.57018V7.40351C87.005 4.3421 89.0477 3.12281 92.388 3.12281C95.7282 3.12281 97.7973 4.3421 97.7973 7.40351V7.57018C97.7973 10.6316 95.7282 11.8772 92.388 11.8772C89.0477 11.8772 87.005 10.6316 87.005 7.57018ZM83.2351 7.77193C83.2351 12.1667 86.8647 15 92.388 15C97.9113 15 101.567 12.1667 101.567 7.77193V7.20175C101.567 2.80702 97.9113 0 92.388 0C86.8647 0 83.2351 2.80702 83.2351 7.20175V7.77193ZM144 0.315789H134.873L134.733 8.2807C134.681 10.7193 134.304 11.5702 133.006 11.5702H132.182V14.693H133.12C136.662 14.693 137.679 13.2719 137.767 8.28947L137.854 3.07018H140.826V14.693H144V0.315789ZM64.2104 14.6842H67.4981L67.3491 5.15789H67.4367L71.005 14.6842H74.2926L77.8346 5.15789H77.9222L77.782 14.6842H81.0696V0.315789H76.537L72.7146 10.9474H72.6269L68.7431 0.315789H64.2104V14.6842ZM111.667 11.9035H107.134V9.21053H111.667C112.745 9.21053 113.192 9.66667 113.192 10.5702C113.201 11.4825 112.745 11.9035 111.667 11.9035ZM103.741 0.315789V14.693H111.535C114.393 14.693 116.498 13.6404 116.498 10.5789C116.498 7.51754 114.402 6.5 111.535 6.5H107.143V3.14912H116.015V0.315789H103.741Z" fill="#FF7D00"/>
<path d="M16.9995 11.0877L13.6592 9.64035C12.6071 11.5439 10.9151 11.9386 8.84603 11.9386C5.44438 11.9386 3.71726 10.4386 3.71726 7.59649V7.40351C3.71726 4.57018 5.44438 3.0614 8.84603 3.0614C10.9151 3.0614 12.6159 3.45614 13.6592 5.35965L16.9995 3.91228C15.4126 0.649123 12.2126 0 8.83726 0C3.40164 0 0 2.80702 0 7.22807V7.77193C0 12.2193 3.40164 15 8.83726 15C12.2126 15 15.4126 14.3421 16.9995 11.0877ZM48.789 0.315789H45.2471V14.6842H49.1573L57.5123 4.67544H57.6L57.5474 14.6842H61.0893V0.315789H57.1792L48.8241 10.3246H48.7364L48.789 0.315789ZM22.1282 0.315789H18.9282V14.6842H22.6718L27.4323 4.96491H27.52L27.2921 14.6842H30.4921V0.315789H26.7485L21.9879 10.0439H21.9003L22.1282 0.315789ZM36.217 3.14912V14.6842H39.531V3.14912H43.3885V0.315789H32.3595V3.14912H36.217Z" fill="#6E00BE"/>
</svg>
