<svg width="899" height="899" viewBox="0 0 899 899" fill="none" xmlns="http://www.w3.org/2000/svg">
<circle cx="449.5" cy="449.5" r="449.5" fill="url(#paint0_radial)"/>
<path opacity="0.5" d="M400.095 464.127C400.095 442.8 417.203 425.692 438.53 425.692C459.636 425.692 476.96 442.8 476.96 464.127C476.96 485.233 459.636 502.562 438.53 502.562C417.203 502.556 400.095 485.233 400.095 464.127ZM312.346 464.127C312.346 533.66 368.997 590.312 438.53 590.312C481.185 590.312 509.622 568.319 509.622 568.319L492.958 549.215C492.958 549.215 470.743 565.208 438.53 565.208C382.772 565.208 337.45 519.886 337.45 464.127C337.45 408.368 382.772 363.046 438.53 363.046C494.295 363.046 539.611 408.368 539.611 464.127C539.611 493.007 530.278 502.562 518.949 502.562C509.394 502.562 502.064 495.231 502.064 484.789V464.127C502.064 429.025 473.627 400.588 438.525 400.588C403.423 400.588 374.986 429.025 374.986 464.127C374.986 499.229 403.423 527.666 438.525 527.666C456.298 527.666 472.29 520.335 483.841 508.562C491.172 520.113 504.06 527.893 518.943 527.893C544.491 527.893 564.709 507.453 564.709 464.133C564.709 394.599 508.058 337.948 438.525 337.948C368.997 337.942 312.346 394.594 312.346 464.127Z" fill="#45F4FF"/>
<path d="M277.612 305.762C214.236 307.622 208.617 399.561 274.241 407.439H281.727C345.5 400.639 343.826 307.702 277.612 305.762ZM306.473 374.304C306.031 374.412 305.577 374.452 305.123 374.452H305.066C303.942 374.555 302.62 374.498 301.36 374.435C300.792 374.441 300.224 374.447 299.657 374.475C299.197 374.492 298.766 374.458 298.357 374.372H298.351C298.107 374.372 297.812 374.275 297.489 374.093C296.796 373.791 296.178 373.317 295.61 372.689C295.423 372.484 295.235 372.273 295.048 372.068C293.277 370.322 291.177 367.931 289.225 366.134C288.351 365.387 287.431 364.697 286.393 364.172C285.763 363.858 285.115 363.675 284.417 363.738C283.776 364.006 283.299 364.765 283.049 366.18C283.049 368.006 283.032 369.831 283.061 371.657C283.067 371.908 283.055 372.13 283.032 372.341C283.032 372.347 283.032 372.347 283.032 372.353C283.027 372.398 283.021 372.438 283.015 372.484V372.49C283.004 372.558 282.993 372.621 282.976 372.684C282.964 372.724 282.953 372.764 282.947 372.804C282.743 373.539 282.238 373.967 281.211 374.19C280.268 374.452 279.088 374.475 277.981 374.424C277.317 374.412 276.653 374.361 276 374.275C275.983 374.275 275.96 374.27 275.943 374.27C275.898 374.264 275.853 374.253 275.807 374.247C273.934 373.984 272.112 373.431 270.341 372.638C269.377 372.216 268.451 371.725 267.555 371.178C267.492 371.143 267.43 371.103 267.367 371.063C267.311 371.029 267.26 370.995 267.203 370.961C264.251 369.118 261.754 366.767 259.603 364.018C257.344 361.239 255.386 358.119 253.655 354.935C252.894 353.577 252.168 352.197 251.498 350.782C251.191 350.137 250.896 349.487 250.607 348.836C250.601 348.825 250.595 348.813 250.59 348.802C250.584 348.796 250.584 348.791 250.584 348.785C249.965 347.37 249.398 345.932 248.938 344.455C248.399 342.931 248.081 341.756 248.075 340.872C248.047 340.598 248.053 340.318 248.126 340.039C248.28 339.446 248.609 339.046 249.211 338.886C249.489 338.812 249.772 338.755 250.056 338.732C251.101 338.527 252.605 338.544 254.671 338.715C255.357 338.715 256.044 338.715 256.731 338.715C257.48 338.715 258.048 338.835 258.49 339.126C258.945 339.423 259.268 339.902 259.54 340.627C259.586 340.752 259.637 340.878 259.682 341.003C260.415 342.589 261.175 344.865 262.259 347.41C263.525 350.097 264.904 352.721 266.624 355.14C267.464 356.247 268.417 357.331 269.496 358.358C269.496 358.358 269.501 358.358 269.501 358.364C269.745 358.541 270.001 358.7 270.296 358.78C270.444 358.82 270.586 358.837 270.716 358.832C271.306 358.695 271.641 357.839 271.811 356.607C271.811 356.607 271.811 356.607 271.811 356.601C271.811 354.136 271.828 351.677 271.823 349.213C271.738 347.644 271.658 346.235 271.675 345.328C271.573 344.751 271.414 344.204 271.181 343.673C270.75 342.903 270.137 342.195 269.723 341.482C269.694 341.442 269.66 341.402 269.632 341.363C269.252 340.826 269.03 340.256 269.36 339.611C269.365 339.605 269.371 339.6 269.371 339.588C269.711 338.944 270.302 338.71 270.994 338.704C271.17 338.704 271.352 338.704 271.528 338.704C273.151 338.521 275.472 338.624 277.879 338.704C278.889 338.704 279.899 338.704 280.91 338.704C281.182 338.704 281.421 338.721 281.631 338.761H281.636C281.642 338.761 281.648 338.767 281.653 338.767C281.795 338.784 281.926 338.824 282.045 338.875C282.715 339.143 283.01 339.731 283.027 340.775C283.169 341.865 283.101 343.257 283.044 344.62C283.044 345.607 283.038 346.6 283.038 347.593H283.049C283.049 349.544 283.049 351.495 283.049 353.452C283.254 355.129 283.702 355.911 284.315 356.03C284.593 356.002 284.905 355.876 285.24 355.648C286.058 355.089 286.767 354.399 287.414 353.646C289.616 350.799 292.233 345.995 294.299 342.446C294.6 341.79 294.883 341.129 295.173 340.473C295.462 339.828 295.871 339.366 296.388 339.08C296.388 339.08 296.388 339.08 296.388 339.075H296.393C296.825 338.835 297.324 338.715 297.892 338.71C298.556 338.698 299.225 338.698 299.889 338.698C301.961 338.521 303.522 338.499 304.617 338.71C304.799 338.71 304.986 338.744 305.168 338.778C306.394 338.995 306.842 339.64 306.581 340.866C306.553 340.992 306.519 341.117 306.49 341.237C306.218 342.755 305.009 345.025 302.96 348.294C301.848 350.12 300.667 351.9 299.487 353.68C298.822 354.678 298.147 355.671 297.477 356.664C297.392 356.789 297.33 356.909 297.273 357.029C297.006 357.788 297.273 358.546 297.897 359.385C298.805 360.463 299.884 361.382 300.837 362.414C301.047 362.643 301.263 362.871 301.473 363.105C303.204 364.828 305.179 366.973 306.825 369.797C306.871 369.871 306.922 369.945 306.967 370.019C307.206 370.407 307.433 370.807 307.597 371.229C307.597 371.235 307.603 371.24 307.603 371.24C307.87 371.914 307.938 372.456 307.847 372.883C307.739 373.636 307.279 374.11 306.473 374.304Z" fill="#45F4FF"/>
<path fill-rule="evenodd" clip-rule="evenodd" d="M288.579 597.46C288.579 580.578 302.258 566.894 319.139 566.894C336.021 566.894 349.705 580.583 349.705 597.46C349.705 614.336 336.016 628.02 319.139 628.02C302.263 628.02 288.579 614.341 288.579 597.46ZM330.161 586.598C330.201 580.93 325.569 576.288 319.862 576.276C314.172 576.259 309.552 580.862 309.529 586.575C309.506 592.242 314.127 596.879 319.811 596.908C325.501 596.936 330.127 592.327 330.161 586.598ZM325.552 604.566C327.185 604.026 328.733 603.309 330.127 602.285C331.384 601.351 331.646 599.616 330.764 598.364C329.859 597.124 328.112 596.834 326.872 597.733C326.263 598.171 325.62 598.529 324.937 598.819C322.65 599.787 320.272 600.088 317.819 599.735C315.902 599.462 314.11 598.842 312.511 597.716C311.868 597.266 311.139 597.107 310.371 597.272C309.182 597.528 308.414 598.268 308.169 599.457C307.919 600.657 308.357 601.636 309.353 602.347C310.781 603.366 312.363 604.077 314.024 604.606C314.69 604.822 315.367 604.993 316.101 605.141C316.065 605.179 316.029 605.217 315.994 605.255C315.781 605.483 315.584 605.692 315.384 605.898C314.809 606.498 314.234 607.098 313.66 607.699C312.535 608.873 311.412 610.047 310.286 611.218C309.711 611.815 309.37 612.509 309.41 613.34C309.467 614.552 310.07 615.44 311.202 615.872C312.351 616.316 313.393 616.048 314.263 615.166C314.593 614.827 314.916 614.481 315.24 614.133C315.324 614.043 315.408 613.953 315.492 613.863C316.846 612.424 318.201 610.979 319.549 609.533C319.686 609.386 319.76 609.386 319.896 609.528C320.124 609.763 320.361 609.991 320.599 610.22C320.735 610.351 320.871 610.482 321.006 610.615C321.533 611.129 322.06 611.643 322.587 612.158C323.64 613.187 324.693 614.216 325.751 615.24C326.849 616.304 328.511 616.35 329.609 615.366C330.826 614.273 330.872 612.43 329.7 611.257C328.713 610.276 327.724 609.297 326.735 608.319C325.747 607.34 324.758 606.361 323.771 605.38C323.751 605.36 323.729 605.34 323.706 605.321C323.64 605.264 323.572 605.204 323.538 605.107C324.226 604.959 324.892 604.782 325.552 604.566ZM324.112 586.62C324.107 588.953 322.195 590.848 319.845 590.842C317.472 590.842 315.583 588.936 315.589 586.558C315.595 584.214 317.512 582.313 319.868 582.319C322.223 582.324 324.118 584.248 324.112 586.62Z" fill="#45F4FF"/>
<path d="M582.631 304.299C567.481 304.299 555.2 316.416 555.2 331.364C555.2 346.312 567.481 358.43 582.631 358.43C597.781 358.43 610.062 346.312 610.062 331.364C610.062 316.416 597.781 304.299 582.631 304.299ZM582.189 334.603C581.552 334.603 580.915 334.598 580.278 334.598C578.62 334.779 577.219 335.549 575.894 336.489C575.435 336.817 575.119 337.225 574.993 337.785C574.591 339.58 573.948 341.324 573.828 343.176C573.811 343.413 573.719 343.606 573.535 343.748C572.531 344.518 571.498 345.242 570.264 345.633C569.926 345.741 569.581 345.843 569.329 345.463C569.053 345.039 569.409 344.829 569.65 344.608C570.006 344.285 570.465 344.087 570.396 343.453C570.362 343.136 570.758 342.938 571.045 342.802C571.693 342.485 571.963 341.964 572.089 341.29C572.41 339.552 572.778 337.819 573.088 336.075C573.231 335.283 573.53 334.637 574.287 334.235C574.505 334.122 574.878 333.952 574.723 333.646C574.574 333.363 574.23 333.567 573.977 333.635C573.375 333.788 572.778 333.969 572.175 334.105C571.624 334.229 571.377 334.02 571.469 333.437C571.532 333.04 571.842 332.536 571.429 332.265C571.004 331.982 570.614 332.463 570.213 332.621C569.765 332.797 569.185 333.397 569.071 332.31C569.042 332.044 568.847 332.089 568.698 332.231C568.611 332.31 568.56 332.429 568.491 332.531C568.284 332.854 568.17 333.318 567.653 333.233C567.142 333.148 567.039 332.678 566.953 332.282C566.494 330.181 567.269 327.888 570.396 327.18C571.475 326.937 572.577 326.874 573.656 327.135C574.172 327.259 574.557 327.14 574.976 326.863C575.882 326.268 576.703 325.544 577.73 325.142C577.724 325.187 577.713 325.227 577.696 325.266C577.713 325.232 577.719 325.187 577.73 325.142L577.759 325.13C579.739 323.964 581.908 323.704 584.158 323.811C585.931 323.896 587.561 324.491 589.156 325.198C590.55 325.816 591.601 325.176 591.767 323.624C591.893 322.441 591.365 321.422 590.877 320.402C590.516 319.649 590.114 318.908 589.799 318.138C589.403 317.147 589.397 316.133 589.764 315.114C590.131 314.101 591.756 313.206 592.806 314.27C593.288 314.763 594.017 314.672 594.602 314.927C594.86 315.04 595.268 315.052 595.268 315.42C595.268 315.777 594.86 315.805 594.608 315.929C594.252 316.111 593.85 316.145 593.448 316.173C592.559 316.235 592.22 316.609 592.203 317.492C592.18 318.557 592.611 319.485 593.236 320.278C595.113 322.65 594.757 326.195 593.001 328.046C592.192 328.901 591.974 329.87 592.054 331.008C592.163 332.536 591.515 333.726 590.103 334.45C589.977 334.513 589.822 334.518 589.678 334.552L589.46 334.592C589.167 334.807 588.84 334.892 588.479 334.858C588.381 334.869 588.284 334.881 588.186 334.898C587.497 335.175 586.769 335.084 586.068 335.033C584.777 334.926 583.486 334.75 582.189 334.603ZM595.928 345.14C595.807 345.458 595.463 345.361 595.204 345.39C594.981 345.412 594.757 345.395 594.47 345.395C593.798 345.531 593.127 345.157 592.404 345.146C592.037 345.14 591.79 344.801 591.704 344.455C591.526 343.708 590.975 343.317 590.372 342.955C588.594 341.879 586.826 340.781 585.024 339.739C584.358 339.354 584.054 338.878 584.146 338.131C584.226 337.451 584.272 336.76 584.312 336.075C584.335 335.69 584.519 335.554 584.892 335.622C584.967 335.634 585.041 335.645 585.116 335.651C585.707 335.719 586.43 335.6 586.855 335.9C587.383 336.274 586.803 336.97 586.837 337.536C586.866 338.012 587.073 338.318 587.417 338.584C588.748 339.609 590.091 340.622 591.417 341.653C591.824 341.97 592.209 342.326 592.576 342.689C593.276 343.38 594.04 343.94 595.072 344.042C595.256 344.059 595.451 344.178 595.595 344.302C595.847 344.518 596.054 344.806 595.928 345.14Z" fill="#45F4FF"/>
<path fill-rule="evenodd" clip-rule="evenodd" d="M624.008 536.561C623.656 534.666 623.314 532.766 622.979 530.86C622.939 530.632 622.853 530.564 622.626 530.615C622.017 530.74 621.402 530.86 620.788 530.945C620.498 530.985 620.469 531.11 620.509 531.36C620.737 532.692 620.959 534.023 621.169 535.355C621.357 536.515 621.516 537.676 621.334 538.848C621.181 539.85 620.64 540.549 619.707 540.942C619.115 541.19 618.489 541.306 617.866 541.422L617.865 541.422L617.721 541.448C617.562 541.477 617.494 541.431 617.465 541.266C617.346 540.572 617.22 539.878 617.09 539.178C617.05 538.973 617.084 538.848 617.317 538.842H617.317C617.324 538.842 617.33 538.842 617.336 538.841C617.339 538.841 617.341 538.84 617.344 538.838C617.344 538.838 617.345 538.837 617.346 538.837C618.546 538.626 618.825 538.302 618.791 537.079C618.77 536.351 618.643 535.636 618.517 534.919C618.474 534.678 618.431 534.436 618.393 534.194C618.142 532.601 617.875 531.008 617.607 529.415L617.607 529.414C617.573 529.198 617.641 529.153 617.841 529.113C619.133 528.882 620.426 528.645 621.719 528.409L621.721 528.409C622.367 528.29 623.014 528.172 623.661 528.054C623.895 528.012 624.128 527.971 624.361 527.929L624.362 527.929C624.595 527.888 624.828 527.847 625.061 527.804C624.97 526.507 624.76 525.227 624.475 523.963C622.939 517.101 619.542 511.338 614.228 506.734C609.807 502.905 604.686 500.51 598.927 499.486C597.795 499.286 596.652 499.15 595.502 499.087C595.494 499.087 595.485 499.088 595.476 499.088C595.424 499.09 595.366 499.093 595.337 499.025H591.724C591.54 499.121 591.343 499.124 591.147 499.127C591.063 499.129 590.98 499.13 590.899 499.139C582.137 499.981 574.882 503.719 569.209 510.45C565.579 514.763 563.309 519.736 562.336 525.283C561.528 529.875 561.767 534.427 562.956 538.933C562.963 538.963 562.975 538.991 562.988 539.02C562.997 539.04 563.006 539.06 563.013 539.081C563.318 539.025 563.622 538.97 563.927 538.915L563.927 538.915L563.927 538.915C564.764 538.763 565.598 538.611 566.433 538.444C566.677 538.399 566.768 538.501 566.871 538.683L566.874 538.689C568.353 541.219 569.831 543.749 571.315 546.279L571.315 546.279C571.377 546.387 571.44 546.495 571.559 546.689L571.569 546.632L571.569 546.632C571.661 546.117 571.738 545.689 571.81 545.255C572.187 543.005 572.56 540.751 572.933 538.5L573.095 537.517C573.124 537.357 573.152 537.227 573.363 537.187C574.467 536.999 575.565 536.8 576.663 536.595C576.856 536.561 576.919 536.595 576.953 536.788L577.109 537.652L577.109 537.652C577.746 541.172 578.383 544.695 579.03 548.214C579.064 548.407 579.013 548.475 578.825 548.504C578.085 548.629 577.351 548.766 576.617 548.908C576.413 548.948 576.333 548.902 576.293 548.68C576.048 547.162 575.793 545.643 575.538 544.122L575.538 544.122C575.439 543.529 575.34 542.936 575.241 542.342C575.172 541.926 575.104 541.511 575.024 541.067C574.908 541.179 574.896 541.31 574.885 541.431C574.881 541.471 574.878 541.509 574.871 541.545C574.416 544.089 573.966 546.632 573.517 549.175C573.482 549.363 573.431 549.494 573.204 549.528C572.475 549.642 571.747 549.778 571.024 549.921C570.802 549.966 570.689 549.904 570.575 549.71C569.238 547.451 567.889 545.192 566.541 542.939C566.509 542.886 566.474 542.832 566.437 542.775L566.437 542.775C566.407 542.728 566.375 542.68 566.342 542.626C566.297 542.721 566.313 542.789 566.329 542.858C566.33 542.864 566.332 542.869 566.333 542.875C566.334 542.879 566.335 542.884 566.336 542.888C566.517 543.807 566.699 544.725 566.881 545.643L566.882 545.65L566.883 545.653C567.065 546.573 567.246 547.492 567.428 548.413C567.44 548.466 567.441 548.522 567.442 548.578C567.443 548.606 567.444 548.635 567.445 548.663C568.879 550.785 570.563 552.68 572.475 554.376C576.532 557.972 581.204 560.39 586.489 561.613C588.139 561.995 589.807 562.234 591.497 562.342C591.516 562.343 591.537 562.342 591.558 562.34C591.62 562.336 591.681 562.332 591.724 562.404H595.212C595.418 562.313 595.635 562.31 595.851 562.307H595.851C595.946 562.306 596.04 562.305 596.134 562.296C608.282 561.215 618.427 553.699 622.979 542.382C623.536 540.993 623.997 539.571 624.327 538.108C624.208 537.79 624.151 537.46 624.099 537.13C624.077 536.959 624.048 536.76 624.008 536.561ZM603.627 516.333C604.43 516.208 605.226 516.066 606.023 515.895C606.279 515.844 606.319 515.924 606.353 516.14C606.568 517.413 606.793 518.684 607.018 519.956L607.018 519.956C607.102 520.429 607.186 520.901 607.269 521.375L607.272 521.39L607.272 521.394C607.43 522.298 607.589 523.202 607.77 524.208C607.878 524.032 607.94 523.929 607.991 523.833C608.466 522.996 608.942 522.159 609.417 521.322L609.419 521.32C610.64 519.17 611.862 517.019 613.078 514.865C613.186 514.672 613.312 514.569 613.528 514.535C614.444 514.376 615.354 514.217 616.265 514.04C616.464 514 616.492 514.074 616.521 514.239C617.209 518.046 617.898 521.852 618.597 525.659C618.632 525.864 618.58 525.926 618.381 525.961C617.55 526.103 616.72 526.251 615.895 526.416C615.696 526.456 615.679 526.347 615.663 526.24L615.663 526.24C615.661 526.224 615.659 526.209 615.656 526.194C615.499 525.32 615.347 524.447 615.196 523.571L615.196 523.57L615.194 523.563C615.132 523.204 615.07 522.844 615.007 522.484L614.29 518.37C614.284 518.338 614.275 518.307 614.266 518.274L614.266 518.274L614.266 518.274C614.257 518.243 614.247 518.21 614.239 518.171C614.133 518.206 614.096 518.289 614.06 518.367L614.06 518.367C614.05 518.39 614.04 518.412 614.028 518.433C612.321 521.437 610.614 524.447 608.913 527.457C608.811 527.639 608.68 527.73 608.481 527.764C607.587 527.918 606.694 528.077 605.807 528.248C605.596 528.288 605.522 528.259 605.482 528.026C604.885 524.686 604.276 521.346 603.667 518.006L603.636 517.83L603.636 517.83C603.566 517.444 603.497 517.054 603.422 516.669C603.366 516.476 603.383 516.373 603.627 516.333ZM592.947 518.268C593.952 518.091 594.954 517.909 595.957 517.726L595.957 517.726C596.499 517.628 597.041 517.529 597.585 517.431C598.03 517.35 598.476 517.269 598.921 517.188L598.922 517.188C599.813 517.026 600.705 516.864 601.596 516.697C601.75 516.669 601.824 516.68 601.852 516.851C601.913 517.206 601.977 517.56 602.041 517.917L602.041 517.918C602.098 518.23 602.155 518.544 602.211 518.865C602.271 519.024 602.16 519.037 602.058 519.049C602.036 519.052 602.014 519.055 601.994 519.059L601.578 519.136L601.578 519.136C600.857 519.271 600.136 519.405 599.411 519.52C599.11 519.565 599.053 519.668 599.11 519.963C599.464 521.878 599.813 523.795 600.162 525.711L600.162 525.712C600.352 526.751 600.541 527.79 600.731 528.828C600.777 529.073 600.737 529.175 600.475 529.215C599.758 529.323 599.041 529.46 598.33 529.602C598.12 529.642 598.028 529.631 597.983 529.375C597.681 527.668 597.371 525.961 597.061 524.254C596.829 522.974 596.596 521.693 596.367 520.413C596.322 520.151 596.242 520.1 595.986 520.151C595.517 520.246 595.049 520.33 594.58 520.413L594.58 520.413C594.178 520.485 593.776 520.556 593.374 520.635C593.175 520.675 593.095 520.652 593.061 520.436C592.964 519.821 592.862 519.207 592.731 518.598C592.691 518.376 592.737 518.308 592.947 518.268ZM571.383 533.972C568.913 533.426 567.497 531.793 567.013 529.318C566.768 528.072 566.74 526.842 567.235 525.648C567.895 524.066 569.113 523.053 570.637 522.37C572.219 521.659 573.903 521.403 575.337 521.346C577.243 521.335 578.717 521.727 579.906 522.894C579.956 522.943 580.012 522.993 580.068 523.044C580.259 523.214 580.458 523.392 580.458 523.594C580.458 523.74 580.257 523.842 580.057 523.945L580.056 523.945C579.969 523.99 579.881 524.034 579.81 524.083C579.445 524.333 579.076 524.578 578.707 524.824C578.522 524.946 578.338 525.069 578.154 525.192L578.128 525.209C578.043 525.267 577.967 525.317 577.864 525.192C576.936 524.094 575.707 523.878 574.364 524.026C573.744 524.094 573.135 524.214 572.544 524.413C570.467 525.113 569.636 526.569 570.091 528.714C570.125 528.879 570.159 529.044 570.211 529.209C570.655 530.717 571.713 531.537 573.363 531.605C574.529 531.656 575.656 531.434 576.726 530.968C577.573 530.598 578.188 529.972 578.518 529.101C578.598 528.897 578.694 528.862 578.893 528.908C579.701 529.107 580.515 529.301 581.329 529.471C581.585 529.528 581.602 529.625 581.528 529.847C581.112 531.047 580.401 532.043 579.292 532.663C576.817 534.046 574.171 534.592 571.383 533.972ZM590.074 543.724C589.824 545.46 588.868 546.615 587.212 547.172C586.194 547.52 585.147 547.69 584.066 547.554C582.859 547.4 581.938 546.803 581.26 545.795C580.982 545.38 580.754 544.936 580.595 544.47C580.077 542.962 579.821 541.403 579.741 539.815C579.736 539.292 579.787 538.78 579.912 538.273C580.236 536.948 581.039 536.026 582.29 535.497C583.275 535.081 584.31 534.882 585.38 534.928C587.03 534.996 588.202 535.815 588.947 537.272C589.477 538.302 589.704 539.411 589.903 540.538C590.091 541.602 590.228 542.655 590.074 543.724ZM590.603 530.74C590.478 529.906 590.348 529.072 590.218 528.237C590.153 527.82 590.087 527.402 590.023 526.985C589.932 526.405 589.84 525.826 589.748 525.246L589.748 525.245C589.627 524.481 589.505 523.715 589.386 522.945C589.261 522.979 589.25 523.069 589.24 523.152C589.236 523.179 589.233 523.206 589.226 523.229C588.452 525.943 587.684 528.663 586.922 531.383C586.871 531.559 586.825 531.696 586.598 531.736C585.721 531.878 584.851 532.037 583.98 532.208C583.764 532.248 583.718 532.185 583.679 531.986C582.996 528.197 582.307 524.413 581.613 520.623C581.573 520.413 581.608 520.322 581.829 520.288C582.534 520.168 583.239 520.038 583.944 519.907L583.946 519.907C584.151 519.867 584.231 519.901 584.27 520.134C584.56 522.032 584.86 523.93 585.16 525.828L585.16 525.828C585.26 526.462 585.36 527.096 585.46 527.73C585.461 527.741 585.463 527.752 585.464 527.762C585.47 527.816 585.477 527.872 585.562 527.924C585.777 527.17 585.988 526.423 586.199 525.678L586.2 525.675C586.374 525.06 586.548 524.447 586.723 523.833C586.845 523.401 586.967 522.969 587.09 522.537L587.091 522.534L587.091 522.533C587.385 521.496 587.68 520.458 587.969 519.423C588.02 519.235 588.094 519.15 588.293 519.116C589.158 518.973 590.017 518.814 590.876 518.638C591.144 518.581 591.166 518.712 591.201 518.911C591.57 520.969 591.944 523.024 592.318 525.081L592.492 526.04L592.492 526.041L592.492 526.041C592.737 527.401 592.982 528.76 593.238 530.114C593.295 530.404 593.266 530.535 592.925 530.581C592.248 530.666 591.57 530.803 590.905 530.945C590.694 530.996 590.632 530.939 590.603 530.74ZM602.546 543.85C601.778 544.327 600.913 544.515 600.037 544.675L598.878 544.883C596.99 545.222 595.105 545.561 593.221 545.915C592.97 545.96 592.919 545.887 592.879 545.67C592.202 541.892 591.519 538.114 590.825 534.336C590.78 534.08 590.859 534.035 591.07 534C593.687 533.528 596.299 533.056 598.916 532.578C599.229 532.521 599.542 532.465 599.855 532.409C600.509 532.292 601.162 532.176 601.812 532.049C601.983 532.015 602.051 532.032 602.08 532.225C602.182 532.867 602.307 533.509 602.432 534.151L602.432 534.151L602.432 534.154C602.472 534.359 602.387 534.399 602.211 534.433C600.945 534.66 599.679 534.891 598.413 535.121L598.413 535.121L598.412 535.121C597.146 535.352 595.88 535.582 594.615 535.81L594.595 535.813C594.057 535.912 594.052 535.913 594.148 536.464C594.192 536.714 594.238 536.963 594.284 537.212V537.212C594.351 537.575 594.417 537.937 594.478 538.302C594.518 538.518 594.563 538.615 594.836 538.564C596.464 538.256 598.091 537.961 599.73 537.693C600.498 537.568 601.272 537.591 602.017 537.858C603.195 538.285 603.752 539.201 603.974 540.379C604.026 540.64 604.06 540.902 604.048 541.084C604.054 542.342 603.542 543.229 602.546 543.85ZM615.644 541.841C614.944 541.949 614.25 542.08 613.556 542.217C613.329 542.262 613.255 542.217 613.215 541.972C612.828 539.44 612.424 536.908 612.02 534.376C612.016 534.348 612.009 534.32 612.001 534.291C611.995 534.273 611.99 534.254 611.986 534.234C611.974 534.234 611.961 534.232 611.95 534.231L611.95 534.23C611.94 534.229 611.931 534.228 611.923 534.228L611.923 534.229L611.923 534.229C611.889 534.331 611.855 534.433 611.826 534.541C611.649 535.169 611.471 535.796 611.294 536.424L611.293 536.426C610.707 538.495 610.121 540.565 609.545 542.638C609.477 542.871 609.38 542.985 609.135 543.025C608.304 543.161 607.474 543.315 606.643 543.474C606.427 543.514 606.336 543.48 606.29 543.229C605.758 540.26 605.215 537.29 604.673 534.324L604.673 534.322C604.525 533.515 604.378 532.708 604.23 531.901C604.196 531.73 604.191 531.605 604.424 531.565C605.129 531.451 605.835 531.32 606.541 531.184C606.757 531.144 606.853 531.172 606.888 531.429C607.145 533.123 607.413 534.818 607.681 536.513C607.816 537.362 607.95 538.21 608.083 539.059C608.084 539.066 608.086 539.074 608.088 539.082C608.09 539.088 608.092 539.094 608.093 539.1C608.099 539.118 608.105 539.139 608.111 539.167C608.214 539.122 608.232 539.031 608.249 538.948C608.254 538.925 608.259 538.903 608.265 538.882C608.442 538.254 608.62 537.626 608.798 536.998C609.384 534.929 609.97 532.859 610.546 530.786C610.62 530.524 610.74 530.416 611.001 530.37C611.815 530.239 612.622 530.086 613.429 529.932L613.429 529.932L613.431 529.932C613.647 529.892 613.761 529.904 613.807 530.177C614.381 533.396 614.967 536.609 615.552 539.822L615.553 539.823L615.553 539.827C615.575 539.948 615.597 540.069 615.619 540.189C615.698 540.63 615.777 541.067 615.866 541.505C615.923 541.716 615.872 541.807 615.644 541.841ZM600.083 539.997C600.703 539.992 601.078 540.305 601.175 540.908C601.277 541.545 601.038 541.989 600.418 542.137C599.818 542.282 599.21 542.393 598.601 542.503C598.349 542.549 598.098 542.595 597.846 542.643C597.515 542.706 597.182 542.764 596.849 542.822L596.849 542.822C596.423 542.896 595.998 542.97 595.576 543.053C595.394 543.087 595.337 543.036 595.309 542.871C595.206 542.279 595.098 541.687 594.984 541.096C594.956 540.965 594.973 540.885 595.132 540.857C595.932 540.714 596.73 540.571 597.528 540.427C598.326 540.283 599.124 540.14 599.923 539.997C599.958 539.994 599.994 539.995 600.031 539.996C600.048 539.997 600.066 539.997 600.083 539.997ZM584.367 537.34C585.38 537.21 585.994 537.54 586.438 538.467C586.804 539.215 586.943 540.028 587.082 540.838L587.093 540.902C587.218 541.574 587.332 542.251 587.349 543.013C587.366 543.201 587.326 543.468 587.275 543.724C587.104 544.572 586.535 545.05 585.551 545.187C584.452 545.34 583.821 544.982 583.371 543.946C583.036 543.167 582.895 542.334 582.753 541.504C582.726 541.347 582.7 541.19 582.671 541.033C582.569 540.481 582.518 539.929 582.535 539.366C582.575 538.148 583.167 537.494 584.367 537.34Z" fill="#45F4FF"/>
<path d="M434.87 272.114C421.337 272.114 410.365 283.086 410.365 296.619C410.365 310.157 421.337 321.124 434.87 321.124C448.403 321.124 459.375 310.152 459.375 296.619C459.375 283.086 448.403 272.114 434.87 272.114ZM451.711 297.622C449.128 298.471 445.429 300.205 442.2 303.671C438.739 307.382 436.802 311.007 435.782 313.426C435.374 314.394 434.003 314.4 433.59 313.437C432.372 310.616 430.31 306.396 427.846 303.671C425.07 300.59 420.799 298.584 418.012 297.514C417.129 297.174 417.117 295.933 417.995 295.588C420.969 294.421 425.597 292.28 428.101 289.493C430.678 286.632 432.757 282.293 433.873 279.682C434.207 278.894 435.323 278.883 435.674 279.665C436.864 282.299 439.147 286.763 442.189 289.923C444.925 292.761 448.952 294.676 451.756 295.758C452.634 296.092 452.595 297.333 451.711 297.622Z" fill="#45F4FF"/>
<path d="M580.662 553.482C582.488 555.718 584.013 557.601 583.541 558.597C582.391 561.049 579.023 556.77 577.373 554.631C576.514 553.51 575.655 552.389 574.858 551.24C576.878 554.261 578.904 557.294 580.929 560.309C581.185 560.696 581.458 561.123 581.436 561.59C581.401 562.375 580.519 562.898 579.74 562.841C578.96 562.779 578.283 562.301 577.669 561.817C575.194 559.866 572.986 557.817 571.211 555.388C570.471 554.176 569.731 552.93 568.997 551.632C569.623 552.992 570.374 554.227 571.211 555.388C573.06 558.398 574.921 561.26 576.73 564.469C577.174 565.254 577.458 566.534 576.599 566.824C576.189 566.961 575.763 566.75 575.393 566.534C570.192 563.473 566.568 558.358 563.296 553.288L562.824 553.282C562.824 553.669 562.818 554.045 562.796 554.42C562.773 554.796 562.397 555.593 560.81 555.228C559.478 554.921 558.818 552.873 558.118 551.223C556.736 547.957 555.825 544.503 555.421 540.987L555.268 540.64C555.057 540.213 554.961 539.769 554.955 539.308C554.938 537.954 555.734 536.537 556.582 535.394C558.278 533.1 560.787 530.87 563.501 530.876C563.888 530.876 564.281 530.921 564.679 531.024C567.313 531.695 568.804 534.375 570.164 536.725C573.384 542.29 577.498 547.337 582.289 551.615C582.869 552.133 583.512 552.77 583.438 553.544C583.359 554.324 582.312 555.029 580.673 553.487L580.662 553.482Z" fill="#F49B73"/>
<path d="M560.087 526.483C561.584 526.751 564.053 529.487 563.507 530.58L563.501 530.87C560.787 530.864 558.278 533.095 556.582 535.388C555.734 536.531 554.938 537.948 554.955 539.302C553.549 539.041 552.582 538.187 552.064 537.231C551.695 536.549 551.552 535.803 551.643 535.172C551.774 534.301 552.212 533.504 552.662 532.748C553.601 531.172 554.648 529.664 555.791 528.224C556.713 527.052 558.084 526.352 559.535 526.426C559.717 526.421 559.899 526.455 560.087 526.483Z" fill="#2979E1"/>
<path d="M556.019 517.903C558.261 520.617 560.138 522.87 559.541 526.341L559.535 526.421C558.079 526.347 556.713 527.046 555.791 528.219C554.648 529.658 553.601 531.166 552.662 532.742C552.212 533.499 551.774 534.29 551.643 535.166C551.558 535.797 551.695 536.543 552.065 537.226L551.928 537.3C548.349 540.406 532.514 527.297 525.413 516.099C525.413 516.099 517.766 499.718 527.871 496.714C537.976 493.709 542.079 501.066 542.079 501.066C546.722 506.682 551.37 512.298 556.019 517.903Z" fill="#2979E1"/>
<path d="M551.928 537.3C548.349 540.406 532.514 527.297 525.413 516.105C525.413 516.105 517.766 499.724 527.871 496.719C537.976 493.715 542.079 501.072 542.079 501.072C546.727 506.688 551.376 512.304 556.025 517.914C558.266 520.628 560.144 522.881 559.547 526.352" stroke="#2251B4" stroke-width="1.814" stroke-miterlimit="10" stroke-linecap="round" stroke-linejoin="round"/>
<path d="M555.04 539.314C555.012 539.308 554.983 539.308 554.955 539.302C553.549 539.041 552.582 538.187 552.064 537.231C551.695 536.548 551.552 535.803 551.643 535.171C551.774 534.301 552.212 533.504 552.662 532.748C553.601 531.171 554.648 529.664 555.791 528.224C556.713 527.052 558.084 526.352 559.535 526.426C559.717 526.426 559.899 526.455 560.087 526.483C561.584 526.75 564.053 529.487 563.507 530.58" stroke="#2251B4" stroke-width="1.814" stroke-miterlimit="10" stroke-linecap="round" stroke-linejoin="round"/>
<path d="M555.262 540.628C555.052 540.201 554.955 539.758 554.949 539.297C554.932 537.942 555.729 536.526 556.577 535.382C558.272 533.089 560.781 530.859 563.495 530.864C563.882 530.864 564.275 530.91 564.673 531.012C567.308 531.684 568.798 534.364 570.158 536.713C573.379 542.278 577.493 547.325 582.283 551.604C582.864 552.122 583.507 552.759 583.433 553.533C583.353 554.312 582.306 555.018 580.667 553.476" stroke="#2251B4" stroke-width="1.814" stroke-miterlimit="10" stroke-linecap="round" stroke-linejoin="round"/>
<path d="M555.416 540.981C555.825 544.497 556.73 547.951 558.113 551.217C558.813 552.867 559.473 554.921 560.804 555.223C562.392 555.587 562.767 554.796 562.79 554.415C562.813 554.045 562.818 553.664 562.818 553.277C562.824 548.839 561.692 543.507 564.901 541.908" stroke="#2251B4" stroke-width="1.814" stroke-miterlimit="10" stroke-linecap="round" stroke-linejoin="round"/>
<path d="M574.067 550.073C574.323 550.466 574.585 550.859 574.852 551.245C575.655 552.395 576.508 553.516 577.367 554.637C579.017 556.776 582.386 561.055 583.535 558.602C584.007 557.607 582.482 555.723 580.656 553.487C579.302 551.837 577.783 549.988 576.781 548.156" stroke="#2251B4" stroke-width="1.814" stroke-miterlimit="10" stroke-linecap="round" stroke-linejoin="round"/>
<path d="M571.211 555.388C572.986 557.817 575.2 559.871 577.669 561.817C578.289 562.306 578.966 562.779 579.74 562.841C580.52 562.898 581.396 562.375 581.436 561.59C581.458 561.123 581.18 560.696 580.924 560.309C578.892 557.288 576.872 554.255 574.847 551.24" stroke="#2251B4" stroke-width="1.814" stroke-miterlimit="10" stroke-linecap="round" stroke-linejoin="round"/>
<path d="M571.211 555.388C570.471 554.176 569.732 552.93 568.998 551.632C569.623 552.998 570.375 554.233 571.211 555.388Z" stroke="#2251B4" stroke-width="1.814" stroke-miterlimit="10" stroke-linecap="round" stroke-linejoin="round"/>
<path d="M563.296 553.288C566.568 558.358 570.193 563.473 575.393 566.534C575.763 566.75 576.195 566.961 576.599 566.824C577.458 566.534 577.174 565.254 576.73 564.469C574.921 561.26 573.055 558.403 571.211 555.388" stroke="#2251B4" stroke-width="1.814" stroke-miterlimit="10" stroke-linecap="round" stroke-linejoin="round"/>
<path d="M782.305 585.976C782.305 585.976 781.372 604.053 772.883 617.111C756.906 641.686 736.018 638.613 736.018 638.613C695.466 643.529 678.26 647.216 653.475 639.495C648.167 637.845 642.983 635.649 638.391 632.502C637.014 631.564 635.706 630.545 634.448 629.475L634.664 629.214C635.996 630.391 642.96 635.615 656.138 629.396C670.881 622.437 667.199 600.315 667.199 600.315C667.199 600.315 679.08 610.557 701.202 611.37C707.199 611.598 712.143 610.221 716.161 608.099C726.971 602.403 731.102 591.302 731.102 591.302C731.102 591.302 733.976 603.586 754.044 604.412C774.118 605.231 782.305 585.976 782.305 585.976Z" fill="#85B71B"/>
<path d="M634.67 629.214L634.454 629.475C628.895 624.702 624.394 618.704 620.275 612.599C615.08 604.895 610.346 596.907 605.874 588.77C604.212 585.771 602.602 582.762 601.009 579.729C598.09 574.198 595.245 568.628 592.406 563.063C590.113 558.574 587.774 553.897 587.16 548.947C587.063 548.156 587.006 547.353 587.006 546.545C586.989 540.696 590.608 534.392 596.377 533.413C596.377 533.413 605.771 526.58 629.117 546.654C652.462 566.722 676.633 589.663 691.785 598.266C691.785 598.266 707.352 606.87 715.956 607.695L716.166 608.104C712.149 610.227 707.204 611.603 701.207 611.376C679.085 610.562 667.21 600.32 667.21 600.32C667.21 600.32 670.892 622.443 656.149 629.401C642.96 635.62 636.001 630.397 634.67 629.214Z" fill="#A3DF21"/>
<path d="M566.363 586.773C567.934 581.174 569.123 575.439 570.676 569.834C571.365 567.348 572.184 564.799 573.868 562.853C575.564 560.901 578.357 559.683 580.787 560.554L581.874 560.525C581.891 560.759 581.908 560.992 581.936 561.225C582.505 565.817 585.726 569.584 588.804 573.038C590.403 574.836 592.036 576.651 594.027 577.999C596.019 579.353 598.465 580.195 600.844 579.826L601.003 579.74C602.596 582.773 604.212 585.783 605.868 588.781L604.332 589.635C602.323 600.485 599.216 611.131 595.074 621.356C593.145 626.107 590.875 630.926 586.978 634.255C579.956 640.241 569.117 639.82 560.963 635.512C552.81 631.211 546.83 623.763 541.493 616.241C527.86 597.02 516.839 575.951 508.833 553.794C502.033 554.716 494.932 555.996 488.611 557.533L488.173 557.641C484.833 574.028 480.571 590.227 475.422 606.147C472.634 614.722 469.499 623.393 463.877 630.443L463.337 630.551C461.374 620.656 459.553 610.744 457.988 600.787C456.998 594.517 456.048 588.059 452.856 582.568C451.229 579.78 448.6 577.692 445.567 576.264L445.675 576.025C452.651 566.858 455.439 554.215 458.745 543.188C462.045 532.156 467.132 520.668 477.129 514.95C481.971 512.184 487.558 511.041 493.072 510.176C499.365 509.186 505.709 508.503 512.07 508.139C520.326 507.661 538.238 513.26 538.955 535.052C543.729 545.43 548.486 555.814 553.248 566.193C556.673 573.629 560.298 581.339 566.363 586.773Z" fill="#2979E1"/>
<path d="M601.003 579.729L600.844 579.814C598.465 580.184 596.019 579.342 594.027 577.988C592.036 576.639 590.403 574.824 588.804 573.026C585.726 569.572 582.505 565.806 581.936 561.214C581.908 560.981 581.885 560.747 581.874 560.514C581.618 556.247 583.757 552.031 586.801 548.992L587.16 548.941C587.769 553.897 590.113 558.574 592.406 563.058C595.245 568.628 598.084 574.204 601.003 579.729Z" fill="#2979E1"/>
<path d="M436.702 573.908C439.689 574.17 442.796 574.932 445.567 576.241C448.6 577.675 451.228 579.763 452.856 582.545C456.048 588.036 457.004 594.494 457.994 600.764C459.558 610.722 461.379 620.639 463.342 630.528C472.799 678.3 485.624 725.498 490.272 773.953C483.712 768.877 476.736 763.887 468.64 762.084C460.958 760.377 452.844 761.697 445.487 764.479C438.119 767.256 431.377 771.432 424.691 775.586L424.617 775.671C416.896 769.327 408.395 763.506 398.677 761.23C382.29 757.406 365.471 764.138 350.091 770.96L350.04 770.948C371.536 713.105 392.577 655.085 413.152 596.907C415.183 591.154 417.288 585.259 421.197 580.577C425.112 575.894 429.664 572.895 436.714 573.857L436.702 573.908Z" fill="#85B71B"/>
<path d="M436.167 573.868C436.344 573.885 436.515 573.897 436.697 573.914C439.684 574.176 442.79 574.938 445.561 576.247C448.594 577.681 451.223 579.769 452.85 582.551C456.042 588.042 456.998 594.5 457.988 600.77C459.553 610.727 461.374 620.645 463.337 630.534C472.793 678.306 485.618 725.503 490.267 773.958C483.706 768.883 476.731 763.893 468.634 762.089C460.953 760.382 452.839 761.702 445.482 764.485C438.113 767.261 431.371 771.438 424.685 775.591" stroke="#2251B4" stroke-width="1.814" stroke-miterlimit="10" stroke-linecap="round" stroke-linejoin="round"/>
<path d="M424.902 775.916C424.805 775.836 424.702 775.756 424.611 775.682C416.896 769.338 408.39 763.518 398.671 761.242C382.284 757.412 365.465 764.149 350.085 770.971" stroke="#2251B4" stroke-width="1.814" stroke-miterlimit="10" stroke-linecap="round" stroke-linejoin="round"/>
<path d="M436.708 573.868C429.658 572.907 425.106 575.905 421.192 580.588C417.288 585.271 415.178 591.165 413.146 596.918C392.577 655.097 371.53 713.117 350.034 770.96C350.017 771 350.011 771.022 350 771.062" stroke="#2251B4" stroke-width="1.814" stroke-miterlimit="10" stroke-linecap="round" stroke-linejoin="round"/>
<path d="M422.273 616.639C428.406 619.774 435.553 620.889 442.352 619.757" stroke="#2251B4" stroke-width="1.814" stroke-miterlimit="10" stroke-linecap="round" stroke-linejoin="round"/>
<path d="M403.007 736.94C416.014 736.058 429.186 737.782 441.522 741.981" stroke="#2251B4" stroke-width="1.814" stroke-miterlimit="10" stroke-linecap="round" stroke-linejoin="round"/>
<path d="M416.919 731.802C420.742 731.666 424.589 731.802 428.389 732.212" stroke="#2251B4" stroke-width="1.814" stroke-miterlimit="10" stroke-linecap="round" stroke-linejoin="round"/>
<path d="M445.675 576.008C452.651 566.841 455.439 554.198 458.745 543.171C462.045 532.139 467.132 520.651 477.123 514.933C481.971 512.167 487.553 511.029 493.072 510.159C499.365 509.169 505.709 508.486 512.07 508.122C520.326 507.644 538.238 513.243 538.955 535.035C538.978 535.484 538.984 535.945 538.984 536.412" stroke="#2251B4" stroke-width="1.814" stroke-miterlimit="10" stroke-linecap="round" stroke-linejoin="round"/>
<path d="M538.716 534.489C538.796 534.671 538.881 534.853 538.961 535.035C543.735 545.413 548.491 555.797 553.254 566.176C556.673 573.624 560.298 581.333 566.363 586.767C566.756 587.114 567.154 587.456 567.564 587.786" stroke="#2251B4" stroke-width="1.814" stroke-miterlimit="10" stroke-linecap="round" stroke-linejoin="round"/>
<path d="M508.759 553.584C508.782 553.652 508.81 553.715 508.833 553.783C516.838 575.939 527.86 597.015 541.493 616.229C546.83 623.752 552.81 631.2 560.963 635.501C569.117 639.808 579.956 640.229 586.977 634.244C590.875 630.921 593.145 626.096 595.074 621.345C599.222 611.114 602.329 600.474 604.337 589.624" stroke="#2251B4" stroke-width="1.814" stroke-miterlimit="10" stroke-linecap="round" stroke-linejoin="round"/>
<path d="M555.473 605.481C559.296 603.774 561.606 599.831 563.228 595.968C564.485 592.969 565.481 589.891 566.363 586.773C567.933 581.174 569.117 575.439 570.676 569.834C571.364 567.348 572.184 564.799 573.868 562.853C575.564 560.901 578.357 559.684 580.787 560.554" stroke="#2251B4" stroke-width="1.814" stroke-miterlimit="10" stroke-linecap="round" stroke-linejoin="round"/>
<path d="M463.877 630.431C469.499 623.382 472.634 614.71 475.422 606.136C480.571 590.221 484.833 574.022 488.173 557.629" stroke="#2251B4" stroke-width="1.814" stroke-miterlimit="10" stroke-linecap="round" stroke-linejoin="round"/>
<path d="M488.611 557.521C494.933 555.985 502.033 554.705 508.833 553.783C511.149 553.464 513.425 553.191 515.621 552.969" stroke="#2251B4" stroke-width="1.814" stroke-miterlimit="10" stroke-linecap="round" stroke-linejoin="round"/>
<path d="M634.437 628.992C634.437 628.992 634.516 629.071 634.67 629.219C636.001 630.397 642.96 635.62 656.144 629.401C670.886 622.443 667.21 600.321 667.21 600.321C667.21 600.321 679.091 610.562 701.213 611.376C707.204 611.604 712.155 610.227 716.166 608.104C726.977 602.409 731.108 591.308 731.108 591.308C731.108 591.308 733.981 603.592 754.049 604.417C774.117 605.237 782.311 585.982 782.311 585.982C782.311 585.982 781.378 604.059 772.888 617.117C756.911 641.692 736.024 638.619 736.024 638.619C695.472 643.535 678.266 647.222 653.481 639.501C648.172 637.851 642.989 635.655 638.397 632.508C637.02 631.569 635.711 630.551 634.454 629.481C628.895 624.707 624.394 618.71 620.275 612.605C615.08 604.901 610.346 596.912 605.874 588.776C604.212 585.777 602.602 582.767 601.009 579.735C598.09 574.204 595.245 568.634 592.406 563.069C590.113 558.58 587.774 553.903 587.16 548.952C587.063 548.161 587.006 547.359 587.006 546.551C586.989 540.702 590.608 534.398 596.377 533.419C596.377 533.419 605.765 526.591 629.117 546.659C652.457 566.727 676.633 589.669 691.785 598.272C691.785 598.272 707.352 606.875 715.956 607.7" stroke="#2251B4" stroke-width="1.814" stroke-miterlimit="10" stroke-linecap="round" stroke-linejoin="round"/>
<path d="M586.795 548.998C583.751 552.036 581.618 556.252 581.868 560.52C581.885 560.753 581.902 560.986 581.931 561.22C582.5 565.811 585.72 569.578 588.798 573.032C590.397 574.83 592.03 576.645 594.022 577.993C596.013 579.348 598.46 580.19 600.838 579.82" stroke="#2251B4" stroke-width="1.814" stroke-miterlimit="10" stroke-linecap="round" stroke-linejoin="round"/>
<path d="M612.497 566.397C618.864 565.988 625.037 563.046 629.344 558.346" stroke="#2251B4" stroke-width="1.814" stroke-miterlimit="10" stroke-linecap="round" stroke-linejoin="round"/>
<path d="M617.452 568.019C621.469 566.978 625.242 565.009 628.394 562.301" stroke="#2251B4" stroke-width="1.814" stroke-miterlimit="10" stroke-linecap="round" stroke-linejoin="round"/>
<path d="M424.048 613.714C427.217 615.302 430.791 616.07 434.335 615.951" stroke="#2251B4" stroke-width="1.814" stroke-miterlimit="10" stroke-linecap="round" stroke-linejoin="round"/>
<path d="M450.42 490.051C453.982 484.589 457.51 479.098 461.578 474.017C464.11 470.859 467.541 467.604 471.524 468.025C473.032 478.039 472.804 488.406 470.016 498.148C467.223 507.889 461.783 516.987 453.943 523.411C451.388 525.499 448.537 527.331 445.339 528.139C442.136 528.947 438.546 528.617 435.854 526.705C432.304 524.179 431.007 519.502 430.705 515.16C430.028 505.448 433.027 495.906 435.985 486.637C436.145 486.119 436.321 485.601 436.56 485.123C436.708 484.839 436.879 484.566 437.089 484.321C437.647 483.672 438.455 483.28 439.28 483.035C439.428 482.99 439.57 482.956 439.718 482.916C442.227 482.324 444.935 483.121 446.95 484.742C447.291 485.01 447.61 485.311 447.911 485.63C448.987 486.773 449.749 488.196 449.999 489.761L450.42 490.051Z" fill="#2979E1"/>
<path d="M454.609 461.658C456.14 466.643 455.218 472.31 451.736 474.768L451.264 475.035C450.979 474.523 450.638 474.045 450.239 473.607L450.097 473.539C450.569 473.072 450.04 472.304 449.494 471.929C448.794 471.456 448.032 471.086 447.229 470.836L447.389 470.381C447.537 469.123 447.303 465.34 443.52 465.027C439.264 464.68 438.393 468.298 438.348 469.072C438.274 470.29 438.211 471.502 438.143 472.708L438.37 472.913C437.767 473.493 437.244 474.165 436.828 474.893L436.589 474.762C431.673 472.714 430.092 467.394 431.133 462.284C432.18 457.18 436.771 454.091 441.915 453.254C447.053 452.418 452.965 456.333 454.609 461.658Z" fill="#85B71B"/>
<path d="M451.263 475.035C452.127 476.606 452.44 478.483 452.099 480.253C451.638 482.563 450.034 484.623 447.9 485.635C447.598 485.317 447.28 485.015 446.938 484.748L447.086 484.56C447.61 483.775 447.928 482.785 447.729 481.874L447.758 481.869C447.644 479.502 447.519 477.135 447.399 474.768L447.291 474.25C448.025 474.096 448.753 473.943 449.482 473.789C449.698 473.744 449.931 473.692 450.09 473.544L450.238 473.607C450.637 474.045 450.984 474.523 451.263 475.035Z" fill="#F49B73"/>
<path d="M439.968 476.782L440.002 476.805C439.775 478.165 439.61 479.53 439.49 480.907L439.667 481.004C439.359 481.561 439.325 482.278 439.672 482.796L439.707 482.927C439.559 482.961 439.416 483.001 439.268 483.047C438.449 483.297 437.641 483.689 437.078 484.332C436.867 484.571 436.691 484.85 436.549 485.135L436.179 485.027C435.371 481.755 435.115 478.13 436.685 475.149C436.731 475.069 436.771 474.99 436.816 474.91C437.231 474.182 437.755 473.516 438.358 472.93C439.473 471.855 440.862 471.058 442.369 470.688C443.963 470.29 445.658 470.358 447.223 470.853C448.025 471.103 448.788 471.473 449.487 471.946C450.034 472.315 450.563 473.089 450.091 473.556C449.931 473.709 449.698 473.761 449.482 473.8C448.753 473.954 448.025 474.108 447.291 474.261C445.852 474.557 444.412 474.859 442.972 475.155C441.817 475.382 440.492 475.775 439.968 476.782Z" fill="#F49B73"/>
<path d="M447.399 474.768C447.513 477.129 447.638 479.502 447.758 481.869L447.729 481.875C447.712 481.778 447.684 481.687 447.655 481.59C447.479 481.072 447.132 480.623 446.716 480.259C445.288 479.03 443.12 478.921 441.385 479.638C440.742 479.894 440.133 480.27 439.758 480.845C439.729 480.896 439.695 480.947 439.672 480.998L439.496 480.902C439.615 479.525 439.78 478.159 440.008 476.799L439.974 476.776C440.497 475.775 441.823 475.382 442.978 475.138C444.418 474.842 445.857 474.54 447.297 474.244L447.399 474.768Z" fill="#85B71B"/>
<path d="M447.729 481.874C447.934 482.785 447.61 483.775 447.086 484.56L446.938 484.748C444.924 483.126 442.216 482.335 439.707 482.921L439.672 482.791C439.325 482.273 439.359 481.562 439.667 481.004C439.689 480.953 439.724 480.902 439.752 480.85C440.133 480.276 440.742 479.9 441.379 479.644C443.12 478.921 445.283 479.035 446.711 480.264C447.126 480.628 447.473 481.078 447.65 481.596C447.684 481.681 447.718 481.778 447.729 481.874Z" fill="#85B71B"/>
<path d="M443.519 465.032C447.303 465.345 447.536 469.129 447.388 470.387L447.229 470.847C445.664 470.352 443.968 470.278 442.375 470.682C440.867 471.052 439.479 471.849 438.369 472.924L438.142 472.719C438.21 471.513 438.273 470.296 438.347 469.084C438.387 468.304 439.263 464.685 443.519 465.032Z" fill="#85B71B"/>
<path d="M471.769 468.054C471.684 468.042 471.604 468.031 471.519 468.025C467.541 467.604 464.105 470.865 461.573 474.017C457.505 479.092 453.977 484.589 450.415 490.051C446.057 496.719 441.641 503.342 436.128 509.066" stroke="#2251B4" stroke-width="1.814" stroke-miterlimit="10" stroke-linecap="round" stroke-linejoin="round"/>
<path d="M471.524 468.002V468.025C473.032 478.039 472.804 488.406 470.016 498.147C467.223 507.888 461.783 516.987 453.943 523.41C451.388 525.499 448.537 527.331 445.339 528.139C442.136 528.947 438.546 528.617 435.854 526.705C432.304 524.179 431.007 519.501 430.705 515.16C430.028 505.448 433.027 495.906 435.985 486.637C436.145 486.119 436.321 485.601 436.56 485.123C436.708 484.839 436.879 484.566 437.089 484.321C437.647 483.672 438.455 483.28 439.28 483.035C439.428 482.99 439.57 482.955 439.718 482.916C442.227 482.324 444.935 483.12 446.95 484.742C447.291 485.009 447.61 485.311 447.911 485.63C448.987 486.773 449.749 488.196 449.999 489.761" stroke="#2251B4" stroke-width="1.814" stroke-miterlimit="10" stroke-linecap="round" stroke-linejoin="round"/>
<path d="M436.185 485.015C435.377 481.744 435.121 478.119 436.691 475.138C436.737 475.058 436.776 474.978 436.822 474.899C437.237 474.17 437.761 473.505 438.364 472.919C439.479 471.843 440.867 471.047 442.37 470.677C443.963 470.278 445.658 470.347 447.223 470.842C448.025 471.092 448.788 471.462 449.488 471.934C450.034 472.304 450.563 473.078 450.091 473.544C449.931 473.698 449.698 473.749 449.482 473.789C448.754 473.943 448.025 474.096 447.291 474.25C445.852 474.546 444.412 474.847 442.973 475.143C441.818 475.382 440.492 475.775 439.968 476.782C439.917 476.879 439.872 476.975 439.838 477.089" stroke="#2251B4" stroke-width="1.814" stroke-miterlimit="10" stroke-linecap="round" stroke-linejoin="round"/>
<path d="M439.496 480.907C439.61 479.53 439.781 478.165 440.008 476.805" stroke="#2251B4" stroke-width="1.814" stroke-miterlimit="10" stroke-linecap="round" stroke-linejoin="round"/>
<path d="M447.092 484.554C447.615 483.769 447.934 482.779 447.735 481.869C447.718 481.772 447.689 481.681 447.661 481.584C447.484 481.066 447.137 480.617 446.722 480.253C445.294 479.024 443.126 478.916 441.391 479.633C440.748 479.889 440.139 480.264 439.763 480.839C439.735 480.89 439.701 480.941 439.678 480.993C439.371 481.55 439.337 482.267 439.684 482.785" stroke="#2251B4" stroke-width="1.814" stroke-miterlimit="10" stroke-linecap="round" stroke-linejoin="round"/>
<path d="M447.758 481.863C447.644 479.502 447.519 477.129 447.399 474.762" stroke="#2251B4" stroke-width="1.814" stroke-miterlimit="10" stroke-linecap="round" stroke-linejoin="round"/>
<path d="M438.142 472.714C438.204 471.508 438.273 470.29 438.347 469.078C438.392 468.31 439.263 464.685 443.519 465.033C447.303 465.345 447.536 469.129 447.388 470.387" stroke="#2251B4" stroke-width="1.814" stroke-miterlimit="10" stroke-linecap="round" stroke-linejoin="round"/>
<path d="M447.837 485.67C447.86 485.664 447.883 485.647 447.9 485.635C450.034 484.623 451.638 482.563 452.099 480.253C452.441 478.483 452.128 476.606 451.263 475.035C450.978 474.523 450.637 474.045 450.239 473.607" stroke="#2251B4" stroke-width="1.814" stroke-miterlimit="10" stroke-linecap="round" stroke-linejoin="round"/>
<path d="M451.735 474.768C455.217 472.31 456.133 466.643 454.608 461.658C452.964 456.333 447.052 452.418 441.908 453.266C436.765 454.102 432.173 457.186 431.126 462.29C430.085 467.399 431.667 472.714 436.583 474.768" stroke="#2251B4" stroke-width="1.814" stroke-miterlimit="10" stroke-linecap="round" stroke-linejoin="round"/>
<path d="M512.542 457.59C512.554 458.597 512.565 459.61 512.264 460.572C511.552 462.842 509.294 464.23 507.12 465.209C497.459 469.545 485.277 469.226 477.049 462.592L477.134 462.483C477.789 456.395 478.517 452.06 480.639 445.949C481.009 444.885 481.425 443.775 481.885 442.586C482.876 440.02 484.662 437.778 486.756 435.986C488.861 434.182 491.479 433.061 494.176 432.458C499.757 431.206 506.341 432.486 509.669 437.135C512.224 440.708 512.378 445.397 512.434 449.784C512.48 452.39 512.508 454.99 512.542 457.59Z" fill="#2979E1"/>
<path d="M480.588 445.92L480.645 445.943C478.523 452.054 477.794 456.39 477.14 462.478L477.055 462.586C476.941 462.501 476.821 462.404 476.708 462.307L476.81 462.142C474.887 454.899 476.52 446.501 480.588 445.92Z" fill="#85B71B"/>
<path d="M477.14 462.478C477.795 456.39 478.523 452.054 480.645 445.943C481.015 444.879 481.43 443.769 481.891 442.58C482.881 440.014 484.668 437.772 486.762 435.98C488.861 434.176 491.484 433.055 494.181 432.452C499.763 431.2 506.346 432.481 509.675 437.129C512.23 440.703 512.383 445.391 512.44 449.778C512.474 452.384 512.503 454.978 512.543 457.584C512.56 458.592 512.565 459.604 512.264 460.566C511.553 462.836 509.299 464.224 507.12 465.203C497.459 469.539 485.277 469.22 477.049 462.586C476.935 462.5 476.816 462.404 476.702 462.307" stroke="#2251B4" stroke-width="1.814" stroke-miterlimit="10" stroke-linecap="round" stroke-linejoin="round"/>
<path d="M476.805 462.142C474.881 454.899 476.52 446.495 480.588 445.92" stroke="#2251B4" stroke-width="1.814" stroke-miterlimit="10" stroke-linecap="round" stroke-linejoin="round"/>
<path d="M540.173 487.786C544.167 491.655 546.631 496.998 546.631 502.893C546.631 514.699 536.759 524.264 524.582 524.264C512.679 524.264 502.995 515.137 502.557 503.701C502.54 503.433 502.534 503.16 502.534 502.893C502.534 491.092 512.406 481.527 524.582 481.527C530.671 481.527 536.184 483.923 540.173 487.786Z" fill="#85B71B"/>
<path d="M499.092 488.298L499.257 488.287C499.257 488.287 502.529 478.045 513.999 474.762C521.709 472.56 526.671 474.546 528.708 475.707C532.264 479.371 535.974 483.183 540.44 487.49L540.161 487.78C536.173 483.917 530.659 481.522 524.571 481.522C512.395 481.522 502.523 491.086 502.523 502.887C502.523 503.155 502.529 503.428 502.546 503.695L502.358 503.701C502.284 502.244 502.051 500.827 501.698 499.462L501.829 499.428L498.364 486.836C498.807 487.621 499.041 488.167 499.092 488.298Z" fill="#A3DF21"/>
<path d="M521.203 468.85L521.624 468.435C524.03 470.865 526.335 473.249 528.708 475.707C526.671 474.546 521.709 472.56 513.999 474.762C502.528 478.045 499.257 488.287 499.257 488.287L499.092 488.304C499.041 488.173 498.807 487.627 498.369 486.842L495.968 478.108L496.179 478.051C496.179 478.051 499.285 469.397 511.746 466.58C517.265 465.328 520.463 468.099 521.203 468.85Z" fill="#2979E1"/>
<path d="M495.564 476.617L492.975 467.189C492.975 467.189 495.57 459.61 505.402 459.195C512.611 458.899 517.698 464.526 517.698 464.526C519.057 465.852 520.36 467.143 521.635 468.429L521.214 468.845C520.474 468.094 517.271 465.323 511.757 466.569C499.297 469.385 496.19 478.039 496.19 478.039L495.979 478.096L495.564 476.617Z" fill="#A3DF21"/>
<path d="M460.526 495.433C464.11 488.327 471.638 483.439 480.349 483.439C490.62 483.439 499.257 490.25 501.709 499.462C502.068 500.827 502.301 502.25 502.369 503.701C502.392 504.065 502.398 504.429 502.398 504.799C502.398 516.6 492.526 526.164 480.349 526.164C468.173 526.164 458.295 516.6 458.295 504.799C458.29 501.442 459.092 498.267 460.526 495.433Z" fill="#85B71B"/>
<path d="M498.375 486.836L501.834 499.428L501.704 499.462C499.251 490.244 490.62 483.439 480.344 483.439C471.638 483.439 464.105 488.327 460.52 495.433C461.846 492.082 464.105 486.324 466.159 481.032C466.967 480.281 473.3 474.739 483.274 475.991C492.099 477.101 496.719 483.803 498.375 486.836Z" fill="#A3DF21"/>
<path d="M495.974 478.102L498.375 486.836C496.725 483.803 492.105 477.095 483.28 475.991C473.305 474.739 466.973 480.281 466.165 481.032C467.388 477.863 468.537 474.859 469.368 472.64L469.567 472.719C469.567 472.719 476.327 467.394 484.514 469.032C491.365 470.409 494.529 474.802 495.57 476.617L495.974 478.102Z" fill="#2979E1"/>
<path d="M492.975 467.189L495.564 476.617C494.523 474.796 491.359 470.404 484.509 469.032C476.321 467.394 469.561 472.719 469.561 472.719L469.362 472.64C469.425 472.452 469.493 472.276 469.561 472.099C470.995 468.207 473.419 462.921 481.032 461.863C488.401 460.839 492.975 467.189 492.975 467.189Z" fill="#A3DF21"/>
<path d="M540.173 487.786C544.167 491.655 546.631 496.998 546.631 502.893C546.631 514.699 536.759 524.264 524.582 524.264C512.679 524.264 502.995 515.137 502.557 503.701C502.54 503.433 502.534 503.16 502.534 502.893C502.534 491.092 512.406 481.527 524.582 481.527C530.671 481.527 536.184 483.923 540.173 487.786Z" stroke="#2251B4" stroke-width="1.814" stroke-miterlimit="10" stroke-linecap="round" stroke-linejoin="round"/>
<path d="M502.363 503.707C502.386 504.071 502.392 504.435 502.392 504.805C502.392 516.605 492.52 526.17 480.344 526.17C468.167 526.17 458.29 516.605 458.29 504.805C458.29 501.442 459.092 498.267 460.52 495.433C464.105 488.327 471.638 483.439 480.344 483.439C490.614 483.439 499.251 490.25 501.703 499.462C502.062 500.833 502.295 502.25 502.363 503.707Z" stroke="#2251B4" stroke-width="1.814" stroke-miterlimit="10" stroke-linecap="round" stroke-linejoin="round"/>
<path d="M541.254 488.264C540.986 488.002 540.713 487.746 540.446 487.496C535.979 483.189 532.269 479.377 528.713 475.712C526.341 473.254 524.036 470.87 521.629 468.441C520.355 467.155 519.052 465.857 517.692 464.532C517.692 464.532 512.605 458.899 505.396 459.2C495.57 459.616 492.969 467.195 492.969 467.195C492.969 467.195 488.395 460.845 481.026 461.869C473.408 462.927 470.989 468.213 469.556 472.105C469.493 472.281 469.425 472.452 469.356 472.645C468.526 474.865 467.376 477.869 466.153 481.038C464.105 486.335 461.84 492.088 460.514 495.439C459.815 497.214 459.382 498.318 459.382 498.318" stroke="#2251B4" stroke-width="1.814" stroke-miterlimit="10" stroke-linecap="round" stroke-linejoin="round"/>
<path d="M492.975 467.189L495.564 476.617L495.974 478.102L498.369 486.836L501.834 499.428L501.92 499.752" stroke="#2251B4" stroke-width="1.814" stroke-miterlimit="10" stroke-linecap="round" stroke-linejoin="round"/>
<path d="M499.257 488.287C499.257 488.287 502.529 478.045 513.999 474.762C521.709 472.56 526.671 474.546 528.708 475.707C529.413 476.099 529.772 476.406 529.772 476.406" stroke="#2251B4" stroke-width="1.814" stroke-miterlimit="10" stroke-linecap="round" stroke-linejoin="round"/>
<path d="M496.184 478.045C496.184 478.045 499.291 469.391 511.752 466.574C517.265 465.328 520.468 468.105 521.208 468.85C521.328 468.964 521.385 469.032 521.385 469.032" stroke="#2251B4" stroke-width="1.814" stroke-miterlimit="10" stroke-linecap="round" stroke-linejoin="round"/>
<path d="M499.109 488.327C499.109 488.327 499.103 488.321 499.092 488.298C499.041 488.167 498.807 487.621 498.369 486.836C496.719 483.803 492.099 477.095 483.274 475.991C473.3 474.739 466.967 480.281 466.159 481.032C466.102 481.083 466.073 481.112 466.073 481.112" stroke="#2251B4" stroke-width="1.814" stroke-miterlimit="10" stroke-linecap="round" stroke-linejoin="round"/>
<path d="M495.979 477.425C495.979 477.425 495.854 477.118 495.564 476.617C494.523 474.796 491.359 470.404 484.509 469.033C476.315 467.394 469.561 472.72 469.561 472.72" stroke="#2251B4" stroke-width="1.814" stroke-miterlimit="10" stroke-linecap="round" stroke-linejoin="round"/>
<path d="M488.839 435.713C485.061 438.097 482.352 442.222 481.977 446.671L481.709 447.747C481.539 447.758 481.749 448.077 481.829 447.929C483.877 444.071 487.786 441.351 492.036 440.344C496.287 439.331 500.833 439.94 504.867 441.624C506.17 442.165 507.439 442.831 508.457 443.804C510.352 445.613 511.171 448.338 511.137 450.961C511.644 446.671 511.137 443.804 510.221 440.344C509.561 438.842 509.032 437.556 507.843 436.424C506.307 434.961 503.814 434.006 501.738 433.567C500.497 433.311 499.228 433.181 497.96 433.181C494.745 433.169 491.541 434.006 488.839 435.713Z" fill="url(#paint1_radial)"/>
<path d="M437.96 484.122C435.115 488.674 431.866 502.91 431.257 509.146C430.893 512.884 431.183 518.227 432.754 521.641C434.324 525.055 437.744 528.56 441.414 527.74C439.018 528.133 436.623 524.389 435.638 522.17C433.072 516.401 433.18 508.11 434.785 501.664C437.96 488.913 442.489 483.638 442.159 483.303C442.119 483.257 441.994 483.24 441.823 483.24C441.015 483.246 438.187 483.951 437.96 484.122Z" fill="url(#paint2_linear)"/>
<path d="M460.406 515.302C457.874 518.398 455.308 521.55 452.088 523.962C449.624 525.806 446.381 526.574 443.365 527.08C441.857 527.337 440.35 527.45 438.893 526.91C438.552 526.785 438.478 527.524 438.813 527.649C440.52 527.934 441.721 528.099 443.081 527.934C444.736 527.729 446.125 527.496 447.689 526.91C449.146 526.363 450.58 525.692 451.871 524.822C453.482 523.729 454.927 522.369 456.275 520.969C457.88 519.297 459.348 517.504 460.816 515.706C460.992 515.49 460.799 515.206 460.6 515.206C460.526 515.206 460.463 515.234 460.406 515.302Z" fill="url(#paint3_linear)"/>
<path d="M466.517 470.034C465.112 471.115 463.894 472.429 462.745 473.772C460.025 476.964 457.59 480.418 455.285 483.917C453.186 487.109 451.143 490.33 448.953 493.459C446.796 496.532 444.583 499.553 442.25 502.495C440.56 504.628 438.83 506.819 436.805 508.651C436.645 508.793 436.486 508.935 436.315 509.072C436.031 509.305 436.435 509.704 436.719 509.476C437.527 508.816 438.25 508.059 438.95 507.291C439.934 506.221 440.867 505.106 441.783 503.974C444.065 501.163 446.227 498.256 448.332 495.314C450.443 492.355 452.497 489.351 454.438 486.278C456.765 482.603 459.245 479.012 461.96 475.616C463.092 474.193 464.275 472.805 465.601 471.559C466.614 470.603 467.826 469.55 469.22 469.237C469.482 469.18 469.743 469.158 470.011 469.18C470.375 469.209 470.375 468.64 470.011 468.611C469.931 468.606 469.857 468.6 469.777 468.6C468.577 468.6 467.439 469.328 466.517 470.034Z" fill="url(#paint4_linear)"/>
<path d="M546.722 508.065C548.395 510.164 550.056 512.27 551.723 514.369C553.441 516.531 555.268 518.648 556.639 521.055C557.436 522.455 558.039 523.951 558.301 525.544C558.358 525.903 558.909 525.749 558.847 525.391C558.375 522.512 556.799 519.991 555.069 517.698C553.407 515.496 551.649 513.368 549.937 511.206C548.998 510.022 548.059 508.839 547.12 507.655C547.063 507.587 547.001 507.559 546.938 507.559C546.739 507.564 546.551 507.849 546.722 508.065Z" fill="url(#paint5_linear)"/>
<path d="M467.729 524.275C466.119 526.392 464.987 528.856 463.968 531.297C462.66 534.449 461.573 537.692 460.52 540.935C459.331 544.611 458.199 548.304 457.004 551.985C455.763 555.809 454.46 559.615 452.981 563.353C451.559 566.944 449.965 570.483 448.037 573.834C447.809 574.227 447.581 574.614 447.348 575.001C447.16 575.314 447.65 575.604 447.837 575.291C449.817 572.036 451.445 568.582 452.901 565.066C454.438 561.356 455.769 557.561 457.027 553.749C458.25 550.045 459.399 546.312 460.588 542.591C461.652 539.257 462.739 535.928 464.025 532.674C465.032 530.108 466.159 527.53 467.729 525.243C467.889 525.009 468.054 524.782 468.224 524.56C468.378 524.355 468.179 524.156 467.974 524.156C467.883 524.156 467.792 524.19 467.729 524.275Z" fill="url(#paint6_linear)"/>
<path d="M487.103 557.703C485.937 562.227 484.913 566.779 483.843 571.325C482.705 576.156 481.476 580.964 480.053 585.715C478.625 590.483 477.248 595.262 475.832 600.03C474.415 604.793 472.924 609.544 471.143 614.187C469.391 618.773 467.342 623.262 464.788 627.461C464.486 627.962 464.173 628.457 463.854 628.946C463.655 629.254 464.145 629.538 464.344 629.231C466.989 625.151 469.112 620.759 470.933 616.258C472.81 611.615 474.364 606.847 475.814 602.056C477.243 597.333 478.563 592.582 479.991 587.86C481.465 582.995 482.802 578.102 483.985 573.163C485.066 568.656 486.062 564.127 487.194 559.638C487.342 559.046 487.496 558.449 487.649 557.857C487.706 557.641 487.524 557.504 487.359 557.504C487.245 557.504 487.137 557.561 487.103 557.703Z" fill="url(#paint7_linear)"/>
<path d="M510.187 554.91C512.309 560.73 514.682 566.46 517.259 572.093C519.911 577.874 522.79 583.558 525.874 589.123C528.952 594.682 532.241 600.133 535.729 605.447C539.131 610.625 542.767 615.621 546.517 620.548C548.081 622.614 549.606 624.713 551.302 626.676C552.969 628.611 554.818 630.357 556.878 631.86C557.453 632.281 558.039 632.679 558.636 633.06C558.943 633.259 559.234 632.764 558.926 632.571C556.685 631.126 554.625 629.441 552.798 627.495C551.069 625.652 549.549 623.632 548.03 621.618C546.244 619.251 544.423 616.907 542.676 614.505C540.85 611.991 539.069 609.441 537.339 606.858C533.845 601.641 530.562 596.286 527.473 590.824C524.372 585.339 521.47 579.74 518.784 574.045C516.133 568.417 513.698 562.693 511.507 556.867C511.245 556.167 510.983 555.462 510.727 554.756C510.676 554.62 510.562 554.563 510.449 554.563C510.278 554.568 510.107 554.705 510.187 554.91Z" fill="url(#paint8_linear)"/>
<path d="M485.402 529.191C490.375 528.366 495.24 526.881 500.258 526.358C510.54 525.288 520.895 528.321 531.205 527.507C532.884 527.376 534.648 527.103 535.974 526.062C537.299 525.021 537.982 522.978 537.015 521.595C529.72 524.503 521.373 524.685 513.959 522.091C511.803 521.339 511.797 520.577 510.079 519.075C506.198 515.672 502.745 509.943 502.654 504.782C502.324 512.258 497.999 519.439 491.541 523.223C488.127 525.22 484.173 526.238 480.224 526.256C478.301 526.261 476.378 526.039 474.517 525.567C473.419 525.288 470.085 523.274 469.169 523.541C464.901 524.77 471.399 528.486 473.106 528.975C477.072 530.119 481.374 529.863 485.402 529.191Z" fill="#2251B4"/>
<path d="M306.494 457.912C295.991 457.912 287.475 466.428 287.475 476.931C287.475 487.434 295.991 495.95 306.494 495.95C316.997 495.95 325.513 487.434 325.513 476.931C325.518 466.428 317.002 457.912 306.494 457.912ZM315.193 480.149C315.193 484.931 311.281 488.848 306.494 488.848C301.712 488.848 297.795 484.937 297.795 480.149V473.707C297.795 468.925 301.706 465.008 306.494 465.008C311.276 465.008 315.193 468.919 315.193 473.707V480.149Z" fill="#45F4FF"/>
<path d="M576.047 414.023C566.149 414.023 558.126 422.046 558.126 431.944C558.126 441.843 566.149 449.866 576.047 449.866C585.946 449.866 593.969 441.843 593.969 431.944C593.975 422.052 585.946 414.023 576.047 414.023ZM577.911 439.64L575.05 436.452L578.794 432.288L577.292 430.614L573.547 434.783L569.819 430.637L566.075 434.8L563.236 431.64L569.865 424.265L573.587 428.406L577.315 424.259L581.668 429.105L586.015 424.265L588.876 427.454L577.911 439.64Z" fill="#45F4FF"/>
<defs>
<radialGradient id="paint0_radial" cx="0" cy="0" r="1" gradientUnits="userSpaceOnUse" gradientTransform="translate(449.5 473.378) rotate(77.0323) scale(380.405)">
<stop stop-color="#45F4FF" stop-opacity="0.81"/>
<stop offset="0.302083" stop-color="#45F4FF" stop-opacity="0.8"/>
<stop offset="0.880208" stop-color="#45F4FF" stop-opacity="0"/>
</radialGradient>
<radialGradient id="paint1_radial" cx="0" cy="0" r="1" gradientUnits="userSpaceOnUse" gradientTransform="translate(499.126 435.474) rotate(87.5634) scale(13.3833)">
<stop stop-color="#45F4FF"/>
<stop offset="1" stop-color="#45F4FF" stop-opacity="0.4"/>
</radialGradient>
<linearGradient id="paint2_linear" x1="431.985" y1="500.623" x2="433.408" y2="518.83" gradientUnits="userSpaceOnUse">
<stop stop-color="#46F4FF" stop-opacity="0.19"/>
<stop offset="1" stop-color="#45F4FF"/>
</linearGradient>
<linearGradient id="paint3_linear" x1="438.518" y1="521.723" x2="460.876" y2="521.723" gradientUnits="userSpaceOnUse">
<stop stop-color="#45F4FF"/>
<stop offset="1" stop-color="#45F4FF" stop-opacity="0.17"/>
</linearGradient>
<linearGradient id="paint4_linear" x1="436.224" y1="489.071" x2="470.286" y2="489.071" gradientUnits="userSpaceOnUse">
<stop stop-color="#45F4FF" stop-opacity="0"/>
<stop offset="1" stop-color="#45F4FF"/>
</linearGradient>
<linearGradient id="paint5_linear" x1="546.656" y1="516.656" x2="558.855" y2="516.656" gradientUnits="userSpaceOnUse">
<stop stop-color="#45F4FF"/>
<stop offset="1" stop-color="#45F4FF" stop-opacity="0.02"/>
</linearGradient>
<linearGradient id="paint6_linear" x1="447.309" y1="549.791" x2="468.276" y2="549.791" gradientUnits="userSpaceOnUse">
<stop stop-color="#45F4FF" stop-opacity="0"/>
<stop offset="1" stop-color="#45F4FF"/>
</linearGradient>
<linearGradient id="paint7_linear" x1="463.81" y1="593.432" x2="487.663" y2="593.432" gradientUnits="userSpaceOnUse">
<stop stop-color="#45F4FF" stop-opacity="0"/>
<stop offset="1" stop-color="#45F4FF"/>
</linearGradient>
<linearGradient id="paint8_linear" x1="510.166" y1="593.84" x2="559.055" y2="593.84" gradientUnits="userSpaceOnUse">
<stop stop-color="#45F4FF"/>
<stop offset="1" stop-color="#45F4FF" stop-opacity="0"/>
</linearGradient>
</defs>
</svg>
