<svg width="780" height="358" viewBox="0 0 780 358" fill="none" xmlns="http://www.w3.org/2000/svg">
<g filter="url(#filter0_f)">
<path d="M144.657 20H642.092L560.708 287.575H231.996L144.657 20Z" fill="url(#paint0_linear)"/>
</g>
<path d="M51.8549 196.043C50.6639 196.043 50.6639 197.893 51.8549 197.893C53.0459 197.893 53.0459 196.043 51.8549 196.043Z" fill="#45F5FF"/>
<path d="M198.14 209.311H197.497C197.1 209.311 197.1 209.931 197.497 209.931H198.14C198.537 209.923 198.537 209.311 198.14 209.311Z" fill="#45F5FF"/>
<path d="M234.544 183.189C235.338 183.189 235.338 181.958 234.544 181.958C233.75 181.958 233.75 183.189 234.544 183.189Z" fill="#45F5FF"/>
<path d="M250.805 243.294C250.718 243.207 250.623 243.143 250.504 243.104C250.392 243.048 250.273 243.016 250.146 243.024C249.908 243.032 249.662 243.111 249.495 243.294C249.329 243.477 249.225 243.699 249.225 243.945V244.985C249.217 245.112 249.249 245.231 249.305 245.343C249.344 245.454 249.408 245.557 249.495 245.636C249.575 245.724 249.678 245.787 249.789 245.827C249.9 245.883 250.019 245.914 250.146 245.906C250.385 245.898 250.631 245.819 250.797 245.636C250.964 245.454 251.067 245.231 251.067 244.985V243.945C251.075 243.818 251.044 243.699 250.988 243.588C250.956 243.477 250.893 243.374 250.805 243.294Z" fill="#45F5FF"/>
<path d="M195.019 260.706C193.828 260.706 193.828 262.556 195.019 262.556C196.203 262.556 196.21 260.706 195.019 260.706Z" fill="#45F5FF"/>
<path d="M283.716 195.599C281.366 195.599 281.358 197.909 283.716 197.909C286.067 197.901 286.074 195.599 283.716 195.599Z" fill="#45F5FF"/>
<path d="M314.642 238.975C312.268 238.975 312.26 242.667 314.642 242.667C317.016 242.675 317.024 238.975 314.642 238.975Z" fill="#45F5FF"/>
<path d="M285.519 290.259C283.534 290.259 283.534 293.339 285.519 293.339C287.496 293.331 287.504 290.259 285.519 290.259Z" fill="#45F5FF"/>
<path d="M324.003 312.101C322.018 312.101 322.018 315.182 324.003 315.182C325.988 315.182 325.988 312.101 324.003 312.101Z" fill="#45F5FF"/>
<path d="M381.218 215.052C378.844 215.052 378.836 218.744 381.218 218.744C383.592 218.744 383.6 215.052 381.218 215.052Z" fill="#45F5FF"/>
<path d="M315.682 185.468C313.308 185.468 313.3 189.16 315.682 189.16C318.056 189.16 318.064 185.468 315.682 185.468Z" fill="#45F5FF"/>
<path d="M352.087 232.623C350.896 232.623 350.896 234.473 352.087 234.473C353.278 234.465 353.278 232.623 352.087 232.623Z" fill="#45F5FF"/>
<path d="M613.112 200.204C611.921 200.204 611.921 202.054 613.112 202.054C614.302 202.054 614.302 200.204 613.112 200.204Z" fill="#45F5FF"/>
<path d="M574.452 194.019C574.373 193.955 574.285 193.892 574.206 193.828C574.015 193.717 573.809 193.662 573.587 193.662H572.547C572.38 193.654 572.221 193.693 572.07 193.765C571.919 193.813 571.784 193.9 571.673 194.019C571.554 194.13 571.467 194.265 571.419 194.416C571.34 194.559 571.308 194.718 571.316 194.892C571.332 195.003 571.348 195.107 571.364 195.218C571.419 195.424 571.53 195.607 571.681 195.758C571.761 195.821 571.848 195.885 571.927 195.948C572.118 196.06 572.324 196.115 572.547 196.115H573.587C573.753 196.123 573.912 196.083 574.063 196.012C574.214 195.964 574.349 195.877 574.46 195.758C574.579 195.647 574.667 195.512 574.714 195.361C574.794 195.218 574.825 195.059 574.817 194.884C574.802 194.773 574.786 194.662 574.77 194.559C574.714 194.352 574.611 194.17 574.452 194.019Z" fill="#45F5FF"/>
<path d="M483.953 289.719C483.842 289.6 483.707 289.512 483.556 289.465C483.405 289.385 483.246 289.354 483.08 289.362C482.969 289.377 482.857 289.393 482.754 289.409C482.548 289.465 482.365 289.576 482.214 289.727L482.024 289.973C481.913 290.163 481.857 290.37 481.857 290.592V291.632C481.849 291.799 481.889 291.958 481.96 292.109C482.008 292.26 482.095 292.395 482.214 292.506C482.325 292.625 482.46 292.712 482.611 292.76C482.754 292.839 482.913 292.871 483.088 292.863L483.413 292.815C483.62 292.76 483.802 292.649 483.961 292.498C484.025 292.41 484.088 292.331 484.152 292.244C484.263 292.053 484.318 291.847 484.318 291.624V290.584C484.326 290.418 484.287 290.259 484.215 290.108C484.16 289.965 484.08 289.83 483.953 289.719Z" fill="#45F5FF"/>
<path d="M468.526 195.742C466.938 195.742 466.938 198.203 468.526 198.203C470.106 198.203 470.106 195.742 468.526 195.742Z" fill="#45F5FF"/>
<path d="M448.835 253.116C447.247 253.116 447.247 255.577 448.835 255.577C450.415 255.577 450.415 253.116 448.835 253.116Z" fill="#45F5FF"/>
<path d="M383.299 237.514C381.711 237.514 381.711 239.975 383.299 239.975C384.879 239.975 384.887 237.514 383.299 237.514Z" fill="#45F5FF"/>
<path d="M426.984 304.09C425.396 304.09 425.396 306.551 426.984 306.551C428.572 306.551 428.572 304.09 426.984 304.09Z" fill="#45F5FF"/>
<path d="M347.926 289.52C346.338 289.52 346.338 291.981 347.926 291.981C349.514 291.989 349.514 289.52 347.926 289.52Z" fill="#45F5FF"/>
<path d="M464.357 276.88C462.769 276.88 462.769 279.341 464.357 279.341C465.945 279.341 465.945 276.88 464.357 276.88Z" fill="#45F5FF"/>
<path d="M475.108 271.06H473.718C472.75 271.06 471.829 271.909 471.868 272.91C471.916 273.91 472.678 274.76 473.718 274.76H475.108C476.077 274.76 476.998 273.91 476.958 272.91C476.91 271.901 476.148 271.06 475.108 271.06Z" fill="#45F5FF"/>
<path d="M405.761 290.473C403.387 290.473 403.379 294.165 405.761 294.165C408.143 294.173 408.143 290.473 405.761 290.473Z" fill="#45F5FF"/>
<path d="M572.197 254.418C569.823 254.418 569.815 258.11 572.197 258.11C574.571 258.11 574.579 254.418 572.197 254.418Z" fill="#45F5FF"/>
<path d="M235.235 198.41C232.861 198.41 232.853 202.102 235.235 202.102C237.617 202.102 237.617 198.41 235.235 198.41Z" fill="#45F5FF"/>
<path d="M654.653 357.026L116.93 357.923C108.435 357.478 99.939 356.136 108.879 351.214L219.538 293.538L570.966 291.529L666.277 349.88C676.417 354.937 667.174 357.319 654.653 357.026Z" fill="#4E2CBF"/>
<path d="M663.816 334.238V340.638C663.816 345.854 662.474 350.991 648.389 350.991C634.311 350.991 135.518 353.008 124.116 353.008C112.714 353.008 114.239 346.751 114.239 346.751V337.819C114.477 339.637 117.462 341.432 126.538 341.432L643.648 338.899L647.198 338.883C659.306 338.883 663.562 336.334 663.816 334.238Z" fill="#333333"/>
<path d="M663.816 333.849V334.238C663.562 336.334 659.306 338.883 647.198 338.883L643.648 338.899L643.625 334.667L560.811 288.695L560.819 285.137L563.725 285.145C569.95 285.153 576.08 286.678 581.59 289.576L662.418 332.118C663.22 332.539 663.736 333.158 663.816 333.849Z" fill="#4D4D4D"/>
<path d="M114.239 337.819C114.08 336.636 115.097 335.437 116.367 334.722L196.147 289.512C201.951 286.225 208.518 284.494 215.195 284.51L560.82 285.138L560.812 288.695H227.137L145.316 334.667H643.625L643.649 338.899L126.538 341.432C117.463 341.432 114.477 339.637 114.239 337.819Z" fill="#4D4D4D"/>
<path d="M643.625 334.667H145.316L227.136 288.695H560.811L643.625 334.667Z" fill="#29ABE2"/>
<path d="M114.239 337.819C114.08 336.636 115.096 335.437 116.367 334.722L196.147 289.512C201.951 286.225 208.517 284.494 215.195 284.51L560.819 285.138L563.725 285.146C569.95 285.153 576.08 286.678 581.59 289.576L662.418 332.118C663.22 332.539 663.736 333.158 663.816 333.849C663.832 333.976 663.832 334.103 663.816 334.238C663.562 336.334 659.306 338.883 647.198 338.883L643.648 338.899L126.538 341.432C117.462 341.432 114.477 339.637 114.239 337.819Z" stroke="#1A1A1A" stroke-miterlimit="10"/>
<path d="M560.811 288.695H227.136L145.316 334.667H643.625L560.811 288.695Z" stroke="#1A1A1A" stroke-miterlimit="10"/>
<path d="M114.239 337.398V337.819V346.751C114.239 346.751 112.714 353.008 124.116 353.008C135.518 353.008 634.311 350.991 648.389 350.991C662.474 350.991 663.816 345.854 663.816 340.637V334.238V333.849V333.46" stroke="#1A1A1A" stroke-miterlimit="10"/>
<path d="M413.042 71.7604C412.962 71.6413 412.93 71.4983 413.057 71.4031C413.367 71.1728 413.796 71.411 414.113 71.6333C418.528 74.7934 424.3 75.3333 429.715 74.9601C438.711 74.3249 447.54 71.3951 455.139 66.528C464.802 77.9376 481.039 83.3288 495.609 79.9702C478.578 110.396 461.539 140.822 444.507 171.247C443.301 173.407 441.53 175.876 439.076 175.63C437.973 175.519 437.02 174.86 436.059 174.312C432.081 172.049 427.135 171.541 422.776 172.955C418.417 174.368 414.709 177.671 412.811 181.847C412.581 145.347 412.343 108.856 412.113 72.3638L413.042 71.7604Z" fill="#A4E021"/>
<path d="M455.909 62.677C455.909 62.677 467.986 80.78 498.165 74.7457C484.668 107.601 440.934 181.458 438.251 184.436L438.156 184.459C437.925 183.522 437.568 182.609 437.052 181.863C436.504 181.077 435.702 180.521 434.86 180.077C429.93 177.504 423.951 178.322 418.949 180.759C417.321 181.553 415.543 183.038 414.757 184.674C414.058 186.135 414.193 187.834 414.344 189.446L414.582 189.795C413.423 190.518 412.422 191.534 411.628 192.693C409.5 190.692 409.469 184.88 409.635 182.054C411.644 148.349 409.858 106.942 408.96 66.6946C424.507 72.5463 443.348 73.5309 455.909 62.677ZM444.507 171.247C461.539 140.822 478.578 110.396 495.609 79.9701C481.039 83.3287 464.802 77.9375 455.139 66.5279C447.54 71.395 438.711 74.3249 429.715 74.96C424.3 75.3332 418.528 74.7933 414.113 71.6332C413.796 71.4109 413.367 71.1727 413.057 71.403C412.93 71.4982 412.962 71.6412 413.042 71.7603L412.113 72.3637C412.343 108.856 412.581 145.347 412.811 181.847C414.709 177.671 418.417 174.368 422.776 172.954C427.135 171.541 432.081 172.049 436.059 174.312C437.02 174.86 437.973 175.519 439.077 175.63C441.53 175.876 443.301 173.407 444.507 171.247Z" fill="#86B81B"/>
<path d="M438.6 188.628C447.04 193.154 448.184 203.253 449.232 210.336C454.448 245.692 457.346 281.39 457.918 317.135C456.155 317.429 454.274 317.731 452.257 318.025C439.497 319.898 427.619 320.97 416.567 321.55C415.598 299.08 414.979 276.586 414.717 254.1C410.826 237.959 408.905 221.34 409.024 204.73C409.056 201.3 409.183 197.767 410.556 194.623C410.85 193.956 411.207 193.304 411.628 192.693C412.422 191.534 413.423 190.518 414.582 189.795L414.344 189.446C414.193 187.834 414.058 186.135 414.757 184.674C415.543 183.038 417.321 181.553 418.949 180.759C423.951 178.322 429.93 177.504 434.861 180.077C435.702 180.521 436.504 181.077 437.052 181.863C437.568 182.609 437.925 183.523 438.156 184.459C438.537 185.936 438.624 187.492 438.624 188.588L438.6 188.628Z" fill="#2979E2"/>
<path d="M362.71 190.176C357.843 179.648 347.982 165.57 342.273 155.574C328.815 132.008 317.85 111.849 303.725 89.8948L303.971 88.5291C316.397 90.8238 329.776 87.1317 339.272 78.8027C340.018 78.1437 368.427 90.9905 388.745 71.1646C388.174 88.807 394.43 178.449 394.43 191.343C394.43 200.585 390.937 203.952 386.983 205.349L385.72 205.563C385.331 204.706 384.839 203.904 384.267 203.15C384.609 202.491 385.149 201.879 385.093 201.149C385.069 200.776 384.879 200.434 384.696 200.117C381.727 195.107 376.264 191.653 370.46 191.137C369.356 191.041 368.197 191.057 367.228 191.573C365.744 192.375 365.077 194.106 364.56 195.726C363.647 196.083 362.79 196.591 362.028 197.203C361.972 197.242 361.924 197.29 361.869 197.338L361.408 196.806C361.099 194.527 361.758 192.304 362.71 190.176ZM389.984 179.004C386.983 146.88 387.277 115.287 385.792 77.7309C371.889 87.886 355.684 86.0757 341.971 82.4948C332.134 90.5459 311.26 96.0324 309.791 94.1506C322.296 115.58 330.332 128.967 342.273 151.35C346.64 159.544 356.382 174.161 360.749 182.355C368.3 176.233 380.845 175.678 389.984 179.004Z" fill="#86B81B"/>
<path d="M385.792 77.731C387.277 115.287 386.983 146.88 389.984 179.005C380.845 175.678 368.3 176.234 360.749 182.355C356.382 174.161 346.64 159.544 342.273 151.35C330.332 128.967 322.296 115.581 309.791 94.1507C311.26 96.0325 332.134 90.546 341.971 82.4949C355.684 86.0758 371.889 87.8861 385.792 77.731Z" fill="#A4E021"/>
<path d="M364.56 195.726C365.076 194.106 365.743 192.375 367.228 191.573C368.197 191.057 369.356 191.041 370.46 191.137C376.264 191.653 381.726 195.107 384.696 200.117C384.879 200.434 385.069 200.776 385.093 201.149C385.149 201.879 384.609 202.491 384.267 203.15C384.839 203.904 385.331 204.706 385.72 205.564C386.03 206.246 386.284 206.961 386.459 207.715C387.34 211.455 386.236 215.353 385.045 219.006C381.607 229.558 377.32 239.832 372.238 249.694C369.57 254.87 366.633 260.111 365.791 265.851C365.863 269.385 366.196 272.926 366.553 276.435C368.094 291.64 370.071 306.805 372.476 321.899C363.155 321.693 354.747 321.462 347.188 321.597C342.932 321.677 338.398 321.502 333.912 321.145C331.554 304.924 330.681 288.48 329.903 272.092C329.672 267.32 329.458 262.509 330.22 257.792C331.451 250.178 335.151 243.223 338.803 236.426C344.719 225.405 350.642 214.377 357.049 203.634C358.407 201.347 359.828 199.029 361.869 197.338C361.924 197.29 361.972 197.242 362.028 197.203C362.79 196.591 363.647 196.083 364.56 195.726Z" fill="#2979E2"/>
<path d="M427.818 186.278C432.352 186.278 435.861 187.159 438.6 188.628C447.04 193.154 448.184 203.253 449.232 210.336C454.448 245.692 457.346 281.39 457.918 317.135C457.982 321.24 458.021 325.345 458.021 329.45" stroke="#1A1A1A" stroke-miterlimit="10"/>
<path d="M416.972 330.562C416.829 327.561 416.694 324.551 416.567 321.55C415.598 299.08 414.979 276.586 414.717 254.1C414.685 251.71 414.662 249.321 414.638 246.931" stroke="#1A1A1A" stroke-miterlimit="10"/>
<path d="M418.234 188.572C416.924 188.644 415.686 189.088 414.582 189.795C413.423 190.518 412.422 191.534 411.628 192.693C411.207 193.304 410.85 193.956 410.556 194.622C409.183 197.767 409.056 201.3 409.024 204.73C408.905 221.34 410.826 237.959 414.717 254.1C414.741 254.243 414.78 254.378 414.812 254.521" stroke="#1A1A1A" stroke-miterlimit="10"/>
<path d="M414.344 189.446C414.193 187.834 414.058 186.135 414.757 184.674C415.543 183.038 417.321 181.553 418.949 180.759C423.951 178.322 429.93 177.504 434.861 180.077C435.702 180.521 436.504 181.077 437.052 181.863C437.568 182.609 437.925 183.523 438.156 184.459C438.537 185.936 438.624 187.492 438.624 188.588" stroke="#1A1A1A" stroke-miterlimit="10"/>
<path d="M411.962 192.963C411.843 192.884 411.731 192.789 411.628 192.693C409.5 190.692 409.469 184.88 409.635 182.054C411.644 148.349 409.858 106.942 408.96 66.6947C424.507 72.5464 443.348 73.531 455.909 62.6771C455.909 62.6771 467.986 80.7801 498.165 74.7458C484.668 107.601 440.934 181.458 438.251 184.436" stroke="#1A1A1A" stroke-miterlimit="10"/>
<path d="M373.406 195.536C377.455 197.322 381.679 199.72 384.267 203.15C384.839 203.904 385.331 204.706 385.72 205.564C386.03 206.247 386.284 206.961 386.459 207.715C387.34 211.455 386.237 215.354 385.046 219.006C381.608 229.558 377.32 239.832 372.238 249.694C369.571 254.871 366.633 260.111 365.791 265.852C365.744 266.145 365.704 266.447 365.672 266.741" stroke="#1A1A1A" stroke-miterlimit="10"/>
<path d="M366.394 256.315C365.862 259.468 365.72 262.659 365.791 265.851C365.863 269.385 366.196 272.926 366.553 276.435C368.094 291.64 370.071 306.805 372.476 321.899C373.08 325.686 373.707 329.466 374.366 333.237" stroke="#1A1A1A" stroke-miterlimit="10"/>
<path d="M335.985 333.293C335.183 329.26 334.5 325.21 333.913 321.145C331.554 304.924 330.681 288.48 329.903 272.092C329.673 267.32 329.458 262.509 330.22 257.792C331.451 250.178 335.151 243.223 338.804 236.426C344.719 225.405 350.642 214.377 357.049 203.634C358.407 201.348 359.828 199.029 361.869 197.338C361.925 197.29 361.972 197.243 362.028 197.203C362.79 196.592 363.648 196.083 364.561 195.726C366.212 195.075 368.022 194.916 369.666 195.528" stroke="#1A1A1A" stroke-miterlimit="10"/>
<path d="M364.521 195.845C364.537 195.806 364.545 195.766 364.56 195.726C365.077 194.106 365.744 192.376 367.228 191.574C368.197 191.058 369.356 191.042 370.46 191.137C376.264 191.653 381.727 195.107 384.696 200.117C384.879 200.435 385.069 200.776 385.093 201.149C385.149 201.88 384.609 202.491 384.267 203.15C384.148 203.38 384.053 203.618 384.013 203.865" stroke="#1A1A1A" stroke-miterlimit="10"/>
<path d="M361.408 196.806C361.099 194.527 361.758 192.304 362.71 190.176C363.163 189.16 363.687 188.167 364.203 187.199" stroke="#1A1A1A" stroke-miterlimit="10"/>
<path d="M362.838 190.446C362.798 190.359 362.758 190.271 362.71 190.176C357.843 179.648 347.982 165.57 342.273 155.574C328.815 132.008 317.85 111.849 303.725 89.895" stroke="#1A1A1A" stroke-miterlimit="10"/>
<path d="M303.59 88.4578C303.717 88.4816 303.844 88.5054 303.971 88.5293C316.397 90.8239 329.776 87.1318 339.272 78.8029C340.018 78.1439 368.427 90.9906 388.745 71.1647C388.174 88.8072 394.43 178.449 394.43 191.343C394.43 200.585 390.937 203.952 386.983 205.349" stroke="#1A1A1A" stroke-miterlimit="10"/>
<path d="M431.764 252.624C433.122 251.163 435.218 250.575 437.211 250.607C439.204 250.639 441.149 251.218 443.054 251.798" stroke="#1A1A1A" stroke-miterlimit="10"/>
<path d="M434.972 262.287C436.925 263.255 439.378 263.144 441.244 262.009" stroke="#1A1A1A" stroke-miterlimit="10"/>
<path d="M338.398 246.494C342.13 244.93 346.759 245.811 349.657 248.638" stroke="#1A1A1A" stroke-miterlimit="10"/>
<path d="M338.494 255.029C340.518 257.117 343.599 258.126 346.465 257.634" stroke="#1A1A1A" stroke-miterlimit="10"/>
<path d="M475.513 304.614C475.513 304.614 495.934 310.736 457.918 317.135C456.155 317.429 454.274 317.731 452.257 318.025C439.497 319.898 427.619 320.97 416.567 321.55C400.044 322.423 385.395 322.185 372.477 321.899C363.155 321.693 354.747 321.463 347.188 321.598C342.932 321.677 338.398 321.502 333.912 321.145C312.006 319.43 291.378 313.316 311.419 309.973" stroke="#1A1A1A" stroke-miterlimit="10"/>
<path d="M513.966 301.327C519.024 301.788 524.026 302.875 528.806 304.567C530.116 305.027 531.553 305.67 532.029 306.98C532.458 308.155 531.91 309.505 531.005 310.371C530.108 311.236 528.909 311.713 527.734 312.141C518.317 315.603 508.337 317.533 498.301 317.85" stroke="#1A1A1A" stroke-miterlimit="10"/>
<path d="M276.547 320.264C271.806 319.954 267.13 318.644 262.922 316.436C261.405 315.65 259.92 314.713 258.88 313.356C257.848 311.998 257.332 310.14 257.927 308.544C259.055 305.535 263.041 305.059 266.248 305.082" stroke="#1A1A1A" stroke-miterlimit="10"/>
<path d="M445.516 153.065C454.035 134.168 462.547 115.279 471.059 96.382" stroke="#1A1A1A" stroke-miterlimit="10"/>
<path d="M429.874 151.215C432.153 133.112 434.432 115.009 436.711 96.9139" stroke="#1A1A1A" stroke-miterlimit="10"/>
<path d="M378.614 170.787C376.113 148.88 373.62 126.974 371.119 105.076" stroke="#1A1A1A" stroke-miterlimit="10"/>
<path d="M365.489 172.256C356.787 153.168 345.251 129.888 336.604 111.412" stroke="#1A1A1A" stroke-miterlimit="10"/>
<path d="M371.929 182.975C373.286 181.005 376.05 180.426 378.384 180.958C380.718 181.498 382.735 182.927 384.68 184.324C385.633 185.007 386.594 185.698 387.554 186.389" stroke="#1A1A1A" stroke-miterlimit="10"/>
<path d="M332.88 298.453C333.285 302.859 335.564 320.812 335.564 320.812C335.564 320.812 357.923 321.256 364.624 320.812C362.837 310.974 361.956 302.987 358.812 290.41C357.025 283.256 354.262 274.919 352.269 271.346C350.277 267.773 346.354 266.082 342.289 265.597C341.948 265.558 341.622 265.534 341.296 265.534C329.466 265.526 332.396 293.165 332.88 298.453Z" fill="url(#paint1_linear)"/>
<path d="M441.419 261.397C437.481 262.509 433.868 264.78 432.447 268.615C431.025 272.45 429.588 281.112 428.921 288.456C427.754 301.367 428.111 309.394 427.857 319.39C434.551 318.795 457.18 316.77 457.18 316.77C457.18 316.77 456.052 296.833 455.774 292.41C455.457 287.281 454.162 261.095 443.459 261.095C442.816 261.103 442.133 261.199 441.419 261.397Z" fill="url(#paint2_linear)"/>
<g filter="url(#filter1_f)">
<path d="M20 31.91H760L638.931 333.627H149.928L20 31.91Z" fill="url(#paint3_linear)"/>
</g>
<defs>
<filter id="filter0_f" x="124.657" y="0" width="537.436" height="307.575" filterUnits="userSpaceOnUse" color-interpolation-filters="sRGB">
<feFlood flood-opacity="0" result="BackgroundImageFix"/>
<feBlend mode="normal" in="SourceGraphic" in2="BackgroundImageFix" result="shape"/>
<feGaussianBlur stdDeviation="10" result="effect1_foregroundBlur"/>
</filter>
<filter id="filter1_f" x="0" y="11.91" width="780" height="341.717" filterUnits="userSpaceOnUse" color-interpolation-filters="sRGB">
<feFlood flood-opacity="0" result="BackgroundImageFix"/>
<feBlend mode="normal" in="SourceGraphic" in2="BackgroundImageFix" result="shape"/>
<feGaussianBlur stdDeviation="10" result="effect1_foregroundBlur"/>
</filter>
<linearGradient id="paint0_linear" x1="393.375" y1="66.4485" x2="393.375" y2="287.575" gradientUnits="userSpaceOnUse">
<stop stop-color="#45F4FF" stop-opacity="0"/>
<stop offset="1" stop-color="#45F4FF" stop-opacity="0.78"/>
</linearGradient>
<linearGradient id="paint1_linear" x1="348.416" y1="265.534" x2="348.416" y2="321.009" gradientUnits="userSpaceOnUse">
<stop stop-color="#40F1FB" stop-opacity="0.03"/>
<stop offset="1" stop-color="#44F5FF"/>
</linearGradient>
<linearGradient id="paint2_linear" x1="442.518" y1="261.095" x2="442.518" y2="319.39" gradientUnits="userSpaceOnUse">
<stop stop-color="#40F1FB" stop-opacity="0.03"/>
<stop offset="1" stop-color="#44F5FF"/>
</linearGradient>
<linearGradient id="paint3_linear" x1="390" y1="31.91" x2="390" y2="333.627" gradientUnits="userSpaceOnUse">
<stop stop-color="#45F4FF" stop-opacity="0"/>
<stop offset="1" stop-color="#45F4FF" stop-opacity="0.78"/>
</linearGradient>
</defs>
</svg>
