<svg width="200" height="10" viewBox="0 0 200 10" fill="none" xmlns="http://www.w3.org/2000/svg">
<path fill-rule="evenodd" clip-rule="evenodd" d="M36.1898 0.865881C37.3576 0.30999 38.6325 0.015047 39.9258 0.0015516C41.2148 0.0186503 42.4848 0.315324 43.648 0.871088C44.8113 1.42685 45.84 2.22846 46.6632 3.22057C47.9109 4.4433 48.5098 4.99227 49.9072 4.99227L49.9072 4.98301C51.3046 4.98301 51.9035 4.43505 53.1512 3.21459C53.9744 2.22433 55.0031 1.4242 56.1664 0.869471C57.3296 0.314739 58.5996 0.0186157 59.8886 0.00154873C61.1819 0.015019 62.4568 0.309415 63.6246 0.864274C64.7924 1.41913 65.8251 2.22115 66.6511 3.21459C67.8738 4.43505 68.4727 4.98301 69.895 4.98301C71.3174 4.98301 71.8913 4.43505 73.1141 3.21459C73.9281 2.21065 74.9567 1.401 76.1245 0.84482C77.2924 0.288642 78.57 0 79.864 0C81.158 0 82.4356 0.288642 83.6034 0.84482C84.7713 1.401 85.7999 2.21065 86.614 3.21459C87.8367 4.43505 88.4356 4.98301 89.833 4.98301C91.2304 4.98301 91.8293 4.43505 93.052 3.21459C93.8768 2.21987 94.9093 1.41695 96.0774 0.86197C97.2454 0.306991 98.5208 0.0133412 99.8144 0.00154873V0.0015516C101.108 0.013366 102.383 0.307562 103.551 0.863573C104.719 1.41958 105.752 2.22399 106.577 3.22057C107.8 4.4433 108.398 4.99227 109.796 4.99227C111.193 4.99227 111.792 4.4433 113.015 3.22057C113.829 2.21476 114.858 1.4036 116.025 0.846391C117.193 0.289178 118.471 0 119.765 0C121.059 0 122.336 0.289178 123.504 0.846391C124.672 1.4036 125.701 2.21476 126.515 3.22057C127.737 4.4433 128.311 4.99227 129.734 4.99227C131.156 4.99227 131.755 4.4433 132.978 3.22057C133.804 2.22528 134.836 1.42177 136.004 0.865881C137.172 0.30999 138.447 0.015047 139.74 0.0015516C141.029 0.0186503 142.299 0.315324 143.462 0.871088C144.626 1.42685 145.654 2.22846 146.478 3.22057C147.725 4.4433 148.324 4.99227 149.722 4.99227L149.722 4.98301C151.119 4.98301 151.718 4.43505 152.966 3.21459C153.789 2.22433 154.818 1.4242 155.981 0.869471C157.144 0.314739 158.414 0.0186157 159.703 0.00154873C160.996 0.015019 162.271 0.309415 163.439 0.864274C164.607 1.41913 165.64 2.22115 166.465 3.21459C167.688 4.43505 168.287 4.98301 169.709 4.98301C171.132 4.98301 171.706 4.43505 172.928 3.21459C173.743 2.21065 174.771 1.401 175.939 0.84482C177.107 0.288642 178.384 0 179.678 0C180.972 0 182.25 0.288642 183.418 0.84482C184.586 1.401 185.614 2.21065 186.428 3.21459C187.651 4.43505 188.25 4.98301 189.647 4.98301C191.045 4.98301 191.644 4.43505 192.866 3.21459C193.691 2.21987 194.724 1.41695 195.892 0.86197C197.06 0.306991 198.335 0.0133412 199.629 0.00154873V4.98301C198.231 4.98301 197.633 5.53097 196.41 6.75142C195.585 7.74615 194.552 8.54907 193.384 9.10405C192.216 9.65903 190.941 9.95268 189.647 9.96447C188.358 9.94907 187.087 9.65368 185.924 9.09883C184.761 8.54398 183.732 7.74296 182.91 6.75142C181.687 5.53097 181.088 4.98301 179.691 4.98301C178.293 4.98301 177.695 5.53097 176.472 6.75142C175.658 7.75982 174.628 8.57339 173.458 9.13235C172.288 9.6913 171.007 9.98144 169.709 9.98144C168.412 9.98144 167.131 9.6913 165.961 9.13235C164.791 8.57339 163.761 7.75982 162.947 6.75142C161.724 5.53097 161.125 4.98301 159.703 4.98301C158.281 4.98301 157.707 5.53097 156.459 6.75142C155.636 7.74169 154.607 8.54181 153.444 9.09655C152.281 9.65128 151.011 9.9474 149.722 9.96447L149.722 9.98299C148.433 9.9659 147.163 9.66922 145.999 9.11346C144.836 8.55769 143.807 7.75608 142.984 6.76398C141.736 5.54125 141.163 4.99227 139.74 4.99227C138.318 4.99227 137.719 5.54125 136.496 6.76398C135.682 7.77425 134.652 8.58933 133.482 9.14933C132.312 9.70932 131.031 10 129.734 10C128.436 10 127.156 9.70932 125.985 9.14933C124.815 8.58933 123.785 7.77425 122.971 6.76398C121.749 5.54125 121.15 4.99227 119.752 4.99227C118.355 4.99227 117.756 5.54125 116.533 6.76398C115.711 7.75736 114.683 8.55986 113.519 9.11575C112.356 9.67163 111.085 9.96756 109.796 9.98299C108.502 9.97118 107.227 9.67698 106.059 9.12097C104.891 8.56496 103.858 7.76055 103.033 6.76398C101.811 5.54125 101.212 4.99227 99.8144 4.99227V4.98301C98.417 4.98301 97.8181 5.53097 96.5954 6.75142C95.7706 7.74615 94.738 8.54907 93.57 9.10405C92.4019 9.65903 91.1265 9.95268 89.833 9.96447C88.5436 9.94907 87.2731 9.65368 86.1096 9.09883C84.9461 8.54398 83.9176 7.74296 83.0955 6.75142C81.8728 5.53097 81.2739 4.98301 79.8765 4.98301C78.4791 4.98301 77.8802 5.53097 76.6575 6.75142C75.8436 7.75982 74.8137 8.57339 73.6434 9.13235C72.4732 9.6913 71.1924 9.98144 69.895 9.98144C68.5977 9.98144 67.3169 9.6913 66.1466 9.13235C64.9764 8.57339 63.9465 7.75982 63.1326 6.75142C61.9099 5.53097 61.311 4.98301 59.8886 4.98301C58.4663 4.98301 57.8923 5.53097 56.6447 6.75142C55.8214 7.74169 54.7927 8.54181 53.6295 9.09655C52.4662 9.65128 51.1963 9.9474 49.9072 9.96447L49.9072 9.98299C48.6182 9.9659 47.3482 9.66922 46.1849 9.11346C45.0217 8.55769 43.993 7.75608 43.1697 6.76398C41.9221 5.54125 41.3481 4.99227 39.9258 4.99227C38.5034 4.99227 37.9045 5.54125 36.6818 6.76398C35.8679 7.77425 34.838 8.58933 33.6678 9.14933C32.4975 9.70932 31.2167 10 29.9194 10C28.622 10 27.3412 9.70932 26.171 9.14933C25.0007 8.58933 23.9708 7.77425 23.1569 6.76398C21.9342 5.54125 21.3353 4.99227 19.9379 4.99227C18.5405 4.99227 17.9416 5.54125 16.7189 6.76398C15.8968 7.75736 14.8683 8.55986 13.7048 9.11575C12.5413 9.67163 11.2708 9.96756 9.98144 9.98299C8.68786 9.97118 7.41247 9.67698 6.24441 9.12097C5.07636 8.56496 4.04384 7.76055 3.21902 6.76398C1.99629 5.54125 1.3974 4.99227 0 4.99227V0.0015516C1.29358 0.013366 2.56898 0.307562 3.73703 0.863573C4.90508 1.41958 5.93761 2.22399 6.76243 3.22057C7.98515 4.4433 8.58404 4.99227 9.98144 4.99227C11.3788 4.99227 11.9777 4.4433 13.2005 3.22057C14.0145 2.21476 15.0431 1.4036 16.211 0.846391C17.3788 0.289178 18.6564 0 19.9504 0C21.2444 0 22.522 0.289178 23.6899 0.846391C24.8577 1.4036 25.8863 2.21476 26.7004 3.22057C27.9231 4.4433 28.497 4.99227 29.9194 4.99227C31.3417 4.99227 31.9406 4.4433 33.1633 3.22057C33.9893 2.22528 35.022 1.42177 36.1898 0.865881Z" fill="#549CFB"/>
</svg>
