<svg width="313" height="59" viewBox="0 0 313 59" fill="none" xmlns="http://www.w3.org/2000/svg">
<g clip-path="url(#clip0)">
<path d="M172.669 11.4C189.216 8.24085 205.764 7.78954 222.758 8.69216C235.728 9.59479 247.803 12.754 260.772 13.6566C277.767 15.0105 294.761 14.1079 311.309 11.4V22.6828C302.811 23.5855 294.761 24.9394 286.264 25.3907C266.586 26.2933 247.803 23.1341 228.125 20.8776C209.341 18.621 191.005 18.621 172.669 22.6828V11.4Z" fill="#46F4FF"/>
<path d="M46.1849 57.9891C46.1849 58.5488 45.7332 59.0046 45.1787 59.0046H1.00626C0.451697 59.0046 0 58.5488 0 57.9891V49.6624C0 49.1028 0.451697 48.647 1.00626 48.647H5.22359C5.61715 48.647 5.97493 48.4213 6.13593 48.0603C6.80676 46.5664 7.31213 44.4272 7.46866 41.3267C7.65202 37.6982 7.75041 35.7304 7.91588 32.3862C7.94272 31.8446 8.38547 31.4204 8.92214 31.4204H44.8075C45.362 31.4204 45.8137 31.8762 45.8137 32.4359L46.1849 57.9891ZM29.6108 48.0467V42.1932C29.6108 41.6336 29.1591 41.1778 28.6045 41.1778H24.1591C23.2646 41.1823 22.9203 41.5749 23.0142 42.3512C23.0366 44.6574 22.8353 46.4085 22.4373 47.7714C22.2494 48.4168 22.7414 49.0577 23.4033 49.0577H28.6C29.1591 49.0622 29.6108 48.6064 29.6108 48.0467Z" fill="white"/>
<path d="M93.1793 58.8194H78.6579C78.2554 58.8194 77.8887 58.5576 77.7321 58.1559C77.7232 58.1289 77.1195 56.4274 77.106 56.4003C71.3413 56.4003 72.1105 56.4003 66.3458 56.4003L65.6481 58.1605C65.4916 58.5576 65.1249 58.8194 64.7224 58.8194H50.1965C49.4586 58.8194 48.9711 57.9844 49.2886 57.2623L60.3306 32.2687C60.5319 31.8084 60.9612 31.515 61.4353 31.515L81.9048 31.5015C82.3743 31.5015 82.8037 31.7903 83.0049 32.2506C84.5076 35.6445 90.7553 49.748 94.0872 57.2623C94.4047 57.9844 93.9172 58.8194 93.1793 58.8194ZM70.751 42.7662C70.4647 43.5786 70.1919 44.3458 69.8744 45.2394C69.6195 45.9525 70.107 46.7152 70.8136 46.7152H72.5667C73.2733 46.7152 73.7563 45.948 73.5059 45.2394C73.1883 44.3458 72.9155 43.5831 72.6293 42.7662C72.2984 41.8365 71.0819 41.8365 70.751 42.7662Z" fill="white"/>
<path d="M122.437 31.4204H137.732C138.286 31.4204 138.738 31.8762 138.738 32.4359V57.8041C138.738 58.3637 138.286 58.8196 137.732 58.8196H123.228C122.674 58.8196 122.222 58.3637 122.222 57.8041V49.4187C122.222 48.4574 121.019 48.0377 120.429 48.7869C117.741 52.2078 115.894 54.5592 112.848 58.4269C112.656 58.6706 112.365 58.815 112.057 58.815H96.7616C96.2071 58.815 95.7554 58.3592 95.7554 57.7996V32.4359C95.7554 31.8762 96.2071 31.4204 96.7616 31.4204H111.261C111.815 31.4204 112.267 31.8807 112.267 32.4449C112.253 35.6853 112.249 37.8697 112.236 40.749C112.231 41.7103 113.43 42.1391 114.025 41.3899C116.726 37.9915 118.582 35.6492 121.641 31.804C121.842 31.5648 122.133 31.4204 122.437 31.4204Z" fill="white"/>
<path d="M178.689 46.0472C182.146 47.162 184.856 49.1116 184.686 51.7247C184.248 58.4628 171.927 59.0179 166.775 58.8193H143.3C142.745 58.8193 142.293 58.3635 142.293 57.8039V32.4356C142.293 31.876 142.745 31.4202 143.3 31.4202H166.775C171.864 31.2171 183.326 31.9708 183.738 38.5148C183.899 41.0692 181.716 42.9512 178.666 44.0524C178.68 45.0634 178.68 45.0363 178.689 46.0472ZM158.089 40.9925V41.4393C158.089 41.9989 158.541 42.4548 159.096 42.4548H164.391C166.144 42.4548 166.775 41.8906 166.775 41.1776C166.775 40.4645 166.144 39.9771 164.346 39.9771H159.096C158.541 39.9771 158.089 40.4329 158.089 40.9925ZM164.932 50.2625C167.092 50.2625 167.678 49.775 167.678 49.062C167.678 48.3128 167.047 47.7848 165.021 47.7848H159.096C158.541 47.7848 158.089 48.2406 158.089 48.8002V49.247C158.089 49.8066 158.541 50.2625 159.096 50.2625H164.932Z" fill="white"/>
<path d="M186.846 32.4357C186.846 31.8761 187.298 31.4203 187.852 31.4203H202.351C202.906 31.4203 203.358 31.8806 203.358 32.4402C203.344 35.6807 203.34 37.865 203.326 40.7444C203.322 41.7057 204.52 42.1344 205.115 41.3852C207.816 37.9869 209.672 35.6446 212.731 31.7994C212.924 31.5602 213.214 31.4158 213.519 31.4158H228.818C229.373 31.4158 229.824 31.8716 229.824 32.4312V57.7995C229.824 58.3591 229.373 58.8149 228.818 58.8149H214.31C213.756 58.8149 213.304 58.3591 213.304 57.7995V49.4186C213.304 48.4573 212.101 48.0376 211.51 48.7868C208.823 52.2077 206.976 54.559 203.934 58.4268C203.742 58.6705 203.451 58.8149 203.143 58.8149H187.848C187.293 58.8149 186.842 58.3591 186.842 57.7995" fill="white"/>
<path d="M259.449 31.4204H274.851C275.406 31.4204 275.857 31.8762 275.857 32.4359V57.8041C275.857 58.3637 275.406 58.8196 274.851 58.8196H259.449C258.894 58.8196 258.442 58.3637 258.442 57.8041V51.3503C258.442 50.7907 257.991 50.3349 257.436 50.3349H251.797C251.242 50.3349 250.79 50.7907 250.79 51.3503V57.8041C250.79 58.3637 250.339 58.8196 249.784 58.8196H234.382C233.827 58.8196 233.375 58.3637 233.375 57.8041V32.4359C233.375 31.8762 233.827 31.4204 234.382 31.4204H249.784C250.339 31.4204 250.79 31.8762 250.79 32.4359V38.8896C250.79 39.4492 251.242 39.9051 251.797 39.9051H257.436C257.991 39.9051 258.442 39.4492 258.442 38.8896V32.4359C258.442 31.8762 258.89 31.4204 259.449 31.4204Z" fill="white"/>
<path d="M279.458 57.8041V32.4359C279.458 31.8762 279.909 31.4204 280.464 31.4204H311.573C312.127 31.4204 312.579 31.8762 312.579 32.4359V41.5163C312.579 42.0759 312.127 42.5317 311.573 42.5317H298.013C297.458 42.5317 297.007 42.9875 297.007 43.5472V57.8041C297.007 58.3637 296.555 58.8196 296 58.8196H280.459C279.905 58.8196 279.458 58.3637 279.458 57.8041Z" fill="white"/>
<path d="M114.391 32.2101V36.0192C114.391 36.5562 115.049 36.8135 115.406 36.4163L118.412 32.6073C118.756 32.2282 118.488 31.6189 117.982 31.6189H114.977C114.651 31.6189 114.391 31.8852 114.391 32.2101Z" fill="white"/>
<path d="M85.9075 20.246H80.8538V1.01557C80.8538 0.455944 80.4021 0.000118588 79.8476 0.000118588H64.5525C64.3512 0.000118588 50.3844 5.78142 39.2216 10.0869L51.6321 10.1682V11.468L35.8675 11.3642C31.4757 13.0205 27.8845 14.2796 26.346 14.5955C25.4113 14.7851 24.5527 14.916 24.5571 13.9547C24.5661 11.0753 24.575 4.2605 24.5884 1.02008C24.5884 0.455944 24.1412 -0.00439453 23.5822 -0.00439453H9.07421C8.51965 -0.00439453 8.06795 0.451431 8.06795 1.01106V6.86006H0.210205V8.88645H18.8148V10.1817H8.07242V26.3838C8.07242 26.9434 8.52412 27.3993 9.07868 27.3993H24.3738C24.6824 27.3993 56.5382 14.1036 62.5489 12.7407C63.4791 12.5285 64.3423 12.4112 64.3423 13.3725V18.9191H74.5479V20.2189H64.3423V20.246H61.4443V21.5458H64.3423V26.3838C64.3423 26.9434 64.794 27.3993 65.3485 27.3993H79.852C80.4066 27.3993 80.8583 26.9434 80.8583 26.3838V21.5458H85.9119V20.246H85.9075Z" fill="#46F4FF"/>
<path d="M166.453 5.78142H138.474V4.48616H160.04V1.01106C160.04 0.451431 159.588 -0.00439453 159.033 -0.00439453H87.276C86.7215 -0.00439453 86.2698 0.451431 86.2698 1.01106V10.0915C86.2698 10.6511 86.7215 11.1069 87.276 11.1069H111.127C111.681 11.1069 112.133 11.5627 112.133 12.1224V15.7193H106.86V17.7457H125.63V19.041H112.133V26.3838C112.133 26.9434 112.584 27.3993 113.139 27.3993H128.68C129.235 27.3993 129.686 26.9434 129.686 26.3838V12.1224C129.686 11.5627 130.138 11.1069 130.693 11.1069H159.042C159.597 11.1069 160.048 10.6511 160.048 10.0915V7.19403H166.466V5.78142H166.453Z" fill="#46F4FF"/>
</g>
<defs>
<clipPath id="clip0">
<rect width="312.574" height="59" fill="white"/>
</clipPath>
</defs>
</svg>
