<svg width="207" height="30" viewBox="0 0 207 30" fill="none" xmlns="http://www.w3.org/2000/svg">
<path d="M30.0366 15.0366C30.0366 20.1951 27.622 22.6098 24.5854 22.6098C22.8293 22.6098 21.2927 21.6951 20.4146 20.3049C19.0244 21.6951 17.1585 22.5732 15.0366 22.5732C10.8659 22.5732 7.5 19.2073 7.5 15.0366C7.5 10.8659 10.8659 7.5 15.0366 7.5C19.2073 7.5 22.5732 10.8659 22.5732 15.0366V17.4878C22.5732 18.7317 23.4512 19.6098 24.5854 19.6098C25.939 19.6098 27.0366 18.4756 27.0366 15.0366C27.0366 8.41463 21.6585 3.03659 15.0366 3.03659C8.41463 3.03659 3 8.41463 3 15.0366C3 21.6585 8.37805 27.0366 15 27.0366C18.8415 27.0366 21.4756 25.1341 21.4756 25.1341L23.4512 27.4024C23.4512 27.4024 20.0854 30 15 30C6.73171 30 0 23.2683 0 15C0 6.73171 6.73171 0 15 0C23.3049 0.0365854 30.0366 6.76829 30.0366 15.0366ZM15.0366 19.6098C17.561 19.6098 19.6098 17.561 19.6098 15.0366C19.6098 12.5122 17.561 10.4634 15.0366 10.4634C12.5122 10.4634 10.4634 12.5122 10.4634 15.0366C10.4634 17.561 12.5122 19.6098 15.0366 19.6098Z" fill="white"/>
<path d="M45.0732 14.2314V22.0241H42.2927V8.56071H45.0732V9.80462C45.9878 8.81681 47.3781 8.23145 48.8781 8.23145C50.5976 8.23145 52.061 8.96315 53.0488 10.3168C54.1464 8.99974 55.8659 8.23145 57.7317 8.23145C61.1342 8.23145 63.4025 10.7558 63.4025 14.3412V22.0607H60.622V14.3778C60.622 12.329 59.4147 10.9388 57.5488 10.9388C55.683 10.9388 54.2196 12.3656 54.2196 14.268V22.0607H51.4391V14.3778C51.4391 12.329 50.2318 10.9388 48.3659 10.9388C46.5366 10.9022 45.0732 12.329 45.0732 14.2314Z" fill="white"/>
<path d="M77.1587 10.0245V8.56113H79.9392V22.0245H77.1587V20.5611C76.0245 21.6953 74.4514 22.3904 72.6221 22.3904C68.6709 22.3904 65.6343 19.3172 65.6343 15.3294C65.6343 11.305 68.6709 8.26845 72.6221 8.26845C74.4879 8.19528 76.0245 8.8904 77.1587 10.0245ZM68.5611 15.2563C68.5611 17.8172 70.3904 19.6465 72.8782 19.6465C75.4026 19.6465 77.1953 17.7806 77.1953 15.2563C77.1953 12.7319 75.4026 10.866 72.8782 10.866C70.3904 10.9026 68.5611 12.6953 68.5611 15.2563Z" fill="white"/>
<path d="M86.4145 4.46337C86.4145 5.45118 85.6096 6.25605 84.6218 6.25605C83.634 6.25605 82.8657 5.45118 82.8657 4.46337C82.8657 3.47557 83.634 2.70728 84.6218 2.70728C85.6096 2.70728 86.4145 3.47557 86.4145 4.46337ZM86.0121 22.0243H83.2316V8.56093H86.0121V22.0243Z" fill="white"/>
<path d="M92.2317 22.0244H89.4512V3H92.2317V22.0244Z" fill="white"/>
<path d="M97.3903 22.3903C96.4025 22.3903 95.5244 21.5854 95.5244 20.4879C95.5244 19.3903 96.439 18.5854 97.3903 18.5854C98.3781 18.5854 99.2561 19.3903 99.2561 20.4879C99.2561 21.5854 98.3781 22.3903 97.3903 22.3903Z" fill="white"/>
<path d="M105.219 14.9998V21.9876H102.439V8.52417H105.219V10.3534C106.207 9.07295 107.524 8.52417 109.427 8.52417H110.524V11.1217H109.427C106.939 11.1217 105.219 12.6949 105.219 14.9998Z" fill="white"/>
<path d="M122.012 16.2071V8.56075H124.793V22.0242H122.012V20.6705C121.024 21.7315 119.524 22.3534 117.878 22.3534C114.512 22.3534 112.281 19.829 112.281 16.1705V8.52417H115.061V16.0973C115.061 18.2925 116.378 19.6461 118.354 19.6461C120.402 19.6461 122.012 18.1095 122.012 16.2071Z" fill="white"/>
<path d="M145.28 9.95143V8.56118H148.061V20.2319C148.061 24.549 145.28 27.2197 140.89 27.2197C138.732 27.2197 136.573 26.5612 135.11 25.5368L136.39 23.1953C137.561 24.0002 139.28 24.5124 140.89 24.5124C143.634 24.5124 145.244 23.049 145.244 20.5246V20.2685C144.11 21.4026 142.537 22.0246 140.707 22.0246C136.756 22.0246 133.719 19.0612 133.719 15.1465C133.719 11.2319 136.756 8.2685 140.707 8.2685C142.573 8.19533 144.146 8.81728 145.28 9.95143ZM136.646 15.0734C136.646 17.5612 138.476 19.2807 140.963 19.2807C143.488 19.2807 145.28 17.5246 145.28 15.0734C145.28 12.6222 143.488 10.8661 140.963 10.8661C138.476 10.9026 136.646 12.6222 136.646 15.0734Z" fill="white"/>
<path d="M153.988 14.9998V21.9876H151.207V8.52417H153.988V10.3534C154.976 9.07295 156.293 8.52417 158.195 8.52417H159.293V11.1217H158.195C155.707 11.1217 153.988 12.6949 153.988 14.9998Z" fill="white"/>
<path d="M166.793 22.3534C162.768 22.3534 159.585 19.2436 159.585 15.2924C159.585 11.3412 162.768 8.23145 166.793 8.23145C170.817 8.23145 174 11.3412 174 15.2924C174 19.2436 170.817 22.3534 166.793 22.3534ZM166.793 19.6461C169.281 19.6461 171.11 17.7802 171.11 15.2558C171.11 12.7314 169.281 10.8656 166.793 10.8656C164.305 10.8656 162.476 12.7314 162.476 15.2558C162.476 17.7802 164.305 19.6461 166.793 19.6461Z" fill="white"/>
<path d="M186 16.2071V8.56075H188.78V22.0242H186V20.6705C185.012 21.7315 183.512 22.3534 181.866 22.3534C178.5 22.3534 176.268 19.829 176.268 16.1705V8.52417H179.049V16.0973C179.049 18.2925 180.366 19.6461 182.341 19.6461C184.39 19.6461 186 18.1095 186 16.2071Z" fill="white"/>
<path d="M206.195 15.2562C206.195 19.2806 203.158 22.3172 199.207 22.3172C197.341 22.3172 195.805 21.6221 194.671 20.4879V26.7074H191.89V8.48792H194.671V9.95134C195.805 8.81719 197.378 8.12207 199.207 8.12207C203.158 8.19524 206.195 11.2684 206.195 15.2562ZM194.671 15.2562C194.671 17.7806 196.463 19.6465 198.988 19.6465C201.476 19.6465 203.305 17.8172 203.305 15.2562C203.305 12.6952 201.476 10.866 198.988 10.866C196.463 10.9026 194.671 12.7318 194.671 15.2562Z" fill="white"/>
</svg>
