<svg width="1366" height="1059" viewBox="0 0 1366 1059" fill="none" xmlns="http://www.w3.org/2000/svg">
<g clip-path="url(#clip0)">
<mask id="mask0" mask-type="alpha" maskUnits="userSpaceOnUse" x="-1194" y="-374" width="2600" height="2242">
<path d="M1405.12 1059L1405.12 0.00012207L-115.499 5.56017e-05L-115.499 1059L1405.12 1059Z" fill="black"/>
<path d="M1322.38 1867.79L1322.38 -373.384L-1193.62 -373.384L-1193.62 1867.79L1322.38 1867.79Z" fill="url(#paint0_radial)"/>
</mask>
<g mask="url(#mask0)">
<path d="M1052.39 577.631L1054.81 577.631C1056.29 577.631 1056.31 575.32 1054.81 575.32L1052.39 575.32C1050.91 575.305 1050.91 577.631 1052.39 577.631Z" fill="#549CFB"/>
<path d="M915.451 675.844C912.468 675.844 912.468 680.48 915.451 680.48C918.418 680.48 918.434 675.844 915.451 675.844Z" fill="#549CFB"/>
<path d="M1040.66 775.508C1045.13 775.508 1045.14 768.561 1040.66 768.561C1036.19 768.561 1036.18 775.508 1040.66 775.508Z" fill="#549CFB"/>
<path d="M899.786 857.641C904.252 857.641 904.268 850.694 899.786 850.694C895.319 850.694 895.319 857.641 899.786 857.641Z" fill="#549CFB"/>
<path d="M854.29 449.849C854.603 450.193 854.977 450.427 855.415 450.568C855.836 450.786 856.274 450.88 856.758 450.864C857.664 450.833 858.585 450.536 859.21 449.849C859.835 449.163 860.225 448.335 860.225 447.398L860.225 443.496C860.241 443.012 860.147 442.574 859.928 442.153C859.788 441.716 859.553 441.357 859.21 441.045C858.897 440.701 858.523 440.467 858.085 440.326C857.664 440.108 857.226 440.014 856.742 440.03C855.836 440.077 854.915 440.373 854.29 441.045C853.665 441.716 853.275 442.559 853.275 443.496L853.275 447.398C853.259 447.882 853.353 448.32 853.572 448.741C853.712 449.163 853.947 449.537 854.29 449.849Z" fill="#549CFB"/>
<path d="M1064.13 384.374C1068.6 384.374 1068.62 377.427 1064.13 377.427C1059.67 377.427 1059.65 384.374 1064.13 384.374Z" fill="#549CFB"/>
<path d="M1220.64 778.256C1223.63 778.256 1223.63 773.619 1220.64 773.619C1217.68 773.635 1217.66 778.256 1220.64 778.256Z" fill="#549CFB"/>
<path d="M770.671 990.621C775.138 990.621 775.153 983.674 770.671 983.674C766.189 983.674 766.189 990.621 770.671 990.621Z" fill="#549CFB"/>
<path d="M730.486 629.196C739.325 629.196 739.341 620.516 730.486 620.516C721.646 620.5 721.63 629.196 730.486 629.196Z" fill="#549CFB"/>
<path d="M790.865 775.305C791.178 775.54 791.49 775.789 791.802 776.024C792.521 776.445 793.302 776.648 794.145 776.648L798.049 776.648C798.69 776.679 799.283 776.539 799.83 776.242C800.408 776.055 800.908 775.743 801.314 775.29C801.767 774.868 802.079 774.369 802.266 773.807C802.563 773.26 802.688 772.667 802.672 772.027C802.61 771.621 802.563 771.2 802.501 770.794C802.282 770.013 801.876 769.326 801.314 768.749C801.001 768.499 800.689 768.265 800.377 768.03C799.658 767.609 798.877 767.406 798.034 767.39L794.129 767.39C793.489 767.359 792.895 767.5 792.349 767.796C791.771 767.984 791.271 768.311 790.865 768.749C790.412 769.17 790.1 769.67 789.912 770.232C789.616 770.778 789.491 771.371 789.522 772.011C789.584 772.417 789.631 772.839 789.678 773.245C789.897 774.041 790.287 774.728 790.865 775.305Z" fill="#549CFB"/>
<path d="M621.971 797.38C629.421 797.38 629.437 785.797 621.971 785.797C614.521 785.797 614.506 797.38 621.971 797.38Z" fill="#549CFB"/>
<path d="M605.025 939.056C610.992 939.056 610.992 929.798 605.025 929.798C599.059 929.783 599.044 939.056 605.025 939.056Z" fill="#549CFB"/>
<path d="M1095.43 929.205C1101.4 929.205 1101.4 919.947 1095.43 919.947C1089.48 919.947 1089.47 929.205 1095.43 929.205Z" fill="#549CFB"/>
<path d="M614.146 466.07C623.096 466.07 623.096 452.176 614.146 452.176C605.213 452.191 605.197 466.07 614.146 466.07Z" fill="#549CFB"/>
<path d="M723.707 273.266C731.157 273.266 731.173 261.682 723.707 261.682C716.257 261.682 716.242 273.266 723.707 273.266Z" fill="#549CFB"/>
<path d="M578.928 191.133C586.377 191.133 586.393 179.55 578.928 179.55C571.478 179.55 571.478 191.133 578.928 191.133Z" fill="#549CFB"/>
<path d="M363.726 556.04C372.66 556.04 372.675 542.146 363.726 542.146C354.777 542.146 354.761 556.04 363.726 556.04Z" fill="#549CFB"/>
<path d="M426.323 746.533C433.773 746.533 433.789 734.949 426.323 734.949C418.873 734.949 418.873 746.533 426.323 746.533Z" fill="#549CFB"/>
<path d="M359.806 891.409C352.356 891.409 352.34 902.977 359.806 902.977C367.256 902.977 367.271 891.409 359.806 891.409Z" fill="#549CFB"/>
<path d="M610.242 667.289C619.191 667.289 619.191 653.394 610.242 653.394C601.293 653.394 601.277 667.289 610.242 667.289Z" fill="#549CFB"/>
<path d="M490.248 1059C496.214 1059 496.214 1049.74 490.248 1049.74C484.282 1049.73 484.266 1059 490.248 1059Z" fill="#549CFB"/>
<path d="M473.287 489.987C477.754 489.987 477.769 483.04 473.287 483.04C468.82 483.04 468.804 489.987 473.287 489.987Z" fill="#549CFB"/>
<path d="M330.163 708.222C330.475 708.566 330.85 708.8 331.287 708.94C331.709 709.159 332.146 709.253 332.63 709.237C333.536 709.206 334.458 708.909 335.082 708.222C335.707 707.535 336.098 706.708 336.098 705.771L336.098 701.868C336.113 701.384 336.019 700.947 335.801 700.526C335.66 700.089 335.426 699.73 335.082 699.417C334.77 699.074 334.395 698.84 333.958 698.699C333.536 698.481 333.099 698.387 332.615 698.403C331.709 698.449 330.787 698.746 330.163 699.417C329.538 700.089 329.147 700.932 329.147 701.868L329.147 705.771C329.132 706.255 329.226 706.692 329.444 707.114C329.585 707.535 329.835 707.91 330.163 708.222Z" fill="#549CFB"/>
<path d="M532.183 544.956C536.649 544.956 536.665 538.009 532.183 538.009C527.716 538.009 527.7 544.956 532.183 544.956Z" fill="#549CFB"/>
<path d="M90.019 654.471C94.4857 654.471 94.5013 647.524 90.019 647.524C85.5523 647.524 85.5523 654.471 90.019 654.471Z" fill="#549CFB"/>
<path d="M125.238 353.307C129.704 353.307 129.72 346.36 125.238 346.36C120.771 346.36 120.771 353.307 125.238 353.307Z" fill="#549CFB"/>
<path d="M270.658 376.584C270.97 376.818 271.283 377.068 271.595 377.302C272.313 377.724 273.094 377.927 273.938 377.927L277.858 377.927C278.498 377.958 279.092 377.817 279.638 377.521C280.216 377.333 280.716 377.021 281.138 376.568C281.591 376.147 281.903 375.647 282.09 375.07C282.387 374.523 282.512 373.93 282.496 373.29C282.434 372.884 282.387 372.463 282.325 372.057C282.106 371.276 281.7 370.589 281.138 370.012C280.825 369.762 280.513 369.528 280.201 369.293C279.482 368.872 278.701 368.669 277.858 368.653L273.938 368.653C273.297 368.622 272.704 368.763 272.157 369.059C271.579 369.247 271.079 369.559 270.673 370.012C270.22 370.433 269.908 370.933 269.721 371.495C269.424 372.041 269.299 372.634 269.315 373.274C269.362 373.68 269.424 374.102 269.471 374.508C269.69 375.319 270.08 376.006 270.658 376.584Z" fill="#549CFB"/>
<path d="M669.138 370.105C675.104 370.105 675.104 360.848 669.138 360.848C663.172 360.848 663.172 370.105 669.138 370.105Z" fill="#549CFB"/>
<path d="M931.303 428.774C937.269 428.774 937.269 419.516 931.303 419.516C925.337 419.516 925.321 428.774 931.303 428.774Z" fill="#549CFB"/>
<path d="M355.901 471.581C361.867 471.581 361.867 462.323 355.901 462.323C349.935 462.323 349.935 471.581 355.901 471.581Z" fill="#549CFB"/>
<path d="M1013.47 237.125C1019.44 237.125 1019.44 227.868 1013.47 227.868C1007.5 227.868 1007.5 237.125 1013.47 237.125Z" fill="#549CFB"/>
<path d="M488.936 276.014C494.902 276.014 494.902 266.756 488.936 266.756C482.97 266.756 482.97 276.014 488.936 276.014Z" fill="#549CFB"/>
<path d="M684.787 65.0226C690.753 65.0226 690.753 55.7649 684.787 55.7649C678.821 55.7649 678.821 65.0226 684.787 65.0226Z" fill="#549CFB"/>
<path d="M383.499 872.066C389.465 872.066 389.465 862.809 383.499 862.809C377.532 862.793 377.517 872.066 383.499 872.066Z" fill="#549CFB"/>
<path d="M905.221 13.8945C914.17 13.8945 914.17 0.000122168 905.221 0.000121777C896.272 0.000121386 896.256 13.8945 905.221 13.8945Z" fill="#549CFB"/>
<path d="M279.154 149.482C288.103 149.482 288.103 135.587 279.154 135.587C270.205 135.587 270.189 149.482 279.154 149.482Z" fill="#549CFB"/>
<path d="M912.842 618.611C921.791 618.611 921.791 604.717 912.842 604.717C903.893 604.717 903.878 618.611 912.842 618.611Z" fill="#549CFB"/>
<circle cx="520.5" cy="39.5001" r="9.5" fill="#549CFB"/>
<circle cx="596" cy="15.0001" r="5" fill="#549CFB"/>
</g>
</g>
<defs>
<radialGradient id="paint0_radial" cx="0" cy="0" r="1" gradientUnits="userSpaceOnUse" gradientTransform="translate(664.042 534.385) rotate(90) scale(1191 1191.49)">
<stop stop-color="white"/>
<stop offset="0.1269" stop-color="white"/>
<stop offset="0.6802"/>
<stop offset="1"/>
</radialGradient>
<clipPath id="clip0">
<rect width="1059" height="1518" fill="white" transform="translate(1404 0.00012207) rotate(90)"/>
</clipPath>
</defs>
</svg>
