<svg width="608" height="556" viewBox="0 0 608 556" fill="none" xmlns="http://www.w3.org/2000/svg">
<path d="M370.806 553.161L7.48577 408.985C0.321508 406.83 -2.12797 403.313 2.01588 401.121L208.024 322.173C212.168 319.981 221.333 319.945 228.497 322.099L589.737 431.374C606.619 436.586 611.874 442.854 601.358 447.244L402.49 550.705C392.324 556.611 383.256 557.789 370.806 553.161Z" fill="#4E2CBE"/>
<path d="M606.506 417.22C605.942 418.706 604.198 420.118 601.184 421.383L402.414 524.887C392.223 530.786 383.303 532.02 371.314 527.57L21.7322 388.784C17.84 387.63 15.4274 386.034 14.7951 384.469C14.2978 383.247 14.8871 382.05 16.6982 381.086L217.555 303.175C224.793 299.959 233.64 297.546 241.682 300.358L590.465 405.869C602.074 409.418 607.9 413.549 606.506 417.22ZM380.117 515.605L577.1 411.443L236.513 307.786L42.7154 385.813L380.117 515.605Z" fill="#4D4D4D"/>
<path d="M606.506 417.22C606.23 426.38 606.414 433.004 596.555 437.154L393.967 542.807C387.539 546.38 382.744 547.257 370.755 542.807L22.4995 405.163C9.1348 400.08 12.4437 388.925 14.8011 384.462C15.4273 386.028 17.8461 387.624 21.7321 388.778L371.307 527.563C383.303 532.014 392.217 530.78 402.408 524.887L601.184 421.383C604.198 420.112 605.942 418.706 606.506 417.22Z" fill="#333333"/>
<path d="M577.1 411.444L380.117 515.605L42.7153 385.813L236.513 307.786L577.1 411.444Z" fill="url(#paint0_linear)"/>
<path d="M606.506 417.221C605.942 418.706 604.198 420.118 601.184 421.383L402.414 524.887C392.223 530.787 383.309 532.021 371.314 527.564L21.7321 388.785C17.84 387.63 15.4273 386.034 14.8012 384.469C14.3039 383.247 14.8933 382.05 16.7043 381.086L217.561 303.176C224.799 299.959 233.646 297.546 241.688 300.358L590.471 405.869C602.074 409.418 607.9 413.549 606.506 417.221Z" stroke="#0C1C2E" stroke-width="1.359" stroke-miterlimit="10"/>
<path d="M606.562 415.502C606.537 416.085 606.519 416.656 606.506 417.221C606.23 426.38 606.414 433.004 596.555 437.154L393.967 542.807C387.539 546.38 382.744 547.258 370.755 542.807L22.4995 405.163C9.1348 400.08 12.4437 388.926 14.8011 384.463C14.838 384.389 14.8748 384.328 14.9055 384.26" stroke="#0C1C2E" stroke-width="1.359" stroke-miterlimit="10"/>
<path d="M577.1 411.444L380.117 515.605L42.7153 385.813L236.513 307.786L577.1 411.444Z" stroke="#0C1C2E" stroke-width="1.359" stroke-miterlimit="10"/>
<path d="M238.925 308.142C238.729 358.943 238.471 409.743 238.33 460.544C207.137 447.695 176.639 436.46 144.703 425.748C111.061 414.458 79.1016 398.981 46.1042 386.016C110.583 360.576 174.65 334.098 238.925 308.142Z" fill="url(#paint1_linear)"/>
<g opacity="0.2">
<path d="M100.06 408.576C123.438 400.688 144.802 390.159 166.736 379.035C188.898 367.795 215.401 361.03 238.502 352.122C263.905 360.268 286.386 369.201 311.556 377.992C332.368 385.26 353.873 389.048 375.046 394.948C397.791 401.289 417.369 414.347 439.813 421.45C466.168 429.799 493.376 435.306 519.829 443.409" stroke="#0F243C" stroke-miterlimit="10" stroke-linecap="round"/>
<path d="M153.611 428.62C166.853 421.321 182.213 414.752 195.222 407.066C209.347 400.86 224.566 393.953 238.809 389.263C262.045 396.133 277.945 402.664 299.585 412.591C317.388 419.344 332.269 425.839 350.122 430.216C391.094 440.254 428.216 455.024 468.409 467.843" stroke="#0F243C" stroke-miterlimit="10" stroke-linecap="round"/>
<path d="M198.064 442.881C209.243 436.638 227.151 432.942 238.502 427.018C271.082 439.775 295.908 450.113 329.268 460.715C361.755 471.041 392.058 480.747 424.515 491.171" stroke="#0F243C" stroke-miterlimit="10" stroke-linecap="round"/>
<path d="M199.464 324.889C199.464 364.332 198.543 403.702 199.206 443.152" stroke="#0F243C" stroke-miterlimit="10" stroke-linecap="round"/>
<path d="M156.03 342.582C156.03 371.963 158.351 400.098 157.16 429.474" stroke="#0F243C" stroke-miterlimit="10" stroke-linecap="round"/>
<path d="M117.962 357.592C119.269 377.132 124.002 397.453 121.553 416.889" stroke="#0F243C" stroke-miterlimit="10" stroke-linecap="round"/>
<path d="M238.606 308.799C238.606 359.2 238.575 409.602 238.606 460.003" stroke="#0F243C" stroke-miterlimit="10" stroke-linecap="round"/>
<path d="M272.917 318.449V472.993" stroke="#0F243C" stroke-miterlimit="10" stroke-linecap="round"/>
<path d="M310.451 330.249C310.451 357.721 308.591 385.205 308.775 412.653C308.947 438.099 310.451 463.49 310.451 488.961" stroke="#0F243C" stroke-miterlimit="10" stroke-linecap="round"/>
<path d="M352.277 343.116C352.277 369.655 347.218 395.912 349.354 422.389C351.54 449.536 352.277 476.198 352.277 503.437" stroke="#0F243C" stroke-miterlimit="10" stroke-linecap="round"/>
<path d="M393.562 355.449C392.107 406.667 393.562 457.554 393.562 508.802" stroke="#0F243C" stroke-miterlimit="10" stroke-linecap="round"/>
<path d="M436.339 370.336C435.952 408.638 436.461 446.909 436.461 485.21" stroke="#0F243C" stroke-miterlimit="10" stroke-linecap="round"/>
<path d="M478.102 383.646C477.918 410.001 478.182 436.337 478.28 462.686" stroke="#0F243C" stroke-miterlimit="10" stroke-linecap="round"/>
<path d="M526.005 396.2V438.56" stroke="#0F243C" stroke-miterlimit="10" stroke-linecap="round"/>
</g>
<path d="M505.777 466.541L482.872 478.316C479.864 479.863 475.149 480.133 472.338 478.918L468.924 477.444C466.113 476.229 466.272 473.988 469.281 472.441L492.185 460.666C495.193 459.119 499.908 458.849 502.72 460.065L506.133 461.538C508.945 462.754 508.785 464.994 505.777 466.541Z" stroke="#0C1C2E" stroke-width="1.551" stroke-miterlimit="10"/>
<path d="M481.859 477.794C479.483 479.016 475.499 479.2 473.277 478.243C473.277 478.243 470.778 477.616 469.078 476.634C466.984 475.425 467.414 474.191 469.79 472.969L492.578 461.354C494.954 460.132 499.104 459.476 502.321 460.82L506.164 462.52C508.38 463.478 507.379 464.786 505.003 466.007L481.859 477.794Z" stroke="#0BF1FF" stroke-width="2" stroke-miterlimit="10"/>
<path d="M141.284 349.808H140.787C140.48 349.808 140.48 350.286 140.787 350.286H141.284C141.591 350.286 141.591 349.808 141.284 349.808Z" fill="#45F4FF"/>
<path d="M169.431 329.61C170.045 329.61 170.045 328.659 169.431 328.659C168.824 328.659 168.817 329.61 169.431 329.61Z" fill="#45F4FF"/>
<path d="M182.004 376.083C181.937 376.015 181.863 375.966 181.777 375.935C181.691 375.892 181.599 375.868 181.501 375.874C181.316 375.88 181.126 375.942 180.997 376.083C180.868 376.224 180.789 376.396 180.789 376.586V377.39C180.782 377.489 180.807 377.581 180.85 377.667C180.881 377.759 180.93 377.832 180.997 377.9C181.065 377.967 181.138 378.017 181.231 378.047C181.316 378.09 181.409 378.115 181.507 378.109C181.691 378.102 181.881 378.041 182.01 377.9C182.139 377.759 182.219 377.587 182.219 377.396V376.592C182.225 376.494 182.201 376.402 182.158 376.316C182.121 376.224 182.072 376.144 182.004 376.083Z" fill="#45F4FF"/>
<path d="M138.871 389.546C137.95 389.546 137.95 390.976 138.871 390.976C139.792 390.976 139.792 389.546 138.871 389.546Z" fill="#45F4FF"/>
<path d="M207.45 339.206C205.633 339.206 205.627 340.992 207.45 340.992C209.268 340.992 209.274 339.206 207.45 339.206Z" fill="#45F4FF"/>
<path d="M231.362 372.749C229.526 372.749 229.52 375.604 231.362 375.604C233.204 375.604 233.204 372.749 231.362 372.749Z" fill="#45F4FF"/>
<path d="M208.844 412.395C207.309 412.395 207.309 414.777 208.844 414.777C210.379 414.777 210.379 412.395 208.844 412.395Z" fill="#45F4FF"/>
<path d="M238.606 429.284C237.071 429.284 237.071 431.666 238.606 431.666C240.135 431.666 240.135 429.284 238.606 429.284Z" fill="#45F4FF"/>
<path d="M282.838 354.246C281.002 354.246 280.996 357.101 282.838 357.101C284.679 357.107 284.679 354.246 282.838 354.246Z" fill="#45F4FF"/>
<path d="M232.166 331.372C230.331 331.372 230.324 334.227 232.166 334.227C234.008 334.227 234.008 331.372 232.166 331.372Z" fill="#45F4FF"/>
<path d="M69.7026 335.657C68.7817 335.657 68.7817 337.088 69.7026 337.088C70.6235 337.088 70.6235 335.657 69.7026 335.657Z" fill="#45F4FF"/>
<path d="M260.32 367.832C259.399 367.832 259.399 369.262 260.32 369.262C261.241 369.256 261.241 367.832 260.32 367.832Z" fill="#45F4FF"/>
<path d="M500.804 399.196C499.884 399.196 499.884 400.627 500.804 400.627C501.719 400.627 501.719 399.196 500.804 399.196Z" fill="#45F4FF"/>
<path d="M470.913 394.414L470.723 394.267C470.576 394.181 470.416 394.138 470.244 394.138H469.44C469.311 394.132 469.188 394.162 469.072 394.218C468.955 394.254 468.851 394.322 468.765 394.414C468.673 394.5 468.605 394.604 468.568 394.721C468.507 394.838 468.482 394.954 468.488 395.089C468.501 395.175 468.513 395.255 468.519 395.341C468.562 395.501 468.648 395.642 468.765 395.758C468.826 395.808 468.894 395.857 468.955 395.906C469.102 395.992 469.262 396.035 469.434 396.035H470.238C470.367 396.041 470.49 396.01 470.606 395.955C470.723 395.918 470.827 395.851 470.913 395.758C471.005 395.672 471.073 395.568 471.11 395.451C471.171 395.335 471.196 395.218 471.19 395.083L471.153 394.831C471.11 394.672 471.03 394.531 470.913 394.414Z" fill="#45F4FF"/>
<path d="M400.941 468.408C400.855 468.316 400.75 468.248 400.634 468.211C400.517 468.15 400.4 468.125 400.265 468.132C400.179 468.144 400.1 468.156 400.014 468.168C399.854 468.211 399.713 468.297 399.596 468.414C399.547 468.475 399.498 468.543 399.449 468.604C399.363 468.752 399.32 468.911 399.32 469.083V469.887C399.314 470.016 399.344 470.139 399.4 470.256C399.437 470.372 399.504 470.477 399.596 470.563C399.682 470.655 399.786 470.722 399.903 470.759C400.02 470.82 400.136 470.845 400.271 470.839L400.523 470.808C400.683 470.765 400.824 470.679 400.947 470.563L401.094 470.372C401.18 470.225 401.223 470.065 401.223 469.893V469.089C401.229 468.96 401.198 468.838 401.143 468.721C401.1 468.598 401.033 468.494 400.941 468.408Z" fill="#45F4FF"/>
<path d="M389.006 395.74C387.778 395.74 387.778 397.643 389.006 397.643C390.228 397.649 390.234 395.74 389.006 395.74Z" fill="#45F4FF"/>
<path d="M335.118 383.677C333.89 383.677 333.89 385.58 335.118 385.58C336.346 385.586 336.346 383.677 335.118 383.677Z" fill="#45F4FF"/>
<path d="M284.446 371.614C283.218 371.614 283.218 373.517 284.446 373.517C285.674 373.517 285.674 371.614 284.446 371.614Z" fill="#45F4FF"/>
<path d="M318.229 423.09C317.002 423.09 317.002 424.993 318.229 424.993C319.451 424.993 319.457 423.09 318.229 423.09Z" fill="#45F4FF"/>
<path d="M257.103 411.83C255.875 411.83 255.875 413.733 257.103 413.733C258.325 413.733 258.331 411.83 257.103 411.83Z" fill="#45F4FF"/>
<path d="M385.79 458.475C384.562 458.475 384.562 460.378 385.79 460.378C387.011 460.384 387.017 458.475 385.79 458.475Z" fill="#45F4FF"/>
<path d="M394.102 453.981H393.028C392.279 453.981 391.566 454.638 391.597 455.412C391.634 456.185 392.223 456.842 393.028 456.842H394.102C394.851 456.842 395.563 456.185 395.532 455.412C395.495 454.632 394.9 453.981 394.102 453.981Z" fill="#45F4FF"/>
<path d="M340.477 468.991C338.642 468.991 338.635 471.846 340.477 471.846C342.319 471.852 342.319 468.991 340.477 468.991Z" fill="#45F4FF"/>
<path d="M469.164 441.114C467.328 441.114 467.322 443.968 469.164 443.968C471.005 443.968 471.005 441.114 469.164 441.114Z" fill="#45F4FF"/>
<path d="M169.972 341.379C168.136 341.379 168.13 344.234 169.972 344.234C171.807 344.234 171.813 341.379 169.972 341.379Z" fill="#45F4FF"/>
<g filter="url(#filter0_f)">
<path d="M238.195 20L574.318 20V413.819L238.195 308.842L238.195 20Z" fill="url(#paint2_linear)"/>
</g>
<g filter="url(#filter1_f)">
<path d="M236.967 183.298L44.201 206.013V385.887L236.967 307.921V183.298Z" fill="url(#paint3_linear)"/>
</g>
<g opacity="0.39">
<g opacity="0.39">
<path opacity="0.39" d="M387.502 368.673C384.648 370.165 381.228 369.827 378.03 369.446C375.593 369.158 373.155 368.863 370.718 368.575C369.607 368.44 368.459 368.298 367.483 367.746C366.181 367.009 365.377 365.659 364.512 364.443C360.656 359.059 354.757 355.591 349.612 351.422C348.01 350.121 346.401 348.641 345.763 346.677C345.125 344.712 345.843 342.158 347.783 341.446C349.833 340.691 351.945 342.195 353.811 343.337C361.718 348.156 371.793 347.088 380.676 349.703C384.592 350.857 394.212 352.674 395.422 357.217C396.465 361.195 390.535 367.083 387.502 368.673Z" fill="#2979E1"/>
</g>
</g>
<path d="M297.197 413.623C297.154 413.469 297.136 413.322 297.136 413.175H297.08L257.956 451.323L267.945 453.613L276.527 459.512L289.572 460.765L297.436 465.946L298.996 461.735L315.221 417.92C315.221 417.92 315.897 414.783 313.705 414.255L313.429 414.132C312.508 416.386 308.806 418.718 304.318 418.184C300.96 417.779 297.664 415.422 297.197 413.623Z" fill="#85B71B"/>
<path d="M313.613 413.064C315.098 412.524 319.009 410.891 320.01 406.508C320.188 405.71 322.312 395.537 322.171 394.285L322.257 394.279C323.239 383.315 325.013 371.583 327.653 360.655C320.967 362.767 309.917 361.122 302.513 358.408C301.783 361.773 300.954 365.61 300.138 369.661C296.865 385.893 293.784 405.403 297.578 410.639L297.522 410.682C297.277 411.996 297.578 412.401 297.185 413.629C297.651 415.422 300.954 417.785 304.306 418.19C308.794 418.731 312.495 416.392 313.416 414.139C313.545 413.826 313.619 413.512 313.637 413.212L313.613 413.064Z" fill="#2979E1"/>
<path d="M373.923 360.189L374.242 360.275C380.019 358.101 385.796 355.928 391.573 353.755C392.966 353.227 396.791 350.882 399.314 346.879C400.216 345.449 400.959 343.804 401.352 341.962C402.942 334.577 403.01 330.083 402.371 325.239C402.236 324.251 402.083 323.25 401.898 322.206L401.481 321.807C398.694 324.766 395.532 327.056 391.984 328.37C384.543 331.133 381.64 330.893 374.402 324.318L374.371 324.349C371.437 324.871 368.834 325.129 366.507 325.129C362.639 325.141 359.551 324.441 357.028 323.054C355.15 322.022 353.572 320.623 352.215 318.842L351.957 319.039C351.871 319.063 351.792 319.088 351.706 319.106C344.548 321.095 333.067 323.95 323.834 327.547C322.901 327.916 321.993 328.29 321.115 328.665C318.156 329.936 315.528 331.292 313.496 332.729C312.152 333.68 309.868 335.203 307.959 338.143C306.614 340.212 305.448 342.987 304.938 346.756C304.711 348.439 303.741 352.754 302.501 358.408C309.905 361.128 320.955 362.767 327.641 360.655C328.095 358.771 328.58 356.904 329.083 355.075C329.36 354.062 329.673 353.006 330.385 352.233C330.962 351.6 331.741 351.207 332.515 350.839C340.612 346.922 348.888 343.386 357.317 340.261L357.421 340.132C357.605 340.286 357.789 340.433 357.986 340.568L358.225 340.851C358.029 341.01 357.839 341.176 357.642 341.342C354.972 343.656 352.491 346.259 350.785 349.359C348.065 354.301 347.525 360.109 347.046 365.732C346.948 366.886 346.794 368.354 346.604 370.066C349.207 371.221 352.688 372.068 356.641 372.209C363.64 372.461 368.668 371.865 372.093 370.852C372.4 368.016 372.818 365.223 373.376 362.528C373.554 361.736 373.733 360.956 373.923 360.189Z" fill="#2979E1"/>
<path d="M307.922 327.879C307.007 329.58 306.467 334.442 307.805 338.027L307.977 338.144C309.88 335.203 312.17 333.681 313.515 332.729C315.547 331.292 318.174 329.936 321.133 328.665L321.102 328.591C320.243 326.572 316.001 324.81 313.729 324.251H313.723C312.01 324.552 309.082 325.706 307.922 327.879Z" fill="#FFA261"/>
<path d="M301.752 462.76C301.353 464.166 307.32 465.387 310.292 466.216C311.354 466.511 313.551 470.09 317.081 471.391C321.115 472.883 326.542 472.128 327.978 472.644C330.679 473.62 336.217 477.567 336.217 477.567C340.115 471.717 356.641 446.375 360.791 440.702C365.709 433.998 364.456 431.77 362.13 430.155L361.847 430.1C361.718 430.745 361.528 431.383 361.325 432.022C360.626 434.232 347.764 437.449 344.529 431.052C335.953 436.411 308.61 456.074 301.979 462.41C301.863 462.527 301.783 462.643 301.752 462.76Z" fill="#85B71B"/>
<path d="M313.73 324.251C316.001 324.809 320.237 326.571 321.102 328.591L321.133 328.665C322.011 328.29 322.92 327.916 323.853 327.547L323.662 327.062C322.828 325.724 321.784 324.478 320.464 323.618C319.181 322.784 317.603 322.323 316.093 322.575C316.087 322.575 316.081 322.575 316.075 322.581H316.068C314.761 322.9 313.662 322.869 313.515 324.208C313.582 324.22 313.65 324.238 313.723 324.257L313.73 324.251Z" fill="#4E2CBE"/>
<path d="M340.809 308.866C335.376 311.242 328.396 313.293 322.729 315.773C317.812 317.928 316.621 320.26 316.044 322.391L316.075 322.575C316.081 322.569 316.087 322.569 316.093 322.569C317.603 322.317 319.181 322.777 320.464 323.612C321.784 324.472 322.821 325.718 323.662 327.056L323.853 327.541C333.092 323.95 344.566 321.089 351.724 319.1C351.816 317.701 351.81 314.723 351.841 310.745C351.871 307.068 351.939 302.513 352.154 297.546L352.043 297.54C349.238 289.621 347.93 270.031 351.454 257.538L351.319 257.145C347.881 258.348 344.357 262.91 342.792 274.844C341.257 286.563 342.362 296.502 341.14 308.253L342.681 308.4C342.049 308.369 341.398 308.486 340.784 308.793L340.809 308.866Z" fill="#2979E1"/>
<path d="M374.144 245.088C374.15 245.088 374.156 245.088 374.156 245.088C380.013 244.517 383.708 240.269 384.537 235.879C385.968 228.371 383.187 222.638 378.042 220.998C371.473 218.905 364.769 218.316 356.328 219.126C352.221 219.519 349.667 220.661 348.12 222.49C346.223 224.713 345.818 227.942 345.923 232.012C346.119 239.833 352.013 242.117 355.352 242.78C356.678 243.044 357.605 243.056 357.605 243.056L357.789 243.13C358.047 242.503 358.33 241.89 358.612 241.282L358.428 241.196C358.428 241.196 348.513 240.827 348.169 232.116C347.912 225.474 350.171 221.336 357.249 221.318C357.568 221.311 357.906 221.318 358.25 221.336C361.239 221.477 363.462 221.551 365.279 221.618C369.263 221.753 371.277 221.876 375.071 222.693C382.198 224.221 382.56 230.925 381.787 235.394C381.019 239.808 376.434 244.032 369.853 243.289C369.767 243.283 369.687 243.271 369.595 243.259L369.57 243.277C369.981 243.854 370.374 244.437 370.755 245.033L370.773 245.02C371.971 245.174 373.094 245.192 374.144 245.088Z" fill="#A3DF21"/>
<path d="M387.453 238.537C388.411 236.334 388.835 233.111 388.454 229.912C387.871 224.89 385.311 219.936 379.767 219.058C372.173 217.861 362.836 216.867 356.028 218.236C352.534 218.929 349.698 220.243 348.108 222.472L348.127 222.484C349.68 220.661 352.227 219.513 356.334 219.12C364.776 218.315 371.479 218.899 378.048 220.992C383.187 222.631 385.968 228.365 384.537 235.873C383.708 240.263 380.013 244.511 374.156 245.082C381.873 245.125 384.261 242.816 386.446 240.207C386.827 239.765 387.165 239.194 387.453 238.537Z" fill="#85B71B"/>
<path d="M357.249 221.311C350.171 221.33 347.912 225.467 348.169 232.116C348.513 240.827 358.428 241.196 358.428 241.196L358.612 241.282C358.686 241.116 358.765 240.95 358.851 240.784C359.207 240.06 359.606 239.311 360.159 238.734L359.367 238.556L356.868 227.831L359.551 228.015L357.249 221.477V221.311Z" fill="#3E94F6"/>
<path d="M345.346 381.46C343.381 399.098 341.103 423.28 345.247 425.87L344.934 426.091C344.897 426.294 344.854 426.521 344.805 426.779L346.273 427.166C349.36 430.118 358.336 430.254 361.958 427.976C361.982 427.958 362.007 427.945 362.025 427.927C364.272 426.527 369.656 423.464 370.792 403.365L370.743 402.916C371.074 397.631 371.025 390.853 371.265 383.671C360.945 384.751 352.062 383.529 345.346 381.46Z" fill="#2979E1"/>
<path d="M351.454 257.55C347.93 270.037 349.238 289.633 352.043 297.552L352.154 297.558C352.54 288.245 353.443 277.435 355.555 268.005L355.898 267.704C355.757 267.551 355.628 267.391 355.487 267.231C353.762 265.224 352.252 262.836 352.178 260.19C352.154 259.49 352.258 258.735 352.737 258.225L353.197 258.133C353.105 257.698 353.044 257.256 353.001 256.807L352.559 256.85C352.148 256.906 351.73 257.004 351.313 257.157L351.454 257.55Z" fill="#A3DF21"/>
<path d="M346.629 370.066C346.291 373.191 345.83 377.126 345.345 381.46C352.062 383.529 360.939 384.745 371.265 383.671C371.406 379.465 371.639 375.119 372.118 370.852C368.686 371.865 363.658 372.461 356.666 372.209C352.712 372.074 349.231 371.221 346.629 370.066Z" fill="#2979E1"/>
<path d="M353.204 258.133L352.743 258.225C352.264 258.735 352.16 259.49 352.184 260.19C352.264 262.836 353.768 265.224 355.493 267.231C355.635 267.391 355.764 267.551 355.905 267.704C358.563 270.718 361.055 272.757 364.782 274.463L364.776 274.549C368.238 274.537 371.694 273.598 374.678 271.842L374.629 271.762C374.647 271.025 374.733 270.276 374.868 269.515C375.095 268.269 375.458 267.004 375.863 265.733C376.133 264.892 376.415 264.045 376.692 263.204C377.471 260.841 378.183 258.483 378.208 256.236C378.214 255.88 378.196 255.506 377.987 255.217C377.735 254.874 377.256 254.781 376.833 254.886C376.704 254.917 376.575 254.972 376.458 255.033C375.973 255.309 375.654 255.801 375.353 256.267C374.254 257.992 373.149 259.723 372.044 261.442L371.743 261.774C368.447 258.79 365.396 255.549 362.615 252.074C361.737 250.981 360.877 249.852 359.809 248.943C359.57 248.734 359.3 248.532 358.98 248.507C358.379 248.452 357.894 249.072 357.869 249.674C357.845 250.282 358.152 250.84 358.446 251.368C360.429 254.861 362.197 258.201 364.61 261.412L364.567 261.442C361.399 258.219 358.231 255.002 355.064 251.779C355.015 251.73 354.965 251.681 354.916 251.632C354.64 251.356 354.358 251.073 354.002 250.926C353.639 250.779 353.179 250.809 352.921 251.098C352.657 251.393 352.676 251.829 352.743 252.215C352.909 253.118 353.253 253.977 353.67 254.8L353.511 254.904C353.13 254.8 352.933 255.346 352.94 255.739C352.946 256.101 352.97 256.464 353.001 256.82C353.05 257.249 353.111 257.691 353.204 258.133Z" fill="#FFA261"/>
<path d="M344.277 430.775L344.4 430.788C344.443 430.88 344.48 430.972 344.535 431.058C347.77 437.455 360.632 434.238 361.332 432.022C361.534 431.383 361.724 430.745 361.853 430.1C362.001 429.4 362.087 428.688 362.05 427.951L362.031 427.921C362.007 427.939 361.982 427.951 361.964 427.97C358.342 430.247 349.367 430.118 346.279 427.159L344.811 426.773C344.621 427.853 344.406 429.388 344.277 430.775Z" fill="#2979E1"/>
<path d="M355.665 214.08C358.317 207.179 376.661 207.087 383.942 212.287C389.571 216.308 391.223 220.661 391.72 228.371L391.763 228.457C395.219 226.855 397.693 225.418 398.301 224.209H398.319C398.338 224.013 398.381 223.638 398.43 223.11C398.872 217.646 399.4 196.154 380.467 194.048C356.955 191.439 355.573 214.338 355.573 214.338C355.598 214.252 355.628 214.172 355.665 214.08Z" fill="#2979E1"/>
<path d="M355.665 214.086C355.561 215.363 355.72 216.916 355.899 217.616L356.027 218.242C362.836 216.873 372.173 217.867 379.767 219.064C385.311 219.936 387.871 224.896 388.454 229.918L388.528 229.912C389.676 229.421 390.762 228.936 391.763 228.463L391.72 228.377C391.229 220.673 389.577 216.314 383.942 212.293C376.661 207.087 358.317 207.179 355.665 214.086Z" fill="#FFA261"/>
<path d="M355.561 267.999C353.443 277.428 352.547 288.239 352.154 297.552C351.939 302.525 351.871 307.074 351.841 310.757L352.295 310.763C353.781 312.673 355.211 314.213 357.47 315.38C359.263 316.313 361.571 317.007 364.837 317.479C365.635 317.59 366.353 317.694 367.065 317.707C367.778 317.731 368.49 317.657 369.269 317.436L369.361 317.387C367.317 313.544 365.107 307.847 364.051 300.1C361.817 283.672 364.241 282.518 364.241 282.518L364.628 282.37C364.309 279.773 364.143 277.152 364.149 274.537C364.358 274.543 364.573 274.543 364.782 274.543V274.457C361.049 272.75 358.557 270.712 355.905 267.698L355.561 267.999Z" fill="#2979E1"/>
<path d="M352.234 318.842C353.59 320.623 355.168 322.029 357.047 323.054C356.789 320.261 356.678 318.407 357.323 315.669L357.476 315.374C355.217 314.201 353.787 312.667 352.301 310.757L351.847 310.751C351.81 314.729 351.816 317.701 351.73 319.106C351.816 319.088 351.896 319.063 351.982 319.039L352.234 318.842Z" fill="#A3DF21"/>
<path d="M376.163 254.751C376.366 253.314 374.322 251.043 373.616 249.803C372.695 248.194 371.762 246.586 370.761 245.033C370.387 244.437 369.988 243.854 369.576 243.277C368.962 242.393 368.306 241.527 367.612 240.705C366.783 239.722 365.868 238.771 364.726 238.188C363.578 237.61 362.148 237.457 361.025 238.077C360.699 238.255 360.423 238.482 360.165 238.746C359.613 239.323 359.214 240.072 358.858 240.797C358.778 240.962 358.698 241.128 358.618 241.294C358.33 241.902 358.053 242.516 357.795 243.142C356.905 245.241 356.175 247.421 355.616 249.637C355.444 250.331 355.278 251.03 355.137 251.73L355.082 251.786C358.244 255.009 361.418 258.225 364.585 261.448L364.628 261.418C362.216 258.207 360.448 254.867 358.465 251.374C358.17 250.846 357.863 250.288 357.888 249.68C357.912 249.078 358.397 248.452 358.993 248.513C359.312 248.538 359.582 248.747 359.821 248.949C360.89 249.858 361.749 250.987 362.621 252.08C365.402 255.555 368.453 258.802 371.749 261.78L372.05 261.448C373.149 259.729 374.254 257.998 375.359 256.273C375.66 255.8 375.979 255.309 376.464 255.039C376.581 254.978 376.71 254.929 376.839 254.892L376.163 254.751Z" fill="#A3DF21"/>
<path d="M355.352 242.774C355.377 245.057 355.444 247.329 355.548 249.606L355.61 249.619C356.169 247.403 356.899 245.229 357.789 243.124L357.599 243.05C357.605 243.05 356.678 243.044 355.352 242.774Z" fill="#FFA261"/>
<path opacity="0.9" d="M356.868 227.837L359.367 238.562L360.159 238.74C360.411 238.476 360.693 238.249 361.018 238.071C362.142 237.457 363.572 237.604 364.72 238.182C365.862 238.765 366.777 239.716 367.606 240.699C368.305 241.527 368.956 242.387 369.57 243.271L369.595 243.252C369.687 243.265 369.767 243.277 369.852 243.283L369.914 242.755L365.801 231.404L368.281 231.717L365.267 221.931L365.279 221.606C363.462 221.539 361.239 221.465 358.25 221.324C357.906 221.305 357.568 221.299 357.249 221.305V221.471L359.551 228.009L356.868 227.837Z" fill="url(#paint4_linear)"/>
<path d="M357.317 315.675C356.672 318.413 356.783 320.267 357.04 323.06C359.564 324.447 362.651 325.147 366.519 325.135V324.895C366.501 322.286 367.072 320.709 367.053 318.106L367.065 317.713C366.353 317.694 365.635 317.596 364.837 317.486C361.571 317.019 359.263 316.319 357.47 315.386L357.317 315.675Z" fill="#006838"/>
<path d="M365.279 221.612L365.267 221.938L368.281 231.723L365.801 231.41L369.914 242.761L369.852 243.289C376.434 244.026 381.019 239.802 381.787 235.394C382.56 230.925 382.198 224.221 375.071 222.693C371.277 221.87 369.263 221.747 365.279 221.612Z" fill="#3E94F6"/>
<path d="M386.379 307.497C386.17 307.184 385.986 306.847 385.832 306.527C382.843 300.18 383.15 292.825 381.468 286.011C380.989 284.089 380.135 281.977 378.281 281.302L377.741 281.198L377.876 280.756C377.066 277.686 376.047 274.678 374.825 271.75C374.776 271.78 374.727 271.805 374.678 271.836C371.694 273.591 368.244 274.531 364.776 274.543C364.567 274.543 364.352 274.537 364.143 274.537C364.137 277.152 364.303 279.773 364.622 282.37L364.235 282.517C364.235 282.517 361.804 283.672 364.045 300.1C365.095 307.847 367.311 313.544 369.355 317.387C371.639 321.697 373.714 323.692 373.714 323.692C373.953 323.913 374.181 324.122 374.408 324.318C381.64 330.893 384.543 331.126 391.99 328.37C395.538 327.056 398.7 324.766 401.487 321.807C404.882 318.216 407.712 313.636 410.008 308.627C413.513 300.965 415.766 292.309 416.81 284.66C417.627 278.687 417.455 272.486 415.441 266.808C414.416 263.916 412.893 261.166 410.923 258.821L410.855 258.882C408.166 258.753 404.366 262.062 401.37 268.416C398.884 273.69 393.199 295.213 389.117 303.869C388.067 306.079 387.128 307.454 386.379 307.497Z" fill="#2979E1"/>
<path d="M367.053 318.1C367.072 320.709 366.501 322.286 366.519 324.889V325.129C368.846 325.129 371.442 324.871 374.383 324.349L374.414 324.318C374.187 324.116 373.959 323.907 373.72 323.692C373.72 323.692 371.645 321.691 369.361 317.387L369.269 317.43C368.496 317.651 367.784 317.725 367.065 317.707L367.053 318.1Z" fill="#A3DF21"/>
<path d="M370.78 245.02L370.761 245.033C371.762 246.586 372.695 248.2 373.616 249.809C374.322 251.049 376.366 253.32 376.164 254.757L376.839 254.886C377.269 254.781 377.741 254.874 377.993 255.217C378.202 255.506 378.22 255.88 378.214 256.236C378.189 258.489 377.477 260.847 376.698 263.204L377.158 263.352C380.007 262.59 382.935 261.669 385.114 259.687C390.824 254.481 392.788 246.61 392.26 237.144L392.002 236.61C390.535 237.304 389.037 237.942 387.453 238.55C387.165 239.207 386.827 239.778 386.453 240.226C384.267 242.835 381.873 245.143 374.162 245.1C374.162 245.1 374.156 245.1 374.15 245.1C373.094 245.186 371.971 245.174 370.78 245.02Z" fill="#FFA261"/>
<path d="M374.874 269.503C374.739 270.264 374.653 271.013 374.635 271.75L374.684 271.829C374.733 271.805 374.782 271.78 374.831 271.75C376.047 274.678 377.066 277.686 377.882 280.756L377.747 281.198L378.288 281.302C380.141 281.977 380.995 284.089 381.468 286.011C383.15 292.825 382.843 300.173 385.832 306.527C385.986 306.847 386.17 307.184 386.379 307.497C387.128 307.454 388.067 306.079 389.111 303.863C388.57 291.53 390.05 279.896 393.5 268.029L393.31 267.845C392.616 268.576 391.898 269.288 391.155 269.975C389.731 271.295 388.165 272.554 386.293 273.07C384.242 273.634 382.014 273.248 380.062 272.394C378.109 271.547 376.876 270.823 375.163 269.558L374.874 269.503Z" fill="#2979E1"/>
<path d="M400.542 251.448C400.026 253.284 398.964 254.96 397.871 256.537C395.827 259.484 393.604 262.308 391.21 264.985C389.479 266.925 387.484 268.877 384.93 269.307C381.633 269.859 378.545 267.735 375.887 265.721H375.875C375.47 266.992 375.108 268.257 374.88 269.503L375.163 269.558C376.876 270.829 378.11 271.547 380.062 272.395C382.014 273.248 384.242 273.641 386.293 273.07C388.165 272.548 389.731 271.289 391.155 269.976C391.898 269.288 392.616 268.576 393.31 267.845C395.943 265.107 398.276 262.093 400.462 258.999C401.733 257.207 402.985 255.303 403.562 253.21C403.709 252.688 403.807 252.16 403.857 251.614C404.071 249.263 402.96 246.629 400.922 245.591C400.603 245.432 400.259 245.309 399.897 245.229L399.725 245.242C399.885 247.298 400.087 249.349 400.339 251.393L400.542 251.448Z" fill="#A3DF21"/>
<path d="M375.869 265.727H375.881C378.546 267.741 381.627 269.865 384.924 269.312C387.484 268.883 389.479 266.924 391.204 264.991C393.598 262.32 395.821 259.496 397.865 256.543C398.958 254.966 400.02 253.283 400.536 251.454L400.333 251.411C400.081 249.367 399.873 247.316 399.719 245.26C399.388 241.005 399.252 236.733 399.308 232.46L399.081 232.27C399.025 232.337 398.97 232.405 398.909 232.472C398.461 232.994 397.877 233.368 397.288 233.731C395.526 234.817 393.789 235.757 391.99 236.604L392.248 237.138C392.782 246.61 390.817 254.474 385.108 259.68C382.923 261.663 380 262.584 377.152 263.345L376.692 263.198C376.421 264.039 376.139 264.88 375.869 265.727Z" fill="#2979E1"/>
<path d="M398.313 224.209H398.295C397.687 225.412 395.207 226.849 391.757 228.457C390.756 228.93 389.669 229.409 388.521 229.906L388.448 229.912C388.834 233.111 388.411 236.334 387.447 238.537C389.031 237.924 390.529 237.291 391.996 236.598C393.795 235.75 395.532 234.811 397.294 233.724C397.877 233.362 398.467 232.994 398.909 232.466C398.97 232.398 399.031 232.325 399.081 232.263C399.762 231.465 400.357 230.716 400.56 229.673C401.027 227.199 400.855 224.804 398.81 223.153L398.424 223.116C398.375 223.638 398.338 224.019 398.313 224.209Z" fill="#85B71B"/>
<path d="M393.494 268.03C390.044 279.896 388.571 291.53 389.105 303.863C393.187 295.207 398.878 273.684 401.358 268.41C404.354 262.056 408.154 258.754 410.843 258.876L410.911 258.815C409.014 256.55 406.699 254.646 404.041 253.351L403.556 253.21C402.979 255.297 401.727 257.206 400.456 258.999C398.264 262.093 395.937 265.107 393.304 267.839L393.494 268.03Z" fill="#A3DF21"/>
<path d="M400.953 245.536L400.922 245.603C402.96 246.641 404.071 249.268 403.857 251.626C403.807 252.172 403.709 252.7 403.562 253.222L404.053 253.363C406.711 254.658 409.026 256.562 410.923 258.827C412.893 261.172 414.422 263.922 415.441 266.814C417.455 272.492 417.626 278.693 416.81 284.666C415.76 292.315 413.513 300.978 410.008 308.633L410.088 308.67C415.858 308.001 420.18 306.447 424.619 303.059L424.907 303.077C425.534 293.641 425.945 284.371 426.35 276.397C426.982 264.008 427.099 245.714 415.441 243.541L415.269 243.553C415.275 243.578 415.275 243.596 415.269 243.62C415.232 244.345 412.66 244.811 409.511 244.664C406.374 244.517 403.85 243.805 403.881 243.08C403.887 242.945 403.986 242.816 404.151 242.7L403.992 242.669C402.623 243.117 401.487 244.198 400.953 245.536Z" fill="#A3DF21"/>
<path d="M404.151 242.694C403.986 242.81 403.887 242.939 403.881 243.074C403.844 243.799 406.368 244.511 409.511 244.658C412.654 244.806 415.232 244.339 415.269 243.615C415.269 243.59 415.269 243.572 415.269 243.547C415.153 242.841 412.685 242.172 409.64 242.025C407.086 241.902 404.906 242.184 404.151 242.694Z" fill="#4E2CBE"/>
<path d="M399.32 346.879L399.59 347.051C405.121 349.673 411.874 347.935 416.006 345.787C417.406 345.056 418.75 344.135 419.597 342.809C420.359 341.612 420.647 340.188 420.911 338.8C421.967 333.263 422.796 327.056 423.459 320.567L422.949 320.518C417.737 324.509 410.291 326.983 402.985 325.153L402.377 325.239C403.016 330.083 402.948 334.577 401.358 341.962C400.959 343.804 400.216 345.449 399.32 346.879Z" fill="#A3DF21"/>
<path d="M401.487 321.808L401.905 322.207C402.089 323.25 402.242 324.251 402.377 325.239L402.985 325.153C410.29 326.977 417.737 324.509 422.949 320.518L423.459 320.567C424.048 314.852 424.508 308.934 424.895 303.065L424.607 303.047C420.174 306.442 415.846 307.995 410.076 308.658L409.996 308.621C407.706 313.636 404.882 318.216 401.487 321.808Z" fill="#006838"/>
<path d="M358.937 241.196C358.937 241.196 349.017 240.827 348.679 232.116C348.421 225.474 350.68 221.336 357.759 221.311C358.078 221.305 358.415 221.311 358.759 221.33C361.749 221.471 363.971 221.545 365.788 221.612C369.773 221.747 371.786 221.87 375.58 222.687C382.708 224.215 383.076 230.919 382.302 235.388C381.535 239.796 376.949 244.026 370.368 243.283C370.282 243.277 370.202 243.265 370.11 243.252" stroke="#1F4066" stroke-width="1.363" stroke-miterlimit="10" stroke-linecap="round" stroke-linejoin="round"/>
<path d="M374.647 245.088C373.597 245.192 372.468 245.174 371.277 245.021" stroke="#1F4066" stroke-width="1.363" stroke-miterlimit="10" stroke-linecap="round" stroke-linejoin="round"/>
<path d="M358.109 243.05C358.109 243.05 357.188 243.037 355.856 242.773C352.522 242.11 346.623 239.827 346.426 232.005C346.328 227.935 346.727 224.706 348.624 222.484C350.171 220.661 352.725 219.513 356.832 219.12C365.273 218.315 371.977 218.899 378.546 220.992C383.684 222.631 386.465 228.365 385.041 235.873C384.212 240.262 380.516 244.511 374.659 245.082" stroke="#1F4066" stroke-width="1.363" stroke-miterlimit="10" stroke-linecap="round" stroke-linejoin="round"/>
<path d="M356.169 214.08C356.181 213.957 356.193 213.84 356.206 213.724" stroke="#1F4066" stroke-width="1.363" stroke-miterlimit="10" stroke-linecap="round" stroke-linejoin="round"/>
<path d="M356.402 217.61C356.224 216.91 356.064 215.357 356.169 214.08" stroke="#1F4066" stroke-width="1.363" stroke-miterlimit="10" stroke-linecap="round" stroke-linejoin="round"/>
<path d="M392.223 228.371C391.732 220.667 390.081 216.308 384.445 212.287C377.158 207.087 358.814 207.179 356.162 214.08V214.086C356.126 214.172 356.095 214.258 356.064 214.344C356.064 214.344 357.445 191.445 380.958 194.054C399.897 196.16 399.369 217.653 398.921 223.116C398.872 223.644 398.835 224.019 398.81 224.215C398.798 224.313 398.786 224.369 398.786 224.369" stroke="#1F4066" stroke-width="1.363" stroke-miterlimit="10" stroke-linecap="round" stroke-linejoin="round"/>
<path d="M348.612 222.472C350.202 220.243 353.032 218.929 356.531 218.236C363.339 216.867 372.677 217.861 380.271 219.058C385.814 219.936 388.374 224.89 388.957 229.912C389.344 233.111 388.921 236.334 387.957 238.537C387.668 239.194 387.331 239.765 386.956 240.213C384.764 242.823 382.376 245.131 374.666 245.088C374.666 245.088 374.66 245.088 374.653 245.088C374.506 245.088 374.359 245.088 374.211 245.082" stroke="#1F4066" stroke-width="1.363" stroke-miterlimit="10" stroke-linecap="round" stroke-linejoin="round"/>
<path d="M398.804 224.209C398.197 225.412 395.716 226.849 392.266 228.457C391.266 228.93 390.179 229.409 389.031 229.906" stroke="#1F4066" stroke-width="1.363" stroke-miterlimit="10" stroke-linecap="round" stroke-linejoin="round"/>
<path d="M399.326 223.141C401.364 224.798 401.536 227.192 401.076 229.66C400.873 230.704 400.278 231.459 399.596 232.251C399.541 232.318 399.486 232.386 399.424 232.454C398.976 232.975 398.393 233.35 397.804 233.712C396.042 234.799 394.304 235.738 392.506 236.585C391.038 237.279 389.541 237.917 387.957 238.525C387.932 238.537 387.914 238.537 387.895 238.55" stroke="#1F4066" stroke-width="1.363" stroke-miterlimit="10" stroke-linecap="round" stroke-linejoin="round"/>
<path d="M399.823 232.448C399.762 236.721 399.897 240.999 400.235 245.248C400.394 247.304 400.597 249.355 400.849 251.399" stroke="#1F4066" stroke-width="1.363" stroke-miterlimit="10" stroke-linecap="round" stroke-linejoin="round"/>
<path d="M392.763 237.132C393.298 246.604 391.333 254.468 385.618 259.674C383.438 261.657 380.51 262.578 377.661 263.339" stroke="#1F4066" stroke-width="1.363" stroke-miterlimit="10" stroke-linecap="round" stroke-linejoin="round"/>
<path d="M375.138 271.75C375.157 271.013 375.243 270.264 375.378 269.503C375.605 268.257 375.967 266.992 376.372 265.721C376.642 264.88 376.925 264.039 377.201 263.192C377.981 260.828 378.693 258.471 378.717 256.224C378.723 255.868 378.705 255.494 378.496 255.205C378.245 254.861 377.766 254.769 377.342 254.874C377.213 254.904 377.084 254.96 376.968 255.021C376.483 255.297 376.163 255.788 375.863 256.255C374.764 257.98 373.659 259.711 372.554 261.43" stroke="#1F4066" stroke-width="1.363" stroke-miterlimit="10" stroke-linecap="round" stroke-linejoin="round"/>
<path d="M372.37 261.872C372.333 261.835 372.29 261.799 372.253 261.768C368.956 258.784 365.905 255.543 363.124 252.068C362.246 250.975 361.387 249.846 360.325 248.937C360.085 248.729 359.815 248.526 359.496 248.501C358.894 248.446 358.409 249.072 358.391 249.668C358.366 250.276 358.673 250.834 358.968 251.362C360.951 254.855 362.719 258.201 365.132 261.406C365.144 261.424 365.156 261.443 365.169 261.461" stroke="#1F4066" stroke-width="1.363" stroke-miterlimit="10" stroke-linecap="round" stroke-linejoin="round"/>
<path d="M365.083 261.43C361.915 258.207 358.741 254.99 355.579 251.767C355.53 251.718 355.481 251.669 355.432 251.62C355.156 251.344 354.873 251.061 354.517 250.914C354.155 250.767 353.695 250.797 353.431 251.086C353.173 251.374 353.191 251.816 353.253 252.203C353.418 253.105 353.762 253.965 354.18 254.788C354.431 255.285 354.708 255.764 354.996 256.243C356.69 259.06 358.661 261.712 360.865 264.156" stroke="#1F4066" stroke-width="1.363" stroke-miterlimit="10" stroke-linecap="round" stroke-linejoin="round"/>
<path d="M354.02 254.892C353.639 254.788 353.443 255.334 353.443 255.727C353.449 256.089 353.474 256.451 353.504 256.807C353.547 257.255 353.609 257.697 353.701 258.133C354.229 260.865 355.585 263.437 357.574 265.384C357.617 265.433 357.611 265.5 357.63 265.562C357.636 265.623 357.679 265.697 357.74 265.684C357.802 265.678 357.765 265.549 357.722 265.592" stroke="#1F4066" stroke-width="1.363" stroke-miterlimit="10" stroke-linecap="round" stroke-linejoin="round"/>
<path d="M353.247 258.219C352.768 258.729 352.663 259.484 352.688 260.184C352.768 262.83 354.272 265.218 355.997 267.225C356.138 267.385 356.267 267.544 356.408 267.698C359.066 270.712 361.559 272.75 365.285 274.457" stroke="#1F4066" stroke-width="1.363" stroke-miterlimit="10" stroke-linecap="round" stroke-linejoin="round"/>
<path d="M355.635 251.718C355.776 251.018 355.935 250.318 356.107 249.625C356.666 247.408 357.396 245.235 358.287 243.129C358.544 242.503 358.827 241.889 359.109 241.282C359.183 241.116 359.269 240.95 359.349 240.784C359.705 240.06 360.104 239.311 360.656 238.734C360.908 238.47 361.19 238.243 361.516 238.065C362.639 237.451 364.07 237.598 365.218 238.175C366.359 238.758 367.274 239.71 368.103 240.692C368.803 241.521 369.454 242.381 370.067 243.265C370.479 243.842 370.872 244.425 371.252 245.02C372.253 246.573 373.186 248.182 374.107 249.79C374.813 251.037 376.857 253.302 376.655 254.738C376.648 254.775 376.642 254.818 376.63 254.855" stroke="#1F4066" stroke-width="1.363" stroke-miterlimit="10" stroke-linecap="round" stroke-linejoin="round"/>
<path d="M355.855 242.737C355.855 242.749 355.855 242.768 355.855 242.774C355.886 245.057 355.948 247.329 356.052 249.606" stroke="#1F4066" stroke-width="1.363" stroke-miterlimit="10" stroke-linecap="round" stroke-linejoin="round"/>
<path d="M400.4 245.235C400.763 245.315 401.106 245.438 401.426 245.598C403.464 246.635 404.575 249.263 404.36 251.62C404.311 252.166 404.213 252.694 404.065 253.216C403.488 255.303 402.242 257.213 400.965 259.005C398.774 262.099 396.447 265.114 393.813 267.845C393.12 268.576 392.401 269.288 391.658 269.976C390.234 271.296 388.669 272.554 386.796 273.07C384.746 273.635 382.517 273.248 380.565 272.394C378.613 271.547 377.379 270.823 375.666 269.558" stroke="#1F4066" stroke-width="1.363" stroke-miterlimit="10" stroke-linecap="round" stroke-linejoin="round"/>
<path d="M401.309 250.153C401.254 250.595 401.168 251.024 401.045 251.448C400.529 253.283 399.467 254.959 398.375 256.537C396.33 259.484 394.108 262.308 391.714 264.985C389.982 266.924 387.987 268.877 385.433 269.306C382.137 269.859 379.049 267.735 376.391 265.721" stroke="#1F4066" stroke-width="1.363" stroke-miterlimit="10" stroke-linecap="round" stroke-linejoin="round"/>
<path d="M404.55 253.357C407.209 254.653 409.523 256.556 411.42 258.821C413.391 261.166 414.919 263.916 415.938 266.808C417.952 272.486 418.124 278.687 417.307 284.66C416.258 292.309 414.011 300.972 410.505 308.627C408.209 313.636 405.379 318.216 401.984 321.807C399.197 324.766 396.036 327.056 392.487 328.37C385.047 331.133 382.143 330.893 374.911 324.318C374.684 324.116 374.457 323.907 374.217 323.692C374.217 323.692 372.142 321.691 369.859 317.387C367.814 313.544 365.604 307.847 364.548 300.1C362.314 283.672 364.739 282.518 364.739 282.518" stroke="#1F4066" stroke-width="1.363" stroke-miterlimit="10" stroke-linecap="round" stroke-linejoin="round"/>
<path d="M390.118 309.278C388.822 309.652 387.662 308.682 386.882 307.497C386.674 307.184 386.489 306.847 386.336 306.527C383.346 300.18 383.653 292.825 381.971 286.011C381.492 284.089 380.639 281.977 378.785 281.302" stroke="#1F4066" stroke-width="1.363" stroke-miterlimit="10" stroke-linecap="round" stroke-linejoin="round"/>
<path d="M378.245 281.198C375.973 282.72 373.29 283.629 370.559 283.776" stroke="#1F4066" stroke-width="1.363" stroke-miterlimit="10" stroke-linecap="round" stroke-linejoin="round"/>
<path d="M378.38 280.756C377.569 277.692 376.55 274.678 375.329 271.75C375.279 271.78 375.23 271.805 375.181 271.836C372.198 273.591 368.748 274.531 365.279 274.543C365.07 274.543 364.855 274.543 364.647 274.537C364.641 277.152 364.806 279.773 365.126 282.37" stroke="#1F4066" stroke-width="1.363" stroke-miterlimit="10" stroke-linecap="round" stroke-linejoin="round"/>
<path d="M411.353 258.882C408.664 258.753 404.864 262.062 401.868 268.416C399.381 273.69 393.697 295.213 389.614 303.869C388.571 306.085 387.631 307.454 386.882 307.503C386.827 307.503 386.772 307.503 386.71 307.491" stroke="#1F4066" stroke-width="1.363" stroke-miterlimit="10" stroke-linecap="round" stroke-linejoin="round"/>
<path d="M393.998 268.03C390.547 279.896 389.074 291.53 389.608 303.863C389.608 303.955 389.608 304.047 389.62 304.139" stroke="#1F4066" stroke-width="1.363" stroke-miterlimit="10" stroke-linecap="round" stroke-linejoin="round"/>
<path d="M353.068 256.844C352.657 256.899 352.24 256.997 351.822 257.151C348.384 258.354 344.86 262.916 343.295 274.85C341.76 286.569 342.865 296.508 341.644 308.258" stroke="#1F4066" stroke-width="1.363" stroke-miterlimit="10" stroke-linecap="round" stroke-linejoin="round"/>
<path d="M351.957 257.55C348.433 270.037 349.741 289.633 352.547 297.552" stroke="#1F4066" stroke-width="1.363" stroke-miterlimit="10" stroke-linecap="round" stroke-linejoin="round"/>
<path d="M356.064 267.999C353.946 277.428 353.05 288.239 352.657 297.552C352.442 302.525 352.375 307.074 352.344 310.757C352.307 314.735 352.313 317.707 352.227 319.112C352.227 319.131 352.227 319.143 352.227 319.149" stroke="#1F4066" stroke-width="1.363" stroke-miterlimit="10" stroke-linecap="round" stroke-linejoin="round"/>
<path d="M345.573 309.155C344.848 308.737 344.026 308.449 343.178 308.406C342.546 308.375 341.895 308.492 341.281 308.799" stroke="#1F4066" stroke-width="1.363" stroke-miterlimit="10" stroke-linecap="round" stroke-linejoin="round"/>
<path d="M341.46 308.799C341.404 308.817 341.361 308.848 341.312 308.866C335.879 311.242 328.899 313.293 323.233 315.773C318.315 317.928 317.124 320.26 316.547 322.391" stroke="#1F4066" stroke-width="1.363" stroke-miterlimit="10" stroke-linecap="round" stroke-linejoin="round"/>
<path d="M369.773 317.43C368.999 317.651 368.281 317.725 367.569 317.707C366.857 317.688 366.138 317.59 365.34 317.48C362.074 317.013 359.766 316.313 357.974 315.38C355.714 314.207 354.284 312.673 352.798 310.763" stroke="#1F4066" stroke-width="1.363" stroke-miterlimit="10" stroke-linecap="round" stroke-linejoin="round"/>
<path d="M374.88 324.355C371.946 324.877 369.343 325.135 367.016 325.135C363.149 325.147 360.061 324.447 357.538 323.06C355.659 322.029 354.081 320.629 352.725 318.849C352.7 318.812 352.669 318.775 352.639 318.738" stroke="#1F4066" stroke-width="1.363" stroke-miterlimit="10" stroke-linecap="round" stroke-linejoin="round"/>
<path d="M369.736 333.539C365.807 335.547 362.111 338.002 358.747 340.851C358.551 341.01 358.36 341.176 358.164 341.342C355.493 343.656 353.013 346.259 351.307 349.359C348.587 354.301 348.047 360.109 347.568 365.732C347.47 366.886 347.316 368.354 347.126 370.066C346.788 373.191 346.328 377.126 345.843 381.46C343.878 399.098 341.601 423.28 345.745 425.87" stroke="#1F4066" stroke-width="1.363" stroke-miterlimit="10" stroke-linecap="round" stroke-linejoin="round"/>
<path d="M402.408 322.207C402.592 323.25 402.745 324.257 402.881 325.239C403.519 330.083 403.451 334.577 401.861 341.962C401.462 343.804 400.726 345.449 399.823 346.879C397.3 350.882 393.476 353.227 392.082 353.755C386.305 355.928 380.528 358.102 374.751 360.275" stroke="#1F4066" stroke-width="1.363" stroke-miterlimit="10" stroke-linecap="round" stroke-linejoin="round"/>
<path d="M375.046 357.831C374.825 358.605 374.616 359.391 374.42 360.189C374.23 360.956 374.058 361.736 373.898 362.528C373.34 365.229 372.922 368.022 372.615 370.852C372.136 375.119 371.903 379.465 371.762 383.671C371.522 390.853 371.578 397.625 371.24 402.916" stroke="#1F4066" stroke-width="1.363" stroke-miterlimit="10" stroke-linecap="round" stroke-linejoin="round"/>
<path d="M352.479 319.039C352.393 319.063 352.313 319.088 352.227 319.106C345.069 321.095 333.595 323.95 324.356 327.547C323.423 327.916 322.514 328.29 321.637 328.665C318.678 329.935 316.05 331.292 314.012 332.729C312.667 333.68 310.384 335.203 308.474 338.143C307.13 340.212 305.964 342.987 305.454 346.762C305.227 348.445 304.251 352.754 303.017 358.414C302.286 361.779 301.458 365.622 300.641 369.667C297.369 385.899 294.287 405.409 298.081 410.645C298.591 411.351 299.223 411.793 299.99 411.941" stroke="#1F4066" stroke-width="1.363" stroke-miterlimit="10" stroke-linecap="round" stroke-linejoin="round"/>
<path d="M357.838 340.261C349.41 343.386 341.134 346.922 333.037 350.839C332.263 351.207 331.484 351.6 330.907 352.233C330.194 353.012 329.887 354.062 329.605 355.075C329.096 356.911 328.617 358.771 328.156 360.655C325.51 371.583 323.742 383.315 322.76 394.279" stroke="#1F4066" stroke-width="1.363" stroke-miterlimit="10" stroke-linecap="round" stroke-linejoin="round"/>
<path d="M358.508 340.568C358.311 340.427 358.127 340.286 357.943 340.133C356.513 338.935 355.475 337.266 355.058 335.442" stroke="#1F4066" stroke-width="1.363" stroke-miterlimit="10" stroke-linecap="round" stroke-linejoin="round"/>
<path d="M316.573 322.575C316.536 322.581 316.486 322.587 316.449 322.6" stroke="#1F4066" stroke-width="1.363" stroke-miterlimit="10" stroke-linecap="round" stroke-linejoin="round"/>
<path d="M324.16 327.062C323.325 325.724 322.281 324.478 320.961 323.618C319.678 322.784 318.101 322.323 316.59 322.575" stroke="#1F4066" stroke-width="1.363" stroke-miterlimit="10" stroke-linecap="round" stroke-linejoin="round"/>
<path d="M314.227 324.251C314.153 324.232 314.086 324.214 314.018 324.202C314.165 322.863 315.264 322.9 316.572 322.575H316.578C316.584 322.569 316.59 322.569 316.596 322.569" stroke="#1F4066" stroke-width="1.363" stroke-miterlimit="10" stroke-linecap="round" stroke-linejoin="round"/>
<path d="M321.6 328.591C320.74 326.577 316.498 324.809 314.227 324.251" stroke="#1F4066" stroke-width="1.363" stroke-miterlimit="10" stroke-linecap="round" stroke-linejoin="round"/>
<path d="M314.828 324.171C314.65 324.177 314.448 324.208 314.227 324.251H314.221C312.514 324.552 309.579 325.712 308.419 327.879C307.504 329.579 306.964 334.442 308.303 338.027" stroke="#1F4066" stroke-width="1.363" stroke-miterlimit="10" stroke-linecap="round" stroke-linejoin="round"/>
<path d="M309.647 330.611C308.487 332.667 308.579 336.24 308.487 337.843" stroke="#1F4066" stroke-width="1.363" stroke-miterlimit="10" stroke-linecap="round" stroke-linejoin="round"/>
<path d="M367.557 318.1C367.575 320.709 367.004 322.286 367.022 324.889" stroke="#1F4066" stroke-width="1.363" stroke-miterlimit="10" stroke-linecap="round" stroke-linejoin="round"/>
<path d="M357.82 315.675C357.175 318.413 357.286 320.267 357.544 323.06C357.544 323.078 357.55 323.091 357.55 323.103" stroke="#1F4066" stroke-width="1.363" stroke-miterlimit="10" stroke-linecap="round" stroke-linejoin="round"/>
<path d="M415.938 243.535C427.596 245.714 427.474 264.008 426.847 276.391C426.442 284.365 426.031 293.635 425.405 303.071C425.018 308.934 424.558 314.858 423.968 320.573C423.299 327.062 422.476 333.269 421.421 338.8C421.157 340.188 420.868 341.612 420.107 342.809C419.26 344.135 417.915 345.056 416.515 345.787C412.384 347.935 405.631 349.666 400.1 347.051" stroke="#1F4066" stroke-width="1.363" stroke-miterlimit="10" stroke-linecap="round" stroke-linejoin="round"/>
<path d="M425.11 303.053C420.678 306.448 416.35 308.001 410.579 308.664" stroke="#1F4066" stroke-width="1.363" stroke-miterlimit="10" stroke-linecap="round" stroke-linejoin="round"/>
<path d="M423.452 320.518C418.234 324.509 410.794 326.983 403.488 325.153" stroke="#1F4066" stroke-width="1.363" stroke-miterlimit="10" stroke-linecap="round" stroke-linejoin="round"/>
<path d="M404.655 242.694C404.489 242.81 404.391 242.939 404.385 243.074C404.348 243.799 406.871 244.511 410.014 244.658C413.157 244.806 415.736 244.339 415.773 243.615C415.773 243.59 415.773 243.572 415.773 243.547C415.656 242.841 413.188 242.172 410.143 242.025C407.589 241.902 405.41 242.184 404.655 242.694Z" stroke="#1F4066" stroke-width="1.363" stroke-miterlimit="10" stroke-linecap="round" stroke-linejoin="round"/>
<path d="M404.495 242.663C403.126 243.123 401.99 244.198 401.456 245.536" stroke="#1F4066" stroke-width="1.363" stroke-miterlimit="10" stroke-linecap="round" stroke-linejoin="round"/>
<path d="M297.584 413.181L258.46 451.329L268.448 453.619L277.03 459.518L290.076 460.771L297.94 465.952L299.499 461.741L315.725 417.926C315.725 417.926 316.4 414.789 314.208 414.261" stroke="#1F4066" stroke-width="1.363" stroke-miterlimit="10" stroke-linecap="round" stroke-linejoin="round"/>
<path d="M371.301 403.358C370.159 423.458 364.775 426.521 362.535 427.921C362.51 427.933 362.492 427.951 362.467 427.97C358.845 430.247 349.87 430.118 346.782 427.159" stroke="#1F4066" stroke-width="1.363" stroke-miterlimit="10" stroke-linecap="round" stroke-linejoin="round"/>
<path d="M345.438 426.091C345.401 426.294 345.358 426.521 345.309 426.779C345.125 427.859 344.904 429.388 344.775 430.775C344.775 430.825 344.762 430.867 344.762 430.923" stroke="#1F4066" stroke-width="1.363" stroke-miterlimit="10" stroke-linecap="round" stroke-linejoin="round"/>
<path d="M362.553 427.951C362.584 428.682 362.504 429.394 362.357 430.1C362.228 430.745 362.038 431.383 361.835 432.022C361.135 434.232 348.274 437.449 345.039 431.052C344.989 430.966 344.947 430.874 344.904 430.782" stroke="#1F4066" stroke-width="1.363" stroke-miterlimit="10" stroke-linecap="round" stroke-linejoin="round"/>
<path d="M362.639 430.155C364.96 431.77 366.212 433.998 361.295 440.702C357.145 446.368 340.619 471.717 336.72 477.567C336.72 477.567 331.183 473.62 328.482 472.644C327.045 472.128 321.612 472.883 317.579 471.391C314.043 470.09 311.851 466.505 310.789 466.21C307.818 465.381 301.85 464.159 302.25 462.754C302.28 462.637 302.36 462.52 302.489 462.404C309.113 456.068 336.456 436.405 345.039 431.045" stroke="#1F4066" stroke-width="1.363" stroke-miterlimit="10" stroke-linecap="round" stroke-linejoin="round"/>
<path d="M314.153 413.206C314.141 413.506 314.061 413.819 313.932 414.139C313.011 416.392 309.309 418.725 304.822 418.19C301.464 417.785 298.161 415.422 297.694 413.629C297.651 413.476 297.633 413.328 297.639 413.181C297.645 413.089 297.651 413.003 297.676 412.917" stroke="#1F4066" stroke-width="1.363" stroke-miterlimit="10" stroke-linecap="round" stroke-linejoin="round"/>
<path d="M322.662 394.205C322.668 394.224 322.668 394.248 322.68 394.285C322.815 395.544 320.697 405.716 320.519 406.508C319.519 410.891 315.602 412.518 314.116 413.064C313.907 413.138 313.742 413.2 313.643 413.236C311.108 414.225 308.401 415.121 305.724 414.673" stroke="#1F4066" stroke-width="1.363" stroke-miterlimit="10" stroke-linecap="round" stroke-linejoin="round"/>
<path d="M298.032 410.676C297.786 411.99 298.087 412.395 297.694 413.623C297.688 413.648 297.682 413.684 297.67 413.715" stroke="#1F4066" stroke-width="1.363" stroke-miterlimit="10" stroke-linecap="round" stroke-linejoin="round"/>
<path d="M388.202 364.302C398.387 369.121 395.637 379.883 376.274 383.069C374.745 383.314 373.241 383.517 371.768 383.67C361.442 384.751 352.565 383.529 345.849 381.46C336.646 378.618 331.533 374.167 332.435 371.798" stroke="#1BC7E1" stroke-width="0.776" stroke-miterlimit="10"/>
<path d="M332.036 358.531C331.054 359.471 329.728 360.17 328.162 360.655C321.477 362.767 310.427 361.122 303.023 358.409C296.552 356.039 292.869 352.847 297.314 350.624" stroke="#1BC7E1" stroke-width="0.776" stroke-miterlimit="10"/>
<path d="M376.87 363.142C379.976 364.996 379.638 368.796 372.621 370.858C369.19 371.871 364.162 372.467 357.169 372.215C353.216 372.074 349.735 371.221 347.132 370.073C343.093 368.298 341.171 365.818 342.89 364.167" stroke="#1BC7E1" stroke-width="0.776" stroke-miterlimit="10"/>
<path d="M318.358 370.594C312.336 371.147 306.234 370.736 300.641 369.655C289.118 367.427 279.775 362.374 277.853 357.107" stroke="#1BC7E1" stroke-width="0.776" stroke-miterlimit="10"/>
<path d="M375.599 230.962C375.599 232.454 375.101 230.25 374.438 230.25C373.781 230.25 373.204 232.454 373.204 230.962C373.204 229.47 373.738 228.255 374.401 228.255C375.064 228.255 375.599 229.464 375.599 230.962Z" fill="#4E2CBE"/>
<path d="M357.28 230.637C357.28 232.079 356.666 230.072 356.027 230.072C355.389 230.072 354.971 232.079 354.971 230.637C354.971 229.194 355.487 228.028 356.126 228.028C356.764 228.028 357.28 229.194 357.28 230.637Z" fill="#4E2CBE"/>
<path d="M372.879 226.916C372.965 226.327 373.321 225.817 373.904 225.639C374.432 225.474 375.022 225.602 375.421 226.014C375.703 226.308 375.85 226.689 375.912 227.088C375.961 227.389 376.421 227.26 376.372 226.959C376.237 226.155 375.746 225.431 374.942 225.179C374.267 224.97 373.487 225.148 372.984 225.645C372.67 225.952 372.48 226.358 372.419 226.787C372.4 226.916 372.449 227.039 372.584 227.082C372.701 227.113 372.861 227.045 372.879 226.916Z" fill="#4E2CBE"/>
<path d="M355.008 225.756C355.094 225.222 355.413 224.768 355.892 224.602C356.119 224.522 356.347 224.504 356.555 224.547C356.789 224.596 356.973 224.694 357.132 224.866C357.341 225.087 357.458 225.412 357.488 225.731C357.501 225.86 357.587 225.971 357.728 225.971C357.845 225.971 357.98 225.86 357.967 225.731C357.9 225.013 357.531 224.35 356.813 224.123C356.205 223.926 355.512 224.123 355.07 224.571C354.787 224.853 354.609 225.228 354.548 225.627C354.529 225.756 354.579 225.885 354.714 225.922C354.83 225.952 354.99 225.885 355.008 225.756Z" fill="#4E2CBE"/>
<path d="M371.725 245.125C371.854 246.334 372.812 247.341 373.929 247.814C375.046 248.286 376.311 248.311 377.52 248.219C379.012 248.102 380.492 247.807 381.922 247.353C383.721 246.782 385.483 245.91 386.723 244.492C387.521 243.578 388.092 242.46 388.994 241.65C389.651 241.067 390.449 240.674 391.235 240.287C394.065 238.906 396.895 237.518 399.731 236.137C399.805 234.86 399.879 233.589 399.952 232.312C396.674 234.602 393.107 236.487 389.369 237.899C388.877 238.083 388.368 238.274 387.987 238.636C387.65 238.961 387.441 239.397 387.208 239.808C385.783 242.295 383.076 243.835 380.283 244.492C377.496 245.149 374.586 245.033 371.725 244.91C371.676 245.272 371.627 245.64 371.578 246.003" fill="#1F4066"/>
<path d="M377.704 252.258C377.784 252.443 377.864 252.645 378.036 252.749C378.226 252.872 378.466 252.854 378.693 252.872C379.601 252.97 380.246 253.855 380.424 254.751C380.602 255.647 380.424 256.562 380.344 257.47C380.209 258.993 380.344 260.54 380.743 262.019C379.565 262.455 378.38 262.879 377.189 263.284C377.901 261.479 378.325 259.57 378.552 257.642C378.631 256.973 378.674 256.255 378.361 255.653C378.048 255.052 377.244 254.665 376.667 255.021C375.304 252.068 373.812 249.177 372.198 246.359C372.284 246.506 374.285 246.187 374.561 246.242C375.341 246.389 375.304 246.463 375.654 247.267C376.372 248.919 377.023 250.595 377.704 252.258Z" fill="#1F4066"/>
<path d="M393.617 268.22C393.537 268.515 393.666 268.852 393.967 268.901C394.268 268.957 394.568 268.834 394.838 268.699C396.539 267.827 397.681 266.188 398.792 264.635C401.327 261.092 404.231 257.563 408.234 255.85C407.092 254.855 405.735 254.106 404.286 253.677C401.168 259.177 398.166 264.039 393.427 268.22" fill="#1F4066"/>
<path d="M417.461 238.851C417.461 240.539 414.299 241.902 410.401 241.902C406.503 241.902 403.341 240.533 403.341 238.851C403.341 237.169 406.503 235.8 410.401 235.8C414.299 235.793 417.461 237.162 417.461 238.851Z" fill="#1F4066"/>
<path d="M411.543 238.274H408.682V244.376H411.543V238.274Z" fill="#1F4066"/>
<path d="M406.429 330.654C406.054 337.364 405.766 341.98 408.485 348.126C404.55 348.844 401.696 347.948 399.443 347.113C400.29 346.879 401.254 343.423 401.512 342.582C403.611 335.712 403.654 328.91 402.408 321.402C404.286 318.99 408.706 313.225 408.706 313.225C408.706 313.225 406.889 322.477 406.429 330.654Z" fill="#1F4066"/>
<path d="M417.068 254.112C419.278 253.222 420.297 254.548 422.108 253.001C422.433 252.725 422.851 252.43 423.25 252.577C423.588 252.706 423.741 253.087 423.852 253.437C426.129 260.663 425.816 268.416 425.485 275.986C425.116 284.341 424.748 292.696 424.244 301.039C424.202 301.782 424.165 302.568 423.753 303.181C422.255 305.404 416.178 308.08 410.462 308.529C412.734 304.458 415.03 298.276 415.889 293.697C417.093 287.306 417.964 280.774 417.338 274.297C417.037 271.203 416.282 268.164 415.281 265.224C412.967 258.397 410.106 256.433 406.889 253.75C408.688 254.296 415.275 254.83 417.068 254.112Z" fill="#85B71B"/>
<path d="M406.404 345.909C406.503 346.56 406.675 347.291 407.245 347.616C407.73 347.886 408.326 347.77 408.866 347.641C410.168 347.328 411.475 347.014 412.777 346.707C414.631 346.265 416.589 345.768 417.952 344.43C419.487 342.926 420.088 340.685 420.297 338.543C420.819 333.288 421.531 328.106 422.249 321.316C422.237 322.575 415.146 324.515 414.103 324.797C412.083 325.35 409.916 325.835 406.963 325.829C404.514 325.822 405.858 333.601 405.791 335.995C405.698 339.304 405.901 342.631 406.404 345.909Z" fill="#85B71B"/>
<path d="M331.097 467.511C336.997 459.469 342.086 453.036 344.769 448.744" stroke="#1F4066" stroke-width="1.363" stroke-miterlimit="10" stroke-linecap="round" stroke-linejoin="round"/>
<path d="M316.32 462.121C321.151 457.026 331.097 448.45 336.456 443.919" stroke="#1F4066" stroke-width="1.363" stroke-miterlimit="10" stroke-linecap="round" stroke-linejoin="round"/>
<path d="M344.67 434.361C347.568 437.467 352.626 438.29 356.359 436.264" stroke="#1F4066" stroke-width="1.363" stroke-miterlimit="10" stroke-linecap="round" stroke-linejoin="round"/>
<path d="M292.445 455.7C294.913 447.965 297.829 440.371 301.181 432.979" stroke="#1F4066" stroke-width="1.363" stroke-miterlimit="10" stroke-linecap="round" stroke-linejoin="round"/>
<path d="M273.771 447.983C278.645 442.034 283.427 436.012 288.111 429.916" stroke="#1F4066" stroke-width="1.363" stroke-miterlimit="10" stroke-linecap="round" stroke-linejoin="round"/>
<path d="M297.4 419.363C299.825 421.886 303.754 421.991 307.253 421.929" stroke="#1F4066" stroke-width="1.363" stroke-miterlimit="10" stroke-linecap="round" stroke-linejoin="round"/>
<path d="M376.814 270.19C376.943 269.183 377.631 268.017 378.459 267.428" stroke="#0C1C2E" stroke-width="1.363" stroke-miterlimit="10" stroke-linecap="round" stroke-linejoin="round"/>
<path d="M379.141 271.707C379.27 270.7 379.78 269.441 380.608 268.852" stroke="#0C1C2E" stroke-width="1.363" stroke-miterlimit="10" stroke-linecap="round" stroke-linejoin="round"/>
<path d="M382.689 272.892C382.407 271.916 382.585 270.571 383.107 269.706" stroke="#0C1C2E" stroke-width="1.363" stroke-miterlimit="10" stroke-linecap="round" stroke-linejoin="round"/>
<path d="M385.986 272.836C385.483 271.952 385.335 270.608 385.642 269.638" stroke="#0C1C2E" stroke-width="1.363" stroke-miterlimit="10" stroke-linecap="round" stroke-linejoin="round"/>
<path d="M389.196 271.559C388.294 271.087 387.441 270.037 387.177 269.055" stroke="#0C1C2E" stroke-width="1.363" stroke-miterlimit="10" stroke-linecap="round" stroke-linejoin="round"/>
<path d="M391.431 269.914C390.529 269.441 389.528 268.527 389.264 267.551" stroke="#0C1C2E" stroke-width="1.363" stroke-miterlimit="10" stroke-linecap="round" stroke-linejoin="round"/>
<path d="M393.568 267.821C392.622 267.44 391.671 266.483 391.302 265.531" stroke="#0C1C2E" stroke-width="1.363" stroke-miterlimit="10" stroke-linecap="round" stroke-linejoin="round"/>
<path d="M395.624 265.954C394.679 265.574 393.592 264.77 393.23 263.818" stroke="#0C1C2E" stroke-width="1.363" stroke-miterlimit="10" stroke-linecap="round" stroke-linejoin="round"/>
<path d="M397.288 263.327C396.312 263.051 395.274 262.191 394.82 261.283" stroke="#0C1C2E" stroke-width="1.363" stroke-miterlimit="10" stroke-linecap="round" stroke-linejoin="round"/>
<path d="M399.142 261.264C398.166 260.988 397.012 260.294 396.557 259.386" stroke="#0C1C2E" stroke-width="1.363" stroke-miterlimit="10" stroke-linecap="round" stroke-linejoin="round"/>
<path d="M400.99 258.477C399.989 258.275 398.872 257.495 398.344 256.629" stroke="#0C1C2E" stroke-width="1.363" stroke-miterlimit="10" stroke-linecap="round" stroke-linejoin="round"/>
<path d="M402.684 256.273C401.683 256.071 400.468 255.463 399.934 254.597" stroke="#0C1C2E" stroke-width="1.363" stroke-miterlimit="10" stroke-linecap="round" stroke-linejoin="round"/>
<path d="M404.219 252.657C403.206 252.786 401.855 252.608 401.076 251.951" stroke="#0C1C2E" stroke-width="1.363" stroke-miterlimit="10" stroke-linecap="round" stroke-linejoin="round"/>
<path d="M404.219 249.483C404.342 249.582 403.495 247.918 403.476 247.764C403.464 247.691 403.421 247.635 403.372 247.58C402.537 246.586 401.647 245.554 400.431 245.112C400.671 247.126 401.051 249.182 401.131 251.208C401.272 249.944 403.145 248.612 404.219 249.483Z" fill="#0C1C2E"/>
<path d="M415.883 238.089C415.883 239.053 413.391 239.833 410.321 239.833C407.252 239.833 404.759 239.053 404.759 238.089C404.759 237.126 407.252 236.346 410.321 236.346C413.391 236.346 415.883 237.126 415.883 238.089Z" fill="#4E2CBE"/>
<path d="M405.078 253.093C412.058 255.899 423.139 253.934 424.214 250.539" stroke="#0C1C2E" stroke-width="1.363" stroke-miterlimit="10" stroke-linecap="round" stroke-linejoin="round"/>
<path d="M395.17 323.324C391.474 325.614 386.95 327.259 380.694 324.754C376.661 323.14 372.124 316.755 369.527 313.268C370.239 318.271 374.07 322.728 377.864 325.632C380.227 327.443 382.965 328.953 385.937 329.131C388.736 329.297 392.825 327.695 395.268 326.32C401.984 322.526 405.576 316.688 408.915 309.732C411.389 304.581 413.139 299.112 414.526 293.58C416.3 286.508 416.675 281.535 416.914 279.325C414.146 297.386 405.968 316.645 395.17 323.324ZM416.908 279.325C416.963 278.963 417.019 278.601 417.068 278.239C417.013 278.441 416.963 278.81 416.908 279.325Z" fill="url(#paint5_linear)"/>
<path d="M393.383 346.222C389.1 349.051 386.112 349.912 381.29 351.659C380.339 352.003 377.915 352.938 377.179 353.627C375.62 355.097 375.044 357.649 375.099 359.796C377.706 358.775 380.32 357.754 382.928 356.739C386.106 355.497 390.928 353.811 395.217 350.945C400.69 347.286 401.85 340.299 402.721 333.755V333.398C402.206 338.503 397.665 343.392 393.383 346.222Z" fill="url(#paint6_linear)"/>
<path d="M355.954 334.515C356.218 335.657 356.678 336.75 357.304 337.738C357.636 338.254 358.06 338.776 358.655 338.911C359.435 339.089 360.184 338.561 360.816 338.057L363.008 336.302C360.613 336.455 358.176 335.768 356.224 334.38L355.954 334.515Z" fill="url(#paint7_linear)"/>
<path d="M356.285 264.69C356.488 265.163 356.715 265.623 356.985 266.053L356.383 264.53C356.347 264.586 356.316 264.641 356.285 264.69Z" fill="#45F4FF"/>
<path d="M357.053 210.936L357.341 211.372C359.465 209.537 362.295 208.665 365.083 208.327C371.467 207.554 374.015 207.836 378.239 209.297C378.048 207.21 376.722 204.128 376.771 202.035C376.833 199.377 377.33 196.313 379.614 194.95C378.988 194.797 378.011 194.674 376.808 194.674C371.148 194.674 360.405 197.295 357.053 210.936Z" fill="url(#paint8_linear)"/>
<path d="M376.6 194.287C372.327 194.533 367.986 195.871 364.579 198.505C361.547 200.856 359.435 204.122 358.035 207.658C357.857 208.112 357.685 208.573 357.526 209.033C357.415 209.346 357.918 209.481 358.023 209.168C359.238 205.645 361.074 202.293 363.861 199.77C366.955 196.964 370.976 195.46 375.077 194.938C379.43 194.379 383.985 195.128 387.834 197.259C389.737 198.308 391.444 199.696 392.831 201.372C394.298 203.146 395.379 205.252 396.152 207.413C397.748 211.9 397.884 216.719 397.908 221.434C397.914 222.097 397.914 222.754 397.914 223.417C397.914 223.749 398.43 223.749 398.43 223.417C398.43 218.469 398.479 213.38 397.073 208.585C395.778 204.171 393.273 200.187 389.406 197.609C386.017 195.349 381.928 194.244 377.87 194.244C377.447 194.251 377.023 194.263 376.6 194.287Z" fill="url(#paint9_linear)"/>
<path d="M398.866 236.966C398.86 239.692 398.915 242.424 399.025 245.149C399.124 247.531 399.019 250.177 400.143 252.35C400.296 252.645 400.738 252.387 400.585 252.093C400.026 251.012 399.817 249.803 399.719 248.599C399.615 247.353 399.572 246.101 399.523 244.848C399.418 242.227 399.369 239.593 399.375 236.972C399.375 236.806 399.246 236.726 399.117 236.726C398.995 236.714 398.866 236.8 398.866 236.966Z" fill="url(#paint10_linear)"/>
<path d="M350.361 258.526C346.273 262.4 345.155 268.22 344.535 273.579C343.725 280.547 343.246 287.564 342.939 294.569C342.761 298.614 342.663 302.666 342.638 306.718C342.638 307.049 343.148 307.049 343.154 306.718C343.197 299.652 343.473 292.586 343.97 285.538C344.222 282.027 344.529 278.521 344.891 275.016C345.18 272.253 345.536 269.478 346.285 266.789C347.114 263.837 348.47 261.019 350.723 258.882C350.907 258.704 350.729 258.447 350.533 258.447C350.478 258.459 350.416 258.477 350.361 258.526Z" fill="url(#paint11_linear)"/>
<path d="M341.245 309.787C340.14 310.168 339.041 310.549 337.936 310.929C335.732 311.69 333.522 312.452 331.318 313.207C327.837 314.404 324.16 315.472 321.102 317.596C319.562 318.664 318.229 320.015 317.351 321.679C317.198 321.973 317.64 322.231 317.8 321.937C319.359 318.971 322.312 317.197 325.308 315.926C326.941 315.233 328.623 314.674 330.299 314.097C332.411 313.373 334.522 312.642 336.634 311.918C337.782 311.519 338.936 311.126 340.09 310.727C340.668 310.53 341.238 310.328 341.816 310.131C342.239 309.984 342.921 309.671 343.283 310.082C343.504 310.334 343.866 309.965 343.645 309.72C343.418 309.462 343.123 309.364 342.81 309.364C342.282 309.37 341.693 309.634 341.245 309.787Z" fill="url(#paint12_linear)"/>
<path d="M365.623 275.906C365.469 277.576 365.469 279.246 365.592 280.915C365.653 281.732 365.647 282.499 365.402 283.291C365.162 284.059 364.862 284.795 364.671 285.581C363.941 288.638 364.291 291.818 364.683 294.9C365.396 300.444 366.126 306.067 368.078 311.341C369.147 314.232 370.595 316.97 372.541 319.37C372.75 319.628 373.112 319.26 372.904 319.008C369.411 314.692 367.661 309.321 366.587 303.943C366.04 301.211 365.66 298.455 365.297 295.692C364.898 292.629 364.45 289.473 365.021 286.404C365.175 285.569 365.426 284.771 365.709 283.973C366.01 283.125 366.175 282.315 366.132 281.413C366.046 279.565 365.96 277.754 366.132 275.906C366.145 275.74 366.028 275.66 365.899 275.66C365.77 275.66 365.635 275.74 365.623 275.906Z" fill="url(#paint13_linear)"/>
<path d="M348.55 364.394C347.47 372.393 346.561 380.417 345.824 388.459C345.094 396.495 344.517 404.555 344.161 412.616C343.983 416.686 343.964 420.91 345.567 424.735C345.689 425.035 346.193 424.906 346.064 424.599C344.633 421.186 344.511 417.441 344.633 413.795C344.762 409.866 345.02 405.937 345.278 402.014C345.806 394.009 346.518 386.009 347.396 378.035C347.893 373.529 348.446 369.029 349.047 364.535C349.072 364.339 348.906 364.21 348.759 364.21C348.654 364.21 348.569 364.265 348.55 364.394Z" fill="url(#paint14_linear)"/>
<path d="M305.515 352.454C303.379 360.146 301.593 367.93 300.168 375.788C299.45 379.742 298.824 383.708 298.29 387.686C297.78 391.473 297.295 395.286 297.025 399.098C296.761 402.794 296.884 406.76 299.008 409.946C299.192 410.222 299.64 409.964 299.45 409.688C297.547 406.833 297.314 403.322 297.479 399.988C297.67 396.25 298.167 392.505 298.652 388.791C299.671 380.945 301.052 373.148 302.784 365.432C303.747 361.122 304.822 356.843 306 352.589C306.056 352.398 305.896 352.27 305.743 352.27C305.651 352.27 305.546 352.325 305.515 352.454Z" fill="url(#paint15_linear)"/>
<path d="M356.954 213.355C360.73 211.016 367.421 209.727 371.854 210.065C387.14 211.225 392.297 223.718 391.781 228.445C392.26 228.715 391.842 228.623 392.082 228.132C392.321 227.641 392.278 227.064 392.217 226.523C391.953 224.068 391.486 221.6 390.492 219.341C388.503 214.829 384.42 211.403 379.792 209.702C375.163 208.002 370.037 207.922 365.211 208.935C362.142 209.58 354.437 212.968 355.788 214.908C355.837 213.816 356.083 213.895 356.954 213.355Z" fill="#B4A989"/>
<g filter="url(#filter2_f)">
<path d="M46.0427 126.205L382.166 152.91V515.727L46.0427 386.501L46.0427 126.205Z" fill="url(#paint16_linear)"/>
</g>
<g filter="url(#filter3_f)">
<path d="M577.07 225.965L376.937 335.048V515.113L577.07 410.946V225.965Z" fill="url(#paint17_linear)"/>
</g>
<defs>
<filter id="filter0_f" x="218.195" y="0" width="376.123" height="433.819" filterUnits="userSpaceOnUse" color-interpolation-filters="sRGB">
<feFlood flood-opacity="0" result="BackgroundImageFix"/>
<feBlend mode="normal" in="SourceGraphic" in2="BackgroundImageFix" result="shape"/>
<feGaussianBlur stdDeviation="10" result="effect1_foregroundBlur"/>
</filter>
<filter id="filter1_f" x="24.2009" y="163.298" width="232.766" height="242.588" filterUnits="userSpaceOnUse" color-interpolation-filters="sRGB">
<feFlood flood-opacity="0" result="BackgroundImageFix"/>
<feBlend mode="normal" in="SourceGraphic" in2="BackgroundImageFix" result="shape"/>
<feGaussianBlur stdDeviation="10" result="effect1_foregroundBlur"/>
</filter>
<filter id="filter2_f" x="26.0427" y="106.205" width="376.123" height="429.522" filterUnits="userSpaceOnUse" color-interpolation-filters="sRGB">
<feFlood flood-opacity="0" result="BackgroundImageFix"/>
<feBlend mode="normal" in="SourceGraphic" in2="BackgroundImageFix" result="shape"/>
<feGaussianBlur stdDeviation="10" result="effect1_foregroundBlur"/>
</filter>
<filter id="filter3_f" x="356.937" y="205.965" width="240.133" height="329.149" filterUnits="userSpaceOnUse" color-interpolation-filters="sRGB">
<feFlood flood-opacity="0" result="BackgroundImageFix"/>
<feBlend mode="normal" in="SourceGraphic" in2="BackgroundImageFix" result="shape"/>
<feGaussianBlur stdDeviation="10" result="effect1_foregroundBlur"/>
</filter>
<linearGradient id="paint0_linear" x1="342.251" y1="307.614" x2="310.021" y2="521.56" gradientUnits="userSpaceOnUse">
<stop stop-color="#48E2FF"/>
<stop offset="1" stop-color="#48E2FF" stop-opacity="0.56"/>
</linearGradient>
<linearGradient id="paint1_linear" x1="142.515" y1="308.142" x2="142.515" y2="460.544" gradientUnits="userSpaceOnUse">
<stop stop-color="#2979E1"/>
<stop offset="1" stop-color="#2979E1" stop-opacity="0"/>
</linearGradient>
<linearGradient id="paint2_linear" x1="381.848" y1="107.481" x2="381.848" y2="368.697" gradientUnits="userSpaceOnUse">
<stop stop-color="#45F4FF" stop-opacity="0"/>
<stop offset="1" stop-color="#45F4FF" stop-opacity="0.75"/>
</linearGradient>
<linearGradient id="paint3_linear" x1="98.3446" y1="179.922" x2="98.3446" y2="413.205" gradientUnits="userSpaceOnUse">
<stop stop-color="#45F4FF" stop-opacity="0"/>
<stop offset="1" stop-color="#45F4FF" stop-opacity="0.78"/>
</linearGradient>
<linearGradient id="paint4_linear" x1="363.391" y1="221.303" x2="363.391" y2="243.283" gradientUnits="userSpaceOnUse">
<stop stop-color="white"/>
<stop offset="1" stop-color="#37B6F0"/>
</linearGradient>
<linearGradient id="paint5_linear" x1="369.524" y1="303.691" x2="417.066" y2="303.691" gradientUnits="userSpaceOnUse">
<stop stop-color="#45F4FF"/>
<stop offset="1" stop-color="#45F4FF" stop-opacity="0.28"/>
</linearGradient>
<linearGradient id="paint6_linear" x1="375.099" y1="346.593" x2="402.725" y2="346.593" gradientUnits="userSpaceOnUse">
<stop stop-color="#45F4FF"/>
<stop offset="1" stop-color="#45F4FF" stop-opacity="0.38"/>
</linearGradient>
<linearGradient id="paint7_linear" x1="358.52" y1="338.923" x2="359.134" y2="335.547" gradientUnits="userSpaceOnUse">
<stop stop-color="#45F4FF"/>
<stop offset="1" stop-color="#45F4FF" stop-opacity="0.45"/>
</linearGradient>
<linearGradient id="paint8_linear" x1="357.054" y1="203.022" x2="375.095" y2="203.25" gradientUnits="userSpaceOnUse">
<stop offset="0.178584" stop-color="#45F4FF"/>
<stop offset="0.935616" stop-color="#45F4FF" stop-opacity="0.35"/>
</linearGradient>
<linearGradient id="paint9_linear" x1="374.175" y1="198.339" x2="398.43" y2="208.959" gradientUnits="userSpaceOnUse">
<stop offset="0.370265" stop-color="#45F4FF" stop-opacity="0"/>
<stop offset="1" stop-color="#45F4FF"/>
</linearGradient>
<linearGradient id="paint10_linear" x1="398.424" y1="239.164" x2="399.038" y2="250.521" gradientUnits="userSpaceOnUse">
<stop stop-color="#45F4FF" stop-opacity="0.24"/>
<stop offset="1" stop-color="#45F4FF"/>
</linearGradient>
<linearGradient id="paint11_linear" x1="342.638" y1="282.714" x2="350.807" y2="282.714" gradientUnits="userSpaceOnUse">
<stop stop-color="#45F4FF"/>
<stop offset="1" stop-color="#45F4FF" stop-opacity="0.08"/>
</linearGradient>
<linearGradient id="paint12_linear" x1="317.324" y1="315.72" x2="343.711" y2="315.72" gradientUnits="userSpaceOnUse">
<stop stop-color="#45F4FF"/>
<stop offset="1" stop-color="#45F4FF" stop-opacity="0"/>
</linearGradient>
<linearGradient id="paint13_linear" x1="366.194" y1="287.355" x2="368.342" y2="310.07" gradientUnits="userSpaceOnUse">
<stop stop-color="#45F4FF" stop-opacity="0.22"/>
<stop offset="1" stop-color="#45F4FF"/>
</linearGradient>
<linearGradient id="paint14_linear" x1="344.078" y1="394.554" x2="349.049" y2="394.554" gradientUnits="userSpaceOnUse">
<stop stop-color="#45F4FF"/>
<stop offset="1" stop-color="#45F4FF" stop-opacity="0.11"/>
</linearGradient>
<linearGradient id="paint15_linear" x1="296.927" y1="381.166" x2="306.021" y2="381.166" gradientUnits="userSpaceOnUse">
<stop stop-color="#45F4FF"/>
<stop offset="1" stop-color="#45F4FF" stop-opacity="0.15"/>
</linearGradient>
<linearGradient id="paint16_linear" x1="189.696" y1="73.1026" x2="189.696" y2="549.492" gradientUnits="userSpaceOnUse">
<stop offset="0.182642" stop-color="#45F4FF" stop-opacity="0"/>
<stop offset="1" stop-color="#45F4FF" stop-opacity="0.78"/>
</linearGradient>
<linearGradient id="paint17_linear" x1="428.294" y1="308.622" x2="428.294" y2="542.154" gradientUnits="userSpaceOnUse">
<stop stop-color="#45F4FF" stop-opacity="0"/>
<stop offset="1" stop-color="#45F4FF" stop-opacity="0.78"/>
</linearGradient>
</defs>
</svg>
